<svg width="128" height="128" viewBox="0 0 128 128" fill="none" xmlns="http://www.w3.org/2000/svg">
<rect x="16" y="14" width="96" height="99" rx="13" fill="#B7FFC9"/>
<path d="M64 0C99.3462 0 128 28.6538 128 64C128 99.3462 99.3462 128 64 128C50.1088 128 37.251 123.575 26.7602 116.056C24.8425 114.682 24.7173 111.93 26.3856 110.262L43.7782 92.8692C45.1329 91.5145 47.2462 91.3357 48.9358 92.239C53.4251 94.639 58.5536 96 64 96C81.6731 96 96 81.6731 96 64C96 46.3269 81.6731 32 64 32C46.3269 32 32 46.3269 32 64C32 69.1951 33.2381 74.101 35.4353 78.4389C36.2843 80.1151 36.0845 82.1782 34.7559 83.5068L17.2867 100.976C15.6049 102.658 12.8263 102.514 11.4659 100.563C4.23848 90.1983 0 77.5942 0 64C0 28.6538 28.6538 0 64 0Z" fill="#4A8057"/>
<circle cx="64" cy="64" r="14" fill="white"/>
</svg>
