<?xml version="1.0" encoding="UTF-8"?>
<svg version="1.1" xmlns="http://www.w3.org/2000/svg" width="4096" height="4096">
<path d="M0 0 C0.71833008 0.4945166 1.43666016 0.9890332 2.17675781 1.49853516 C12.07054101 8.3199461 21.65215279 15.44914033 31 23 C32.39605469 24.12148437 32.39605469 24.12148437 33.8203125 25.265625 C54.77386163 42.24838493 75.57852528 60.33899486 93 81 C94.08679904 82.24891439 95.175553 83.49612877 96.265625 84.7421875 C97.15386963 85.75925781 97.15386963 85.75925781 98.06005859 86.796875 C99.25479055 88.16485434 100.45040572 89.53206291 101.64697266 90.8984375 C102.19401855 91.5275 102.74106445 92.1565625 103.3046875 92.8046875 C103.79952637 93.37171387 104.29436523 93.93874023 104.80419922 94.52294922 C106 96 106 96 107 98 C107.00879936 96.23379051 107.00879936 96.23379051 107.01777649 94.43190002 C107.07529999 83.26751185 107.14821287 72.10331295 107.23571491 60.93911839 C107.2802055 55.20120749 107.31950709 49.46336412 107.34643555 43.7253418 C107.372683 38.17494129 107.41323253 32.62480374 107.46318626 27.07456779 C107.47971137 24.97021728 107.49131407 22.86582145 107.49761391 20.76141548 C107.58041653 -4.38452277 110.44404637 -29.79315845 128.7734375 -48.796875 C129.50820312 -49.52390625 130.24296875 -50.2509375 131 -51 C131.59039063 -51.62390625 132.18078125 -52.2478125 132.7890625 -52.890625 C147.65642078 -67.43050843 170.17740822 -71.1680659 190.09941101 -71.13371277 C191.56620771 -71.1371111 191.56620771 -71.1371111 193.06263667 -71.14057809 C196.31870686 -71.14687629 199.57473497 -71.14609142 202.83081055 -71.14526367 C205.17392531 -71.14825779 207.51703957 -71.15166091 209.8601532 -71.15544128 C216.21160001 -71.16426024 222.56303335 -71.16661853 228.91448569 -71.16725707 C233.55463781 -71.16808842 238.19478696 -71.17099024 242.83493802 -71.17409355 C255.32435354 -71.18239101 267.81376195 -71.18613676 280.30318012 -71.18542381 C281.0112923 -71.18538386 281.71940448 -71.1853439 282.44897461 -71.18530273 C283.15796029 -71.18526185 283.86694598 -71.18522097 284.59741608 -71.18517885 C296.07841762 -71.18477271 307.55938631 -71.19433628 319.04037835 -71.2084411 C330.85388285 -71.22283887 342.66737137 -71.2297094 354.48088485 -71.22884732 C361.10321736 -71.2285165 367.72551962 -71.23141013 374.34784508 -71.24202538 C380.58018214 -71.25174305 386.81244676 -71.25176042 393.04478645 -71.24450874 C395.3239083 -71.24346742 397.60303474 -71.24579871 399.88214874 -71.2518692 C424.82529445 -71.3139692 448.69956544 -69.31125048 467.71875 -51.28515625 C476.41656172 -42.57245102 482.25385815 -33.86550987 486.25 -22.1875 C486.4962915 -21.4773877 486.74258301 -20.76727539 486.99633789 -20.03564453 C491.36135038 -6.57120185 491.28646283 6.93536284 491.25168228 20.92250156 C491.25377071 23.04787079 491.25673481 25.17323931 491.26049101 27.29860625 C491.26827422 33.13959637 491.26362162 38.9805203 491.25693511 44.82150934 C491.25186077 51.17670822 491.25838204 57.53189698 491.26342177 63.88709444 C491.27064774 75.02696602 491.27049194 86.1668178 491.26532745 97.30669022 C491.25982044 109.25839653 491.2586679 121.21009148 491.26280212 133.16179848 C491.26306047 133.91734882 491.26331881 134.67289916 491.26358499 135.45134496 C491.26465158 138.52879926 491.265749 141.60625354 491.26688554 144.68370781 C491.27746256 173.34416962 491.27818177 202.00462383 491.27259064 230.66508675 C491.26719899 258.31680466 491.26508028 285.96851897 491.26763153 313.62023735 C491.26778649 315.35817642 491.2679408 317.0961155 491.26809447 318.83405457 C491.26871546 325.81894339 491.26935279 332.80383222 491.270014 339.78872104 C491.27184818 359.31798897 491.27298928 378.84725692 491.27358627 398.37652493 C491.27361356 399.26594971 491.27364086 400.1553745 491.27366897 401.07175155 C491.27448773 429.41982155 491.2722332 457.76789046 491.26788712 486.11596012 C491.26767637 487.49527147 491.26767637 487.49527147 491.26746136 488.9024477 C491.26517164 503.8338603 491.26273262 518.76527287 491.26028102 533.69668544 C491.25058834 592.79266638 491.25100157 651.88863825 491.26074219 710.98461914 C491.26318495 725.85264364 491.26560722 740.72066814 491.26788712 755.58869267 C491.26809846 756.96225581 491.26809846 756.96225581 491.26831407 758.3635677 C491.27263495 786.64044449 491.27445331 814.91732054 491.27358627 843.19419765 C491.27354552 844.52829847 491.27354552 844.52829847 491.27350394 845.88935081 C491.27287859 865.42601641 491.27161055 884.96268193 491.26976527 904.49934744 C491.26910709 911.49272308 491.26848091 918.48609871 491.26786385 925.47947435 C491.26770906 927.21903349 491.2675516 928.95859264 491.26739145 930.69815178 C491.26485779 958.29408556 491.26768348 985.89001537 491.27309174 1013.48594862 C491.27864165 1042.11846532 491.27651249 1070.75097294 491.26602915 1099.38348836 C491.26492471 1102.47644277 491.26385127 1105.56939718 491.26280212 1108.66235161 C491.26254171 1109.42130624 491.2622813 1110.18026087 491.26201299 1110.96221413 C491.25811012 1122.84770973 491.26076929 1134.73319378 491.26634014 1146.61868832 C491.27170887 1158.3848345 491.26947193 1170.15096033 491.26031196 1181.91710426 C491.25563276 1188.17848805 491.25375801 1194.4398295 491.26112393 1200.7012117 C491.38233304 1312.16201935 483.95546181 1423.61976476 427.71887207 1682.75408936 C426.99572827 1685.01334581 426.27830073 1687.27436111 425.56152344 1689.53564453 C400.63198565 1767.92149786 365.62557419 1844.72354662 318 1912 C317.18595835 1913.16259271 316.37215387 1914.32535152 315.55859375 1915.48828125 C298.76346901 1939.37138066 280.25248361 1962.11295455 260.38427734 1983.50244141 C258.9829388 1985.01845739 257.59375039 1986.54482708 256.20703125 1988.07421875 C250.52919536 1994.31732591 244.70593701 2000.39619552 238.75 2006.375 C238.10071533 2007.02887695 237.45143066 2007.68275391 236.7824707 2008.35644531 C232.94855398 2012.17819397 228.99904132 2015.80591502 224.90185547 2019.34326172 C222.09869971 2021.78513784 219.39877199 2024.33224689 216.6875 2026.875 C210.98515128 2032.17374466 205.07285619 2037.12898036 199 2042 C197.80726658 2042.9827665 196.61594599 2043.96724931 195.42578125 2044.953125 C185.23483161 2053.36921008 174.7290057 2061.2841383 164 2069 C163.19014648 2069.58426758 162.38029297 2070.16853516 161.54589844 2070.77050781 C136.31415477 2088.91051884 109.42436917 2104.435092 82 2119 C80.75186523 2119.66418945 80.75186523 2119.66418945 79.47851562 2120.34179688 C5.94953658 2159.11798329 -76.75213491 2182.24043818 -295 2209 C-296.28390625 2209.05784668 -297.5678125 2209.11569336 -298.890625 2209.17529297 C-394.98753252 2213.33998662 -491.06219804 2204.72553785 -676 2160 C-677.22283691 2159.63970703 -678.44567383 2159.27941406 -679.70556641 2158.90820312 C-725.45967032 2145.32426184 -770.40203929 2128.3971656 -814 2109 C-814.93020966 2108.58711731 -814.93020966 2108.58711731 -815.87921143 2108.16589355 C-854.80340724 2090.88120618 -893.09291902 2072.28483727 -930 2051 C-930.96228516 2050.44731445 -931.92457031 2049.89462891 -932.91601562 2049.32519531 C-954.04674305 2037.17537758 -974.84867849 2024.53216277 -995.20095825 2011.11865234 C-996.62457126 2010.18150057 -998.05033998 2009.2476134 -999.47848511 2008.31738281 C-1022.99048913 1992.97264033 -1041.55696221 1973.87277843 -1047.60302734 1945.50830078 C-1053.40878809 1908.82417658 -1035.10856453 1877.00272744 -1019.23466492 1845.48690796 C-1016.05897413 1839.1649509 -1012.97582143 1832.80482791 -1009.94140625 1826.4140625 C-1004.42913404 1814.84916412 -998.80116059 1803.34298624 -993.14639282 1791.847229 C-990.28623148 1786.03232574 -987.43028424 1780.21535331 -984.57421875 1774.3984375 C-984.00688522 1773.24310516 -983.4395517 1772.08777283 -982.85502625 1770.89743042 C-978.36411703 1761.749033 -973.89179953 1752.59171876 -969.4329834 1743.42764282 C-968.31561624 1741.13140402 -967.19748146 1738.83554062 -966.07910156 1736.53979492 C-962.73936627 1729.68357017 -959.40092508 1722.82673376 -956.06982422 1715.96630859 C-953.47748969 1710.62779407 -950.88035395 1705.29163555 -948.28060913 1699.95672607 C-947.27486591 1697.89069628 -946.2707664 1695.82386537 -945.26846313 1693.75616455 C-932.66614445 1667.76263296 -919.63304756 1643.62206264 -890.6875 1633.5 C-869.82972907 1628.22670351 -848.10730748 1631.93598604 -829.61865234 1642.43212891 C-820.62301917 1647.81810283 -811.94071251 1653.73123299 -803.2157135 1659.54089355 C-772.88487485 1679.71845153 -741.16917793 1697.93773006 -709 1715 C-707.89881836 1715.58749023 -706.79763672 1716.17498047 -705.66308594 1716.78027344 C-687.10939559 1726.65283116 -668.2487554 1735.6728736 -649.00469971 1744.11975098 C-647.06818464 1744.97006062 -645.13340851 1745.8242318 -643.19873047 1746.67871094 C-572.79508098 1777.67043041 -498.46722613 1796.4514648 -422 1804 C-421.30956604 1804.06896484 -420.61913208 1804.13792969 -419.90777588 1804.20898438 C-380.76644915 1808.06266008 -340.14877205 1807.61479064 -301 1804 C-300.3024762 1803.93683594 -299.60495239 1803.87367187 -298.8862915 1803.80859375 C-216.67293922 1796.32485607 -134.44580186 1773.79103179 -68 1723 C-67.11320557 1722.32952637 -67.11320557 1722.32952637 -66.20849609 1721.64550781 C-57.86689835 1715.32618451 -50.09869846 1708.57433935 -42.49316406 1701.39160156 C-40.24564345 1699.29695351 -37.93223194 1697.27841237 -35.625 1695.25 C-32.10035792 1692.08743993 -28.9328779 1688.81662058 -25.88671875 1685.1953125 C-23.63073573 1682.57033847 -21.25112439 1680.07920318 -18.875 1677.5625 C42.63620911 1610.99601061 70.03851429 1517.48423784 87 1337 C86.58339111 1337.44690186 86.16678223 1337.89380371 85.73754883 1338.35424805 C62.01022597 1363.77335863 62.01022597 1363.77335863 52.078125 1372.203125 C49.9191349 1374.06992095 47.82447007 1375.99890901 45.7331543 1377.94091797 C39.68525658 1383.55225128 33.45999563 1388.86334579 27 1394 C26.47180664 1394.42249023 25.94361328 1394.84498047 25.39941406 1395.28027344 C-19.73359481 1431.34979425 -70.04837489 1460.29663745 -124 1481 C-125.65539795 1481.63566895 -125.65539795 1481.63566895 -127.34423828 1482.28417969 C-167.90139235 1497.67874058 -209.97176518 1507.75423349 -253 1513 C-253.66896301 1513.0835675 -254.33792603 1513.16713501 -255.02716064 1513.25323486 C-297.2102604 1518.48687969 -341.72316422 1518.05608449 -384 1514 C-384.81374084 1513.92223328 -385.62748169 1513.84446655 -386.46588135 1513.76434326 C-460.40952865 1506.60627922 -533.29273269 1490.7127411 -602 1462 C-603.15983398 1461.52159668 -604.31966797 1461.04319336 -605.51464844 1460.55029297 C-634.93390727 1448.3686942 -663.6018989 1434.23441976 -691 1418 C-691.9192627 1417.45988281 -692.83852539 1416.91976562 -693.78564453 1416.36328125 C-709.30028449 1407.21915548 -724.22452581 1397.28943954 -739 1387 C-739.74169434 1386.4838916 -740.48338867 1385.9677832 -741.24755859 1385.43603516 C-749.11654169 1379.93879185 -756.78536249 1374.19749464 -764.34814453 1368.28857422 C-766.0391284 1366.96947684 -767.73604379 1365.65828932 -769.43359375 1364.34765625 C-777.2315001 1358.30297045 -784.77025736 1352.00622537 -792.21923828 1345.53808594 C-794.05252387 1343.95463389 -795.89739794 1342.38573654 -797.74609375 1340.8203125 C-808.53210591 1331.6758346 -808.53210591 1331.6758346 -813.33398438 1326.66503906 C-814.9524305 1325.04754162 -816.62990376 1323.58368136 -818.37890625 1322.109375 C-823.94799111 1317.26638763 -829.12098623 1312.02855589 -834.32739258 1306.80297852 C-836.058947 1305.066064 -837.79578359 1303.33456111 -839.53320312 1301.60351562 C-844.69798244 1296.44183547 -849.7891983 1291.27483606 -854.5300293 1285.71508789 C-856.89214625 1282.95908863 -859.39244925 1280.3345521 -861.875 1277.6875 C-866.27903724 1272.948477 -870.48401788 1268.10603378 -874.53515625 1263.05859375 C-876.41974341 1260.72003314 -878.32220516 1258.40354639 -880.24609375 1256.09765625 C-888.14657309 1246.61773914 -895.71396498 1236.95905972 -903 1227 C-903.53512207 1226.27135742 -904.07024414 1225.54271484 -904.62158203 1224.79199219 C-912.02082422 1214.70191905 -919.19340571 1204.49904465 -926 1194 C-926.51643066 1193.20674316 -927.03286133 1192.41348633 -927.56494141 1191.59619141 C-965.23734016 1133.58707317 -994.31182732 1071.5794485 -1016 1006 C-1016.60642334 1004.18387207 -1016.60642334 1004.18387207 -1017.22509766 1002.33105469 C-1044.19770831 921.0176672 -1056.8152547 834.59425523 -1034.46166992 514.94244385 C-1034.01761879 513.07412983 -1033.58187825 511.20384655 -1033.14648438 509.33349609 C-1028.55735235 489.65444366 -1022.7805636 470.3803909 -1016.67449951 451.12890625 C-1016.0366047 449.1155345 -1015.40284004 447.1009088 -1014.77001953 445.0859375 C-1002.12886415 405.07228448 -985.41738112 366.66287035 -967 329 C-966.57509277 328.1229541 -966.15018555 327.2459082 -965.71240234 326.34228516 C-959.03564124 312.56799203 -951.67298325 299.24251848 -944 286 C-943.4647168 285.07396973 -942.92943359 284.14793945 -942.37792969 283.19384766 C-931.03811449 263.63042333 -919.07118068 244.45745576 -906 226 C-905.51241211 225.3105127 -905.02482422 224.62102539 -904.52246094 223.91064453 C-892.90261302 207.53385186 -880.86718666 191.42040052 -868 176 C-866.58279797 174.25043352 -865.16615278 172.50041587 -863.75 170.75 C-854.65433591 159.65234399 -845.14971334 148.96670769 -835.30859375 138.52734375 C-832.47228576 135.51664279 -829.70098472 132.45281473 -826.9375 129.375 C-821.55602285 123.48750336 -815.94464194 117.83442831 -810.3125 112.1875 C-809.42103271 111.29144043 -808.52956543 110.39538086 -807.61108398 109.47216797 C-803.14712113 105.01859319 -798.62761135 100.70509356 -793.84301758 96.59790039 C-790.87711362 94.02645498 -788.04251705 91.31806242 -785.1875 88.625 C-780.21681045 83.97360822 -775.13778808 79.5484995 -769.8203125 75.29296875 C-767.20332753 73.16530923 -764.6553046 70.97996139 -762.11376953 68.76391602 C-754.37021127 62.02173618 -746.32121645 55.75354265 -738.11279297 49.58935547 C-736.09127491 48.06866185 -734.07784289 46.53789854 -732.06640625 45.00390625 C-706.29976906 25.41489263 -679.16934979 7.92723769 -651 -8 C-650.10812988 -8.50450684 -649.21625977 -9.00901367 -648.29736328 -9.52880859 C-577.5548429 -49.30755964 -500.34123553 -76.70630111 -373 -96 C-371.97036133 -96.09764648 -370.94072266 -96.19529297 -369.87988281 -96.29589844 C-281.94299685 -104.46519939 -194.80463091 -92.49787989 0 0 Z M-336 304 C-337.14839355 304.17160645 -338.29678711 304.34321289 -339.47998047 304.52001953 C-374.24486886 309.87472154 -408.3186812 319.59866441 -440 335 C-440.68239746 335.32677734 -441.36479492 335.65355469 -442.06787109 335.99023438 C-446.75772254 338.24099783 -451.39194773 340.58646086 -456 343 C-456.77311523 343.40444336 -457.54623047 343.80888672 -458.34277344 344.22558594 C-483.55147167 357.51489968 -506.83917892 373.91852997 -528 393 C-528.99845874 393.88698806 -529.99714593 394.77371905 -530.99609375 395.66015625 C-537.1111874 401.16125135 -542.98397794 406.88538548 -548.8125 412.6875 C-549.87090088 413.7388916 -549.87090088 413.7388916 -550.95068359 414.81152344 C-579.52516227 443.47367458 -602.62298892 478.68406479 -620.07324219 515.07714844 C-621.00477901 517.00991557 -621.95804308 518.93080616 -622.9140625 520.8515625 C-650.50340965 576.99018653 -664.96573726 643.12513867 -665.203125 705.55078125 C-665.21018463 706.79578903 -665.21724426 708.04079681 -665.22451782 709.3235321 C-665.2420311 713.31987263 -665.24921017 717.31612908 -665.25 721.3125 C-665.25029457 721.99475647 -665.25058914 722.67701294 -665.25089264 723.37994385 C-665.25235801 744.39925981 -664.94366402 765.14773476 -662 786 C-661.85081116 787.07785767 -661.85081116 787.07785767 -661.6986084 788.17749023 C-649.9556879 872.75366909 -617.74938239 953.44731175 -561 1018 C-560.19949219 1018.91265625 -559.39898438 1019.8253125 -558.57421875 1020.765625 C-547.11374204 1033.52721337 -535.1139156 1046.50106384 -521.53125 1057.0234375 C-519.1585476 1058.87619586 -516.89812267 1060.82394844 -514.63842773 1062.81176758 C-444.45290284 1124.0813931 -346.38224674 1150.11539934 -254.77684021 1143.90933228 C-231.85114469 1142.25342413 -209.15492297 1138.0774901 -187 1132 C-185.9677832 1131.71817871 -184.93556641 1131.43635742 -183.87207031 1131.14599609 C-136.43421251 1117.94126808 -93.25508652 1094.39145149 -55 1063.625 C-54.38366699 1063.13201416 -53.76733398 1062.63902832 -53.13232422 1062.13110352 C-42.98009967 1053.8815981 -33.57734176 1044.76413061 -24.33520508 1035.52050781 C-22.80762584 1033.99513287 -21.27216418 1032.47799328 -19.73632812 1030.9609375 C-13.3731561 1024.63383044 -7.57067977 1018.04792906 -2 1011 C-0.99899108 1009.78016873 0.00453316 1008.56239259 1.01171875 1007.34765625 C14.19580794 991.24154436 25.69959083 974.07467867 36 956 C36.5244873 955.0826709 37.04897461 954.1653418 37.58935547 953.22021484 C71.39811079 893.63596507 88.71290035 827.03064291 94 759 C94.07202637 758.08669922 94.14405273 757.17339844 94.21826172 756.23242188 C100.03410596 678.29702365 87.26336813 596.45983473 26 471 C25.50177734 470.23816406 25.00355469 469.47632813 24.49023438 468.69140625 C16.56834253 456.67538599 8.05513057 445.18387123 -1 434 C-1.47743652 433.40396973 -1.95487305 432.80793945 -2.44677734 432.19384766 C-10.20844504 422.58324671 -18.92239776 413.87293213 -27.625 405.125 C-28.20204681 404.54259552 -28.77909363 403.96019104 -29.37362671 403.36013794 C-36.59237032 396.09064205 -43.94410166 389.3439588 -52 383 C-53.23191349 381.98770854 -54.46143088 380.97248723 -55.6875 379.953125 C-83.17746947 357.40310998 -114.82950611 338.80387425 -148 326 C-148.91378418 325.64341309 -149.82756836 325.28682617 -150.76904297 324.91943359 C-176.72805295 314.88635669 -203.47477738 308.0418369 -231 304 C-232.08345703 303.83628906 -233.16691406 303.67257812 -234.28320312 303.50390625 C-267.45573987 298.69974473 -302.87939984 298.97132052 -336 304 Z " fill="#C4170B" transform="translate(1891,1221)"/>
<path d="M0 0 C20.54361457 -0.63508486 40.55100678 6.6826008 55.71875 20.59765625 C57.64561277 22.4241392 59.52693885 24.28358462 61.40625 26.16015625 C62.06367188 26.80597656 62.72109375 27.45179688 63.3984375 28.1171875 C73.22695992 38.51186904 79.06908419 51.72893311 83.40625 65.16015625 C83.88191406 66.61421875 83.88191406 66.61421875 84.3671875 68.09765625 C89.88081999 87.31348433 88.69878696 108.26514399 88.66106732 128.04959879 C88.65563715 132.08754277 88.66198869 136.12547281 88.66674101 140.16341531 C88.67349274 147.24996904 88.67288921 154.33649193 88.66737393 161.42304629 C88.65915485 172.03176402 88.66255407 182.64045695 88.66813921 193.24917527 C88.67732211 211.33338584 88.67704754 229.41758515 88.67157745 247.50179672 C88.66606998 265.82131554 88.66491825 284.14082695 88.66905212 302.46034622 C88.66931047 303.61853011 88.66956881 304.77671399 88.66983499 305.96999436 C88.67090156 310.68727884 88.67199898 315.40456332 88.67313554 320.12184778 C88.68370786 364.03303075 88.68443448 407.94420876 88.67884064 451.85539246 C88.67867505 453.15588701 88.67850946 454.45638156 88.67833885 455.79628503 C88.67817299 457.09886044 88.67800713 458.40143584 88.67783624 459.74348322 C88.67278999 499.42638627 88.67148705 539.10928726 88.67388153 578.79219055 C88.67403649 581.4494923 88.6741908 584.10679404 88.67434447 586.76409579 C88.67492646 596.77298875 88.67551954 606.78188171 88.67613967 616.79077467 C88.67802859 647.31043963 88.67922917 677.83010459 88.67983627 708.34976959 C88.67985001 709.0292706 88.67986375 709.70877161 88.6798779 710.40886355 C88.6807552 754.4055996 88.67855472 798.40233491 88.67413712 842.39907074 C88.67406688 843.10130124 88.67399664 843.80353174 88.67392428 844.52704196 C88.67157164 868.04769159 88.66905948 891.56834121 88.66653102 915.08899082 C88.65888901 986.22599081 88.65470438 1057.36298815 88.66676168 1184.41907685 C88.66928811 1207.94364797 88.67178515 1231.46821909 88.67413712 1254.99279022 C88.6742076 1255.69510487 88.67427809 1256.39741952 88.67435072 1257.12101643 C88.67876122 1301.10230706 88.68072548 1345.08359716 88.67983627 1389.064888 C88.67982276 1389.74410825 88.67980925 1390.42332849 88.67979533 1391.12313117 C88.67918189 1421.62090286 88.6779053 1452.1186745 88.67601527 1482.61644614 C88.67535505 1493.28287898 88.67473082 1503.94931183 88.67411385 1514.61574468 C88.67395907 1517.26930265 88.67380161 1519.92286061 88.67364145 1522.57641858 C88.67125326 1562.25507421 88.67328907 1601.93372752 88.67833885 1641.61238285 C88.67858723 1643.56411822 88.67858723 1643.56411822 88.67884064 1645.55528259 C88.67908868 1647.50342154 88.67908868 1647.50342154 88.67934174 1649.49091682 C88.68485451 1693.26628642 88.68283637 1737.04165006 88.67227915 1780.81701881 C88.67117442 1785.51507079 88.67010101 1790.21312278 88.66905212 1794.91117477 C88.66879171 1796.0641723 88.6685313 1797.21716983 88.66826299 1798.40510668 C88.6643143 1816.68068083 88.66706884 1834.95624759 88.67259014 1853.23182107 C88.67787355 1871.19065073 88.67603665 1889.14946788 88.66656196 1907.10829595 C88.66121606 1917.64369757 88.66135116 1928.17906492 88.66952515 1938.71446492 C88.67440538 1945.70740057 88.67206048 1952.70030949 88.66379145 1959.69324189 C88.65930405 1963.65978562 88.65791939 1967.62626102 88.66542448 1971.59280173 C88.67218421 1975.19649793 88.66963448 1978.80006684 88.65987507 1982.40375507 C88.65708455 1984.2945828 88.66401179 1986.18541746 88.67143767 1988.07623267 C88.5722277 2011.21299202 81.37458477 2029.30144468 65.21875 2045.91015625 C47.91240017 2063.0202774 25.23238809 2071.32296191 1.09214783 2071.30059814 C0.07909138 2071.30356927 -0.93396507 2071.30654039 -1.9777202 2071.30960155 C-5.35893457 2071.31824568 -8.74011336 2071.31979316 -12.12133789 2071.32128906 C-14.55135167 2071.3259203 -16.98136473 2071.33094537 -19.41137695 2071.33633423 C-26.00467448 2071.34943141 -32.59796466 2071.35593537 -39.19127202 2071.36034489 C-43.31485258 2071.36311504 -47.43843082 2071.36735379 -51.56200981 2071.37184906 C-62.99811308 2071.38403621 -74.43421451 2071.39433641 -85.87032413 2071.39772415 C-86.60120494 2071.39794372 -87.33208574 2071.39816328 -88.08511445 2071.3983895 C-89.18393248 2071.39871692 -89.18393248 2071.39871692 -90.30494887 2071.39905095 C-91.78915536 2071.3994944 -93.27336186 2071.39994097 -94.75756836 2071.40039062 C-95.49377277 2071.40061205 -96.22997718 2071.40083348 -96.98849081 2071.40106162 C-108.90538509 2071.4050058 -120.82221809 2071.4224507 -132.73908872 2071.44575015 C-144.99892138 2071.46952496 -157.25872336 2071.48192879 -169.51857942 2071.48309207 C-176.39193244 2071.48400543 -183.26520558 2071.48967158 -190.13853645 2071.50791168 C-196.60889612 2071.52502295 -203.07914509 2071.52651971 -209.5495224 2071.51777267 C-211.9153045 2071.51700538 -214.28109491 2071.52130406 -216.64685631 2071.53123093 C-244.6299896 2071.64169969 -268.89028124 2066.20540263 -289.59375 2046.16015625 C-304.83909903 2030.18883821 -313.95768816 2009.21031326 -313.84855902 1987.07598293 C-313.85180962 1986.10558679 -313.85506022 1985.13519065 -313.85840932 1984.13538856 C-313.86686091 1980.88797379 -313.86113281 1977.64074244 -313.85546303 1974.3933239 C-313.85865126 1972.02988245 -313.86271424 1969.66644204 -313.86757231 1967.30300343 C-313.87614939 1962.15053236 -313.87852942 1956.99809656 -313.87547119 1951.84562086 C-313.87093288 1944.13231825 -313.87794791 1936.41905532 -313.88720289 1928.70575846 C-313.90264294 1915.55964095 -313.90865041 1902.41353424 -313.90953636 1889.26740837 C-313.91047276 1875.94542976 -313.91576003 1862.62346342 -313.92636681 1849.30148888 C-313.92703413 1848.46009354 -313.92770146 1847.6186982 -313.928389 1846.75180603 C-313.93181177 1842.46153614 -313.93530542 1838.17126631 -313.9388241 1833.8809965 C-313.96414855 1802.82655938 -313.97983073 1771.77212339 -313.99040604 1740.71767807 C-314.00090766 1709.96258044 -314.01553189 1679.20748927 -314.03568649 1648.45239639 C-314.03631048 1647.49735981 -314.03693446 1646.54232322 -314.03757735 1645.55834614 C-314.04327864 1636.83559365 -314.04903077 1628.1128412 -314.05484388 1619.39008879 C-314.06929418 1597.7060339 -314.08310696 1576.02197863 -314.09648705 1554.33792305 C-314.09709687 1553.35046493 -314.09770669 1552.3630068 -314.09833498 1551.3456257 C-314.12794556 1503.308219 -314.150211 1455.27080927 -314.171875 1407.23339844 C-314.17939724 1390.56276446 -314.18695195 1373.89213049 -314.19464111 1357.22149658 C-314.19511796 1356.18758613 -314.19559481 1355.15367567 -314.19608611 1354.08843459 C-314.21829698 1306.02698376 -314.24572478 1257.96553632 -314.27449883 1209.90408902 C-314.27636671 1206.78400802 -314.27823233 1203.66392703 -314.2800975 1200.54384603 C-314.29246164 1179.86695369 -314.3049157 1159.1900614 -314.31742998 1138.51316914 C-314.34232963 1097.37107859 -314.36670087 1056.22898773 -314.39070912 1015.08689665 C-314.39185246 1013.12759091 -314.39299618 1011.16828517 -314.39414027 1009.20897942 C-314.44564315 921.00244059 -314.49099897 832.79589897 -314.53369141 744.58935547 C-314.53409121 743.76340147 -314.53449102 742.93744747 -314.53490294 742.08646455 C-314.55489382 700.7776953 -314.57453393 659.46892588 -314.59375 618.16015625 C-315.13231093 618.50100628 -315.67087187 618.84185631 -316.22575283 619.19303513 C-318.70087085 620.75909658 -321.17648168 622.32437737 -323.65209961 623.88964844 C-324.49910179 624.42572723 -325.34610397 624.96180603 -326.21877289 625.51412964 C-333.14963082 629.89512361 -340.13384792 634.17725216 -347.15625 638.41015625 C-349.57237548 639.87114028 -351.98745987 641.33383979 -354.40234375 642.796875 C-355.30466736 643.34334938 -355.30466736 643.34334938 -356.22521973 643.90086365 C-362.40660546 647.6473618 -368.56495177 651.43103516 -374.71875 655.22265625 C-375.78077637 655.8770166 -376.84280273 656.53137695 -377.93701172 657.20556641 C-381.15624751 659.18990628 -384.37500868 661.17501444 -387.59375 663.16015625 C-391.98893073 665.86954998 -396.38476949 668.57787216 -400.78125 671.28515625 C-402.39640503 672.27974854 -402.39640503 672.27974854 -404.04418945 673.29443359 C-412.09317401 678.24662504 -420.16353671 683.16291905 -428.24047852 688.06933594 C-434.75162261 692.02854717 -441.24043294 696.02249342 -447.71875 700.03515625 C-448.59611816 700.5755957 -449.47348633 701.11603516 -450.37744141 701.67285156 C-454.0070054 703.91229601 -457.62255088 706.15642641 -461.16015625 708.5390625 C-479.21553976 720.44793247 -501.88103727 724.48673236 -523.11083984 720.13500977 C-544.5416484 714.83588408 -563.06018685 701.28670545 -574.84375 682.72265625 C-583.85044685 667.40769752 -588.74431893 651.65098146 -588.74092102 633.84100342 C-588.74459771 632.80318765 -588.7482744 631.76537188 -588.7520625 630.69610715 C-588.76307418 627.21894921 -588.76693898 623.74182118 -588.77075195 620.26464844 C-588.7770187 617.77083237 -588.78366568 615.27701724 -588.79066467 612.78320312 C-588.80987335 605.29871362 -588.82049195 597.81423205 -588.82939246 590.32972515 C-588.83378342 586.7975467 -588.83914827 583.26536973 -588.84438133 579.73319244 C-588.86139251 567.97720527 -588.87588275 556.22121899 -588.88313007 544.46522141 C-588.88503971 541.41724395 -588.88696008 538.36926649 -588.88891602 535.32128906 C-588.88939976 534.56380628 -588.8898835 533.80632349 -588.8903819 533.02588668 C-588.89866751 520.77784718 -588.92397999 508.52990581 -588.95649669 496.28190908 C-588.98967238 483.68199201 -589.00758844 471.08212461 -589.01077431 458.48216367 C-589.01293013 451.41806784 -589.02154113 444.35411495 -589.04723549 437.29006195 C-589.07138738 430.63499269 -589.07470272 423.98022342 -589.06447411 417.32510376 C-589.0639814 414.89446407 -589.07022272 412.46381128 -589.08403015 410.03321075 C-589.23687594 381.50982937 -583.76881362 358.32421674 -564.0625 336.609375 C-557.34939509 329.94938009 -550.39854544 324.97115678 -542.21875 320.22265625 C-539.98354492 318.90374951 -537.74919656 317.58338998 -535.515625 316.26171875 C-534.65908829 315.75659004 -534.65908829 315.75659004 -533.7852478 315.24125671 C-527.63057235 311.60663524 -521.54825458 307.85640142 -515.46875 304.09765625 C-507.359591 299.0920398 -499.23895317 294.10691847 -491.09375 289.16015625 C-482.90950361 284.18846419 -474.74591427 279.18427638 -466.59375 274.16015625 C-457.50639485 268.55968472 -448.40036859 262.99136144 -439.27734375 257.44921875 C-432.03359493 253.04517889 -424.81071949 248.60792257 -417.59375 244.16015625 C-408.50639485 238.55968472 -399.40036859 232.99136144 -390.27734375 227.44921875 C-383.03359493 223.04517889 -375.81071949 218.60792257 -368.59375 214.16015625 C-359.50639485 208.55968472 -350.40036859 202.99136144 -341.27734375 197.44921875 C-334.03359493 193.04517889 -326.81071949 188.60792257 -319.59375 184.16015625 C-310.50639485 178.55968472 -301.40036859 172.99136144 -292.27734375 167.44921875 C-285.03359493 163.04517889 -277.81071949 158.60792257 -270.59375 154.16015625 C-261.50639485 148.55968472 -252.40036859 142.99136144 -243.27734375 137.44921875 C-234.93028242 132.37438916 -226.61213386 127.25322249 -218.29614258 122.12768555 C-211.13879805 117.71894051 -203.96616849 113.3363004 -196.78125 108.97265625 C-189.63453138 104.63203361 -182.50886509 100.2600628 -175.40625 95.84765625 C-166.56555417 90.35620937 -157.67484278 84.94945778 -148.77334595 79.5574646 C-141.18977113 74.9628462 -133.62418844 70.34155911 -126.09375 65.66015625 C-117.35773401 60.22928917 -108.57008488 54.88597153 -99.77197266 49.55664062 C-92.18884572 44.96228984 -84.62436688 40.34027164 -77.09375 35.66015625 C-73.59521704 33.49111409 -70.09487151 31.32501738 -66.59375 29.16015625 C-65.48435059 28.47356934 -64.37495117 27.78698242 -63.23193359 27.07958984 C-25.50950947 3.76592146 -25.50950947 3.76592146 -10.59375 1.16015625 C-9.55734375 0.96679688 -9.55734375 0.96679688 -8.5 0.76953125 C-5.672852 0.32923771 -2.85428863 0.17624373 0 0 Z " fill="#C4180C" transform="translate(3175.59375,664.83984375)"/>
</svg>
