<?xml version="1.0" encoding="UTF-8"?>
<svg version="1.1" xmlns="http://www.w3.org/2000/svg" width="1200" height="411">
<path d="M0 0 C34.07921811 0 34.07921811 0 41.3984375 7.0859375 C44.96884211 11.35300642 45.17971257 15.66324968 44.9375 21 C44.30623352 25.87189189 42.71774123 29.69534113 39 33 C37.34393053 33.69257211 35.67780218 34.36187613 34 35 C34.63615234 35.93851807 34.63615234 35.93851807 35.28515625 36.89599609 C37.19488001 39.71913444 39.09751375 42.5469799 41 45.375 C42.00160156 46.85226562 42.00160156 46.85226562 43.0234375 48.359375 C43.65507813 49.30039062 44.28671875 50.24140625 44.9375 51.2109375 C45.52402344 52.08024902 46.11054687 52.94956055 46.71484375 53.84521484 C48 56 48 56 48 58 C48.66 58 49.32 58 50 58 C50.24999756 56.74896484 50.49999512 55.49792969 50.75756836 54.20898438 C52.02353619 48.52816237 53.91812092 43.12920337 55.87890625 37.65625 C56.25103745 36.60594604 56.62316864 35.55564209 57.00657654 34.47351074 C57.78824761 32.27083485 58.57247236 30.06906368 59.35913086 27.86816406 C60.5679917 24.48462903 61.76799135 21.09804661 62.96679688 17.7109375 C63.72865087 15.56752493 64.49100274 13.42428924 65.25390625 11.28125 C65.79453453 9.75643005 65.79453453 9.75643005 66.34608459 8.20080566 C66.67990646 7.26893433 67.01372833 6.33706299 67.35766602 5.37695312 C67.65141617 4.55360474 67.94516632 3.73025635 68.24781799 2.88195801 C69 1 69 1 70 0 C71.34267413 -0.08631874 72.68974322 -0.10706473 74.03515625 -0.09765625 C74.84404297 -0.09443359 75.65292969 -0.09121094 76.48632812 -0.08789062 C77.33646484 -0.07951172 78.18660156 -0.07113281 79.0625 -0.0625 C79.91650391 -0.05798828 80.77050781 -0.05347656 81.65039062 -0.04882812 C83.76695663 -0.03700373 85.88348685 -0.01906769 88 0 C90.17143043 6.07815876 92.33984238 12.15738869 94.50634766 18.23730469 C95.24071077 20.29711147 95.97571597 22.35668947 96.71142578 24.41601562 C101.28934845 37.23170092 105.74479217 50.07329609 110 63 C104.39 63 98.78 63 93 63 C91.68 58.38 90.36 53.76 89 49 C82.07 48.67 75.14 48.34 68 48 C67.01 52.95 67.01 52.95 66 58 C64.875 61.125 64.875 61.125 64 63 C54.54663235 64.35264316 44.28819539 65.73463496 35 63 C28.08380358 57.64600113 23.97168319 49.09275783 21 41 C21 40.34 21 39.68 21 39 C19.02 39 17.04 39 15 39 C15 46.92 15 54.84 15 63 C10.05 63 5.1 63 0 63 C0 42.21 0 21.42 0 0 Z M15 12 C15 17.28 15 22.56 15 28 C16.5675 27.896875 18.135 27.79375 19.75 27.6875 C20.63171875 27.62949219 21.5134375 27.57148438 22.421875 27.51171875 C25.36684957 26.92718592 26.8149256 26.03182257 29 24 C30.09069516 21.0395417 30.08988791 19.38651802 29.375 16.3125 C28.16875024 13.87782744 28.16875024 13.87782744 25.875 12.6875 C22.19590454 11.68990238 22.19590454 11.68990238 15 12 Z M78 13 C77.18709249 16.08322604 76.37474556 19.16659951 75.5625 22.25 C75.21735352 23.55904297 75.21735352 23.55904297 74.86523438 24.89453125 C74.64287109 25.73886719 74.42050781 26.58320313 74.19140625 27.453125 C73.88505249 28.61569824 73.88505249 28.61569824 73.57250977 29.80175781 C73.03529356 31.86448475 72.5169733 33.9321068 72 36 C76.29 36 80.58 36 85 36 C84.38334864 30.60607261 83.12077204 25.71604717 81.4375 20.5625 C81.08655273 19.46518555 81.08655273 19.46518555 80.72851562 18.34570312 C80.15732778 16.56219821 79.57936877 14.78086417 79 13 C78.67 13 78.34 13 78 13 Z " fill="#000000" transform="translate(985,212)"/>
<path d="M0 0 C1.87859962 -0.00006042 1.87859962 -0.00006042 3.79515076 -0.00012207 C6.44299627 0.00524059 9.08863598 0.02019012 11.73608398 0.05175781 C15.12813507 0.09147738 18.5190773 0.09579779 21.91131687 0.08829498 C25.14930493 0.08448718 28.3870821 0.10530116 31.625 0.125 C32.84377335 0.12520142 34.06254669 0.12540283 35.31825256 0.12561035 C36.44629807 0.14152222 37.57434357 0.15743408 38.73657227 0.17382812 C39.73044449 0.18224731 40.72431671 0.1906665 41.74830627 0.19934082 C44.24609375 0.59375 44.24609375 0.59375 46.06518555 1.7746582 C47.70298297 4.2975502 47.63389133 6.11995111 47.65014648 9.11914062 C47.66283066 10.25041382 47.67551483 11.38168701 47.68858337 12.54724121 C47.68564774 13.76915161 47.6827121 14.99106201 47.6796875 16.25 C47.68492935 17.5038147 47.6901712 18.75762939 47.6955719 20.04943848 C47.70200096 22.70271099 47.70207901 25.35512518 47.69213867 28.00830078 C47.68064149 31.40831209 47.7008691 34.80728596 47.73005581 38.20716095 C47.75281011 41.45061296 47.74595206 44.69398683 47.7421875 47.9375 C47.75342148 49.1594104 47.76465546 50.3813208 47.77622986 51.64025879 C47.76215843 53.33716858 47.76215843 53.33716858 47.74780273 55.06835938 C47.74763657 56.0652478 47.7474704 57.06213623 47.74729919 58.0892334 C47.24609375 60.59375 47.24609375 60.59375 45.55470276 62.41482544 C42.77635176 63.83363054 40.92155537 63.97415779 37.80664062 63.98193359 C36.71871216 63.99139008 35.63078369 64.00084656 34.5098877 64.0105896 C33.34002319 64.00451691 32.17015869 63.99844421 30.96484375 63.9921875 C29.75920776 63.99505768 28.55357178 63.99792786 27.31140137 64.00088501 C24.76277191 64.00292619 22.21412682 63.99739264 19.66552734 63.98486328 C15.7610374 63.96881144 11.85758269 63.98471126 7.953125 64.00390625 C5.47786229 64.00192383 3.00260023 63.99808018 0.52734375 63.9921875 C-1.227453 64.00129654 -1.227453 64.00129654 -3.0177002 64.0105896 C-4.10562866 64.00113312 -5.19355713 63.99167664 -6.31445312 63.98193359 C-7.27057495 63.97954681 -8.22669678 63.97716003 -9.21179199 63.97470093 C-12.22140748 63.52369216 -13.57752013 62.69521729 -15.75390625 60.59375 C-16.73986245 57.6358814 -16.89720971 55.64689812 -16.9309082 52.55908203 C-16.94374344 51.53436798 -16.95657867 50.50965393 -16.96980286 49.45388794 C-16.97718979 48.34762054 -16.98457672 47.24135315 -16.9921875 46.1015625 C-17.00025925 44.96347137 -17.00833099 43.82538025 -17.01664734 42.65280151 C-17.03048309 40.24364748 -17.04120752 37.83447389 -17.04907227 35.42529297 C-17.06630601 31.74018342 -17.1102006 28.05596609 -17.15429688 24.37109375 C-17.16442201 22.0312566 -17.17293867 19.69141182 -17.1796875 17.3515625 C-17.19719559 16.24934357 -17.21470367 15.14712463 -17.23274231 14.01150513 C-17.22068505 9.76232755 -17.05627737 6.3801791 -15.52441406 2.39599609 C-10.75237891 -0.70826576 -5.55528957 -0.07485556 0 0 Z " fill="#34952F" transform="translate(77.75390625,137.40625)"/>
<path d="M0 0 C1.22783203 -0.00241196 2.45566406 -0.00482391 3.72070312 -0.00730896 C6.31643911 -0.00632954 8.91219573 0.00708635 11.5078125 0.03198242 C15.48509553 0.06627773 19.46015643 0.05264682 23.4375 0.03320312 C25.95834281 0.04010156 28.47917987 0.04977391 31 0.0625 C32.78760742 0.0550602 32.78760742 0.0550602 34.61132812 0.04747009 C36.27325195 0.07122459 36.27325195 0.07122459 37.96875 0.09545898 C39.42958008 0.10475685 39.42958008 0.10475685 40.91992188 0.11424255 C44.30463727 0.78941208 45.47475951 1.85922462 47.5 4.62890625 C48.00793457 7.17102051 48.00793457 7.17102051 48.01757812 10.06835938 C48.03018677 11.15628784 48.04279541 12.24421631 48.05578613 13.3651123 C48.04768921 14.53497681 48.03959229 15.70484131 48.03125 16.91015625 C48.03699036 18.71861023 48.03699036 18.71861023 48.04284668 20.56359863 C48.04556826 23.1122318 48.03819005 25.66089279 48.02148438 28.20947266 C48.0000804 32.11423927 48.02128003 36.01716573 48.046875 39.921875 C48.04423177 42.39713948 48.0391069 44.87240282 48.03125 47.34765625 C48.03934692 48.51752075 48.04744385 49.68738525 48.05578613 50.8927002 C48.04317749 51.98062866 48.03056885 53.06855713 48.01757812 54.18945312 C48.01439575 55.14557495 48.01121338 56.10169678 48.00793457 57.08679199 C47.33579588 60.45071609 46.25162891 61.6147149 43.5 63.62890625 C40.91992188 64.14356995 40.91992188 64.14356995 37.96875 64.16235352 C36.86080078 64.17818985 35.75285156 64.19402618 34.61132812 64.21034241 C33.41958984 64.20538254 32.22785156 64.20042267 31 64.1953125 C29.77216797 64.20151108 28.54433594 64.20770966 27.27929688 64.21409607 C24.68360182 64.22119934 22.08786126 64.21801151 19.4921875 64.20532227 C15.51477479 64.19145775 11.53971391 64.22552409 7.5625 64.26367188 C5.04166609 64.26462303 2.52082923 64.26276442 0 64.2578125 C-1.19173828 64.27107071 -2.38347656 64.28432892 -3.61132812 64.29798889 C-11.61434961 64.20745878 -11.61434961 64.20745878 -15.24804688 61.83374023 C-17.20145529 56.83327371 -17.06980891 52.04589602 -17.03125 46.72265625 C-17.0350769 45.56519897 -17.03890381 44.4077417 -17.04284668 43.21520996 C-17.04556559 40.77090585 -17.03820598 38.32657264 -17.02148438 35.88232422 C-17.00007634 32.14224338 -17.02128875 28.40408364 -17.046875 24.6640625 C-17.04423172 22.28775618 -17.03910675 19.91145105 -17.03125 17.53515625 C-17.03934692 16.41733765 -17.04744385 15.29951904 -17.05578613 14.14782715 C-17.0040825 9.8643549 -16.81365938 6.43183268 -15.24804688 2.42407227 C-10.54892752 -0.64563497 -5.47963033 -0.06096144 0 0 Z " fill="#34952F" transform="translate(152.5,285.37109375)"/>
<path d="M0 0 C1.08807953 -0.00960754 2.17615906 -0.01921509 3.29721069 -0.02911377 C4.47739777 -0.03336365 5.65758484 -0.03761353 6.87353516 -0.04199219 C8.08200104 -0.04769226 9.29046692 -0.05339233 10.53555298 -0.05926514 C13.09612143 -0.06872493 15.65670212 -0.07525299 18.21728516 -0.07910156 C22.13937559 -0.08880971 26.06094275 -0.11982586 29.98291016 -0.15136719 C32.46728204 -0.15789673 34.95165767 -0.16314739 37.43603516 -0.16699219 C39.20024307 -0.18551239 39.20024307 -0.18551239 41.00009155 -0.20440674 C42.0944754 -0.20140564 43.18885925 -0.19840454 44.31640625 -0.1953125 C45.27856049 -0.19895813 46.24071472 -0.20260376 47.23202515 -0.20635986 C50.32521204 0.23844204 51.66190502 0.86727322 53.78759766 3.16113281 C54.2888031 5.66564941 54.2888031 5.66564941 54.28930664 8.68652344 C54.29868759 9.81779663 54.30806854 10.94906982 54.31773376 12.11462402 C54.30649979 13.33653442 54.29526581 14.55844482 54.28369141 15.81738281 C54.28514664 17.07119751 54.28660187 18.32501221 54.2881012 19.61682129 C54.28643961 22.27033029 54.27692778 24.92241135 54.25415039 27.57568359 C54.2257645 30.97558083 54.22850226 34.37458007 54.2412405 37.77454376 C54.24986999 41.01804803 54.23475148 44.26140669 54.22119141 47.50488281 C54.22412704 48.72679321 54.22706268 49.94870361 54.23008728 51.2076416 C54.21740311 52.33891479 54.20471893 53.47018799 54.19165039 54.63574219 C54.18624741 55.63263062 54.18084442 56.62951904 54.17527771 57.65661621 C53.78759766 60.16113281 53.78759766 60.16113281 52.60768127 61.98220825 C50.08188445 63.61824512 48.26275595 63.5421324 45.26220703 63.54931641 C43.56529724 63.56350113 43.56529724 63.56350113 41.83410645 63.57797241 C40.61219604 63.57189972 39.39028564 63.56582703 38.13134766 63.55957031 C36.87753296 63.56244049 35.62371826 63.56531067 34.33190918 63.56826782 C31.67864015 63.57031108 29.02619794 63.56626749 26.37304688 63.55224609 C22.97318132 63.53515367 19.5740262 63.54499598 16.17418671 63.56296349 C12.93071488 63.5764137 9.68732875 63.56699515 6.44384766 63.55957031 C4.61098206 63.56867935 4.61098206 63.56867935 2.74108887 63.57797241 C1.60981567 63.56851593 0.47854248 63.55905945 -0.68701172 63.54931641 C-1.68390015 63.54692963 -2.68078857 63.54454285 -3.70788574 63.54208374 C-6.21240234 63.16113281 -6.21240234 63.16113281 -7.99523926 61.82437134 C-10.2553779 58.73591942 -10.34503349 55.90939557 -10.37353516 52.21826172 C-10.3831427 51.21356842 -10.39275024 50.20887512 -10.40264893 49.17373657 C-10.4068988 48.08934296 -10.41114868 47.00494934 -10.41552734 45.88769531 C-10.42122742 44.77180023 -10.42692749 43.65590515 -10.43280029 42.50619507 C-10.44225068 40.14411365 -10.44878443 37.78201905 -10.45263672 35.41992188 C-10.46234523 31.8073833 -10.49337017 28.1954129 -10.52490234 24.58300781 C-10.53143216 22.28874036 -10.53668271 19.99446884 -10.54052734 17.70019531 C-10.55287415 16.61985016 -10.56522095 15.539505 -10.57794189 14.42642212 C-10.54993409 4.99127043 -10.54993409 4.99127043 -7.21240234 1.16113281 C-4.6649532 -0.11259176 -2.85202199 0.02027312 0 0 Z " fill="#34952F" transform="translate(71.21240234375,285.8388671875)"/>
<path d="M0 0 C1.22783203 -0.00241196 2.45566406 -0.00482391 3.72070312 -0.00730896 C6.31643911 -0.00632954 8.91219573 0.00708635 11.5078125 0.03198242 C15.48509553 0.06627773 19.46015643 0.05264682 23.4375 0.03320312 C25.95834281 0.04010156 28.47917987 0.04977391 31 0.0625 C32.78760742 0.0550602 32.78760742 0.0550602 34.61132812 0.04747009 C36.27325195 0.07122459 36.27325195 0.07122459 37.96875 0.09545898 C39.42958008 0.10475685 39.42958008 0.10475685 40.91992188 0.11424255 C44.30463727 0.78941208 45.47475951 1.85922462 47.5 4.62890625 C48.00793457 7.17102051 48.00793457 7.17102051 48.01757812 10.06835938 C48.03018677 11.15628784 48.04279541 12.24421631 48.05578613 13.3651123 C48.04768921 14.53497681 48.03959229 15.70484131 48.03125 16.91015625 C48.03699036 18.71861023 48.03699036 18.71861023 48.04284668 20.56359863 C48.04556826 23.1122318 48.03819005 25.66089279 48.02148438 28.20947266 C48.0000804 32.11423927 48.02128003 36.01716573 48.046875 39.921875 C48.04423177 42.39713948 48.0391069 44.87240282 48.03125 47.34765625 C48.03934692 48.51752075 48.04744385 49.68738525 48.05578613 50.8927002 C48.04317749 51.98062866 48.03056885 53.06855713 48.01757812 54.18945312 C48.01439575 55.14557495 48.01121338 56.10169678 48.00793457 57.08679199 C47.33579588 60.45071609 46.25162891 61.6147149 43.5 63.62890625 C40.91992188 64.14356995 40.91992188 64.14356995 37.96875 64.16235352 C36.86080078 64.17818985 35.75285156 64.19402618 34.61132812 64.21034241 C33.41958984 64.20538254 32.22785156 64.20042267 31 64.1953125 C29.77216797 64.20151108 28.54433594 64.20770966 27.27929688 64.21409607 C24.68360182 64.22119934 22.08786126 64.21801151 19.4921875 64.20532227 C15.51477479 64.19145775 11.53971391 64.22552409 7.5625 64.26367188 C5.04166609 64.26462303 2.52082923 64.26276442 0 64.2578125 C-1.19173828 64.27107071 -2.38347656 64.28432892 -3.61132812 64.29798889 C-11.61434961 64.20745878 -11.61434961 64.20745878 -15.24804688 61.83374023 C-17.20145529 56.83327371 -17.06980891 52.04589602 -17.03125 46.72265625 C-17.0350769 45.56519897 -17.03890381 44.4077417 -17.04284668 43.21520996 C-17.04556559 40.77090585 -17.03820598 38.32657264 -17.02148438 35.88232422 C-17.00007634 32.14224338 -17.02128875 28.40408364 -17.046875 24.6640625 C-17.04423172 22.28775618 -17.03910675 19.91145105 -17.03125 17.53515625 C-17.03934692 16.41733765 -17.04744385 15.29951904 -17.05578613 14.14782715 C-17.0040825 9.8643549 -16.81365938 6.43183268 -15.24804688 2.42407227 C-10.54892752 -0.64563497 -5.47963033 -0.06096144 0 0 Z " fill="#34952F" transform="translate(152.5,211.37109375)"/>
<path d="M0 0 C1.69713638 -0.01441132 1.69713638 -0.01441132 3.42855835 -0.02911377 C4.66079132 -0.03336365 5.89302429 -0.03761353 7.16259766 -0.04199219 C8.41924225 -0.04769226 9.67588684 -0.05339233 10.97061157 -0.05926514 C13.63555529 -0.06873296 16.30038589 -0.07562052 18.96533203 -0.07910156 C22.38087833 -0.08458447 25.79602559 -0.10860385 29.21144676 -0.13707352 C32.46596702 -0.16017536 35.72050686 -0.16214823 38.97509766 -0.16699219 C40.20328217 -0.17933899 41.43146667 -0.19168579 42.6968689 -0.20440674 C43.83459747 -0.20140564 44.97232605 -0.19840454 46.14453125 -0.1953125 C47.14745209 -0.19895813 48.15037292 -0.20260376 49.1836853 -0.20635986 C51.70166016 0.16113281 51.70166016 0.16113281 53.52372742 1.33807373 C55.15573092 3.86388756 55.08945974 5.68770342 55.10571289 8.68652344 C55.11839706 9.81779663 55.13108124 10.94906982 55.14414978 12.11462402 C55.14121414 13.33653442 55.1382785 14.55844482 55.13525391 15.81738281 C55.14049576 17.07119751 55.14573761 18.32501221 55.15113831 19.61682129 C55.15756737 22.2700938 55.15764542 24.922508 55.14770508 27.57568359 C55.1362079 30.9756949 55.15643551 34.37466877 55.18562222 37.77454376 C55.20837652 41.01799577 55.20151847 44.26136964 55.19775391 47.50488281 C55.20898788 48.72679321 55.22022186 49.94870361 55.23179626 51.2076416 C55.21772484 52.90455139 55.21772484 52.90455139 55.20336914 54.63574219 C55.20320297 55.63263062 55.2030368 56.62951904 55.2028656 57.65661621 C54.70166016 60.16113281 54.70166016 60.16113281 53.01026917 61.98220825 C50.23191817 63.40101335 48.37712178 63.5415406 45.26220703 63.54931641 C44.17427856 63.55877289 43.0863501 63.56822937 41.9654541 63.57797241 C40.7955896 63.57189972 39.6257251 63.56582703 38.42041016 63.55957031 C37.21477417 63.56244049 36.00913818 63.56531067 34.76696777 63.56826782 C32.21833832 63.570309 29.66969322 63.56477545 27.12109375 63.55224609 C23.2166038 63.53619425 19.3131491 63.55209407 15.40869141 63.57128906 C12.9334287 63.56930664 10.45816664 63.56546299 7.98291016 63.55957031 C6.2281134 63.56867935 6.2281134 63.56867935 4.43786621 63.57797241 C3.34993774 63.56851593 2.26200928 63.55905945 1.14111328 63.54931641 C0.18499146 63.54692963 -0.77113037 63.54454285 -1.75622559 63.54208374 C-4.76584107 63.09107498 -6.12195373 62.2626001 -8.29833984 60.16113281 C-9.27787732 57.22252039 -9.43581348 55.28226408 -9.45947266 52.21826172 C-9.4690802 51.21356842 -9.47868774 50.20887512 -9.48858643 49.17373657 C-9.4928363 48.08934296 -9.49708618 47.00494934 -9.50146484 45.88769531 C-9.50716492 44.77180023 -9.51286499 43.65590515 -9.51873779 42.50619507 C-9.52818818 40.14411365 -9.53472193 37.78201905 -9.53857422 35.41992188 C-9.54828273 31.8073833 -9.57930767 28.1954129 -9.61083984 24.58300781 C-9.61736966 22.28874036 -9.62262021 19.99446884 -9.62646484 17.70019531 C-9.63881165 16.61985016 -9.65115845 15.539505 -9.66387939 14.42642212 C-9.63989458 6.34651923 -9.0897138 0.06198218 0 0 Z " fill="#34952F" transform="translate(70.29833984375,211.8388671875)"/>
<path d="M0 0 C1.22783203 -0.00241196 2.45566406 -0.00482391 3.72070312 -0.00730896 C6.31643911 -0.00632954 8.91219573 0.00708635 11.5078125 0.03198242 C15.48509553 0.06627773 19.46015643 0.05264682 23.4375 0.03320312 C25.95834281 0.04010156 28.47917987 0.04977391 31 0.0625 C32.78760742 0.0550602 32.78760742 0.0550602 34.61132812 0.04747009 C36.27325195 0.07122459 36.27325195 0.07122459 37.96875 0.09545898 C39.42958008 0.10475685 39.42958008 0.10475685 40.91992188 0.11424255 C44.30463727 0.78941208 45.47475951 1.85922462 47.5 4.62890625 C48.00793457 7.17102051 48.00793457 7.17102051 48.01757812 10.06835938 C48.03018677 11.15628784 48.04279541 12.24421631 48.05578613 13.3651123 C48.04768921 14.53497681 48.03959229 15.70484131 48.03125 16.91015625 C48.03699036 18.71861023 48.03699036 18.71861023 48.04284668 20.56359863 C48.04556826 23.1122318 48.03819005 25.66089279 48.02148438 28.20947266 C48.0000804 32.11423927 48.02128003 36.01716573 48.046875 39.921875 C48.04423177 42.39713948 48.0391069 44.87240282 48.03125 47.34765625 C48.03934692 48.51752075 48.04744385 49.68738525 48.05578613 50.8927002 C48.04317749 51.98062866 48.03056885 53.06855713 48.01757812 54.18945312 C48.01439575 55.14557495 48.01121338 56.10169678 48.00793457 57.08679199 C47.33579588 60.45071609 46.25162891 61.6147149 43.5 63.62890625 C40.91992188 64.14356995 40.91992188 64.14356995 37.96875 64.16235352 C36.86080078 64.17818985 35.75285156 64.19402618 34.61132812 64.21034241 C33.41958984 64.20538254 32.22785156 64.20042267 31 64.1953125 C29.77216797 64.20151108 28.54433594 64.20770966 27.27929688 64.21409607 C24.68360182 64.22119934 22.08786126 64.21801151 19.4921875 64.20532227 C15.51477479 64.19145775 11.53971391 64.22552409 7.5625 64.26367188 C5.04166609 64.26462303 2.52082923 64.26276442 0 64.2578125 C-1.19173828 64.27107071 -2.38347656 64.28432892 -3.61132812 64.29798889 C-11.61434961 64.20745878 -11.61434961 64.20745878 -15.24804688 61.83374023 C-17.20145529 56.83327371 -17.06980891 52.04589602 -17.03125 46.72265625 C-17.0350769 45.56519897 -17.03890381 44.4077417 -17.04284668 43.21520996 C-17.04556559 40.77090585 -17.03820598 38.32657264 -17.02148438 35.88232422 C-17.00007634 32.14224338 -17.02128875 28.40408364 -17.046875 24.6640625 C-17.04423172 22.28775618 -17.03910675 19.91145105 -17.03125 17.53515625 C-17.03934692 16.41733765 -17.04744385 15.29951904 -17.05578613 14.14782715 C-17.0040825 9.8643549 -16.81365938 6.43183268 -15.24804688 2.42407227 C-10.54892752 -0.64563497 -5.47963033 -0.06096144 0 0 Z " fill="#34952F" transform="translate(152.5,63.37109375)"/>
<path d="M0 0 C1.87859962 -0.00361794 1.87859962 -0.00361794 3.79515076 -0.00730896 C6.4430022 -0.00632924 9.0885967 0.00450018 11.73608398 0.03198242 C15.12830784 0.06610225 18.51902017 0.06003403 21.91131687 0.04131985 C25.14929949 0.02820975 28.38705012 0.04646197 31.625 0.0625 C32.84377335 0.05754013 34.06254669 0.05258026 35.31825256 0.04747009 C37.01032082 0.07122459 37.01032082 0.07122459 38.73657227 0.09545898 C40.2273806 0.10475685 40.2273806 0.10475685 41.74830627 0.11424255 C44.24609375 0.62890625 44.24609375 0.62890625 46.06518555 2.32228088 C47.48548639 5.09650325 47.63256088 6.95637945 47.65014648 10.06835938 C47.66283066 11.15628784 47.67551483 12.24421631 47.68858337 13.3651123 C47.68564774 14.53497681 47.6827121 15.70484131 47.6796875 16.91015625 C47.68492935 18.11579224 47.6901712 19.32142822 47.6955719 20.56359863 C47.70199437 23.11221547 47.70065225 25.66086194 47.69213867 28.20947266 C47.68362594 32.11414192 47.71239452 36.01735019 47.74414062 39.921875 C47.74575259 42.39713498 47.74517519 44.87239755 47.7421875 47.34765625 C47.75342148 48.51752075 47.76465546 49.68738525 47.77622986 50.8927002 C47.76215843 52.5245929 47.76215843 52.5245929 47.74780273 54.18945312 C47.74763657 55.14557495 47.7474704 56.10169678 47.74729919 57.08679199 C47.08399264 60.45108316 45.99321643 61.61301388 43.24609375 63.62890625 C40.71070862 64.14356995 40.71070862 64.14356995 37.82250977 64.16235352 C36.1954586 64.18610802 36.1954586 64.18610802 34.53553772 64.21034241 C33.36881027 64.20538254 32.20208282 64.20042267 31 64.1953125 C29.19510353 64.20461037 29.19510353 64.20461037 27.35374451 64.21409607 C24.80932423 64.22119944 22.26485753 64.21801133 19.72045898 64.20532227 C15.82644068 64.19146974 11.93483044 64.22550929 8.04101562 64.26367188 C5.56900983 64.26462317 3.09700102 64.26276372 0.625 64.2578125 C-0.53970322 64.27107071 -1.70440643 64.28432892 -2.90440369 64.29798889 C-7.60996246 64.24377633 -10.83343614 64.13979217 -14.98828125 61.83374023 C-17.71033806 56.89286084 -17.44869147 52.27700637 -17.3828125 46.72265625 C-17.38522446 45.56519897 -17.38763641 44.4077417 -17.39012146 43.21520996 C-17.38914305 40.77087982 -17.37575124 38.32652751 -17.35083008 35.88232422 C-17.3165276 32.14213744 -17.33017247 28.40431387 -17.34960938 24.6640625 C-17.3427108 22.28775036 -17.33303833 19.91144432 -17.3203125 17.53515625 C-17.32527237 16.41733765 -17.33023224 15.29951904 -17.33534241 14.14782715 C-17.27056852 9.87526359 -17.0620884 6.426522 -15.515625 2.42407227 C-10.74992494 -0.67371704 -5.54791344 -0.06045239 0 0 Z " fill="#34952F" transform="translate(152.75390625,137.37109375)"/>
<path d="M0 0 C1.13127319 -0.00945648 2.26254639 -0.01891296 3.42810059 -0.02865601 C5.26096619 -0.01954697 5.26096619 -0.01954697 7.13085938 -0.01025391 C8.38467407 -0.01312408 9.63848877 -0.01599426 10.93029785 -0.01895142 C13.58356688 -0.02099468 16.23600909 -0.01695109 18.88916016 -0.00292969 C22.28902571 0.01416273 25.68818083 0.00432043 29.08802032 -0.01364708 C32.33149215 -0.0270973 35.57487828 -0.01767874 38.81835938 -0.01025391 C40.04026978 -0.0163266 41.26218018 -0.02239929 42.52111816 -0.02865601 C44.21802795 -0.01447128 44.21802795 -0.01447128 45.94921875 0 C46.94610718 0.00238678 47.94299561 0.00477356 48.97009277 0.00723267 C51.47460938 0.38818359 51.47460938 0.38818359 53.29469299 1.56710815 C54.93026153 4.09143423 54.86240622 5.91424927 54.87866211 8.91357422 C54.89134628 10.04484741 54.90403046 11.17612061 54.917099 12.3416748 C54.91416336 13.56358521 54.91122772 14.78549561 54.90820312 16.04443359 C54.91344498 17.29824829 54.91868683 18.55206299 54.92408752 19.84387207 C54.93051659 22.49714458 54.93059463 25.14955878 54.9206543 27.80273438 C54.90915712 31.20274568 54.92938473 34.60171955 54.95857143 38.00159454 C54.98132574 41.24504655 54.97446768 44.48842042 54.97070312 47.73193359 C54.9819371 48.95384399 54.99317108 50.17575439 55.00474548 51.43469238 C54.99067406 53.13160217 54.99067406 53.13160217 54.97631836 54.86279297 C54.97615219 55.8596814 54.97598602 56.85656982 54.97581482 57.88366699 C54.47460938 60.38818359 54.47460938 60.38818359 52.78321838 62.20925903 C50.00486739 63.62806413 48.15007099 63.76859138 45.03515625 63.77636719 C43.94722778 63.78582367 42.85929932 63.79528015 41.73840332 63.80502319 C40.56853882 63.7989505 39.39867432 63.79287781 38.19335938 63.78662109 C36.98772339 63.78949127 35.7820874 63.79236145 34.53991699 63.7953186 C31.99128754 63.79735978 29.44264244 63.79182623 26.89404297 63.77929688 C22.98955302 63.76324503 19.08609831 63.77914485 15.18164062 63.79833984 C12.70637792 63.79635742 10.23111586 63.79251377 7.75585938 63.78662109 C6.00106262 63.79573013 6.00106262 63.79573013 4.21081543 63.80502319 C3.12288696 63.79556671 2.0349585 63.78611023 0.9140625 63.77636719 C-0.04205933 63.77398041 -0.99818115 63.77159363 -1.98327637 63.76913452 C-5.06107785 63.30790768 -6.40559611 62.67050965 -8.52539062 60.38818359 C-9.02659607 57.88366699 -9.02659607 57.88366699 -9.02709961 54.86279297 C-9.03648056 53.73151978 -9.04586151 52.60024658 -9.05552673 51.43469238 C-9.04429276 50.21278198 -9.03305878 48.99087158 -9.02148438 47.73193359 C-9.02366722 45.85121155 -9.02366722 45.85121155 -9.02589417 43.93249512 C-9.02423257 41.27898612 -9.01472075 38.62690505 -8.99194336 35.97363281 C-8.96355747 32.57373558 -8.96629523 29.17473634 -8.97903347 25.77477264 C-8.98766296 22.53126837 -8.97254445 19.28790972 -8.95898438 16.04443359 C-8.96192001 14.82252319 -8.96485565 13.60061279 -8.96788025 12.3416748 C-8.95519608 11.21040161 -8.9425119 10.07912842 -8.92944336 8.91357422 C-8.92133888 7.41824158 -8.92133888 7.41824158 -8.91307068 5.8927002 C-8.52539062 3.38818359 -8.52539062 3.38818359 -7.34547424 1.56710815 C-4.81967742 -0.06892872 -3.00054891 0.007184 0 0 Z " fill="#34952F" transform="translate(219.525390625,211.61181640625)"/>
<path d="M0 0 C1.13127319 -0.00945648 2.26254639 -0.01891296 3.42810059 -0.02865601 C5.26096619 -0.01954697 5.26096619 -0.01954697 7.13085938 -0.01025391 C8.38467407 -0.01312408 9.63848877 -0.01599426 10.93029785 -0.01895142 C13.58356688 -0.02099468 16.23600909 -0.01695109 18.88916016 -0.00292969 C22.28902571 0.01416273 25.68818083 0.00432043 29.08802032 -0.01364708 C32.33149215 -0.0270973 35.57487828 -0.01767874 38.81835938 -0.01025391 C40.04026978 -0.0163266 41.26218018 -0.02239929 42.52111816 -0.02865601 C44.21802795 -0.01447128 44.21802795 -0.01447128 45.94921875 0 C46.94610718 0.00238678 47.94299561 0.00477356 48.97009277 0.00723267 C51.47460938 0.38818359 51.47460938 0.38818359 53.29469299 1.56710815 C54.93026153 4.09143423 54.86240622 5.91424927 54.87866211 8.91357422 C54.89134628 10.04484741 54.90403046 11.17612061 54.917099 12.3416748 C54.91416336 13.56358521 54.91122772 14.78549561 54.90820312 16.04443359 C54.91344498 17.29824829 54.91868683 18.55206299 54.92408752 19.84387207 C54.93051659 22.49714458 54.93059463 25.14955878 54.9206543 27.80273438 C54.90915712 31.20274568 54.92938473 34.60171955 54.95857143 38.00159454 C54.98132574 41.24504655 54.97446768 44.48842042 54.97070312 47.73193359 C54.9819371 48.95384399 54.99317108 50.17575439 55.00474548 51.43469238 C54.99067406 53.13160217 54.99067406 53.13160217 54.97631836 54.86279297 C54.97615219 55.8596814 54.97598602 56.85656982 54.97581482 57.88366699 C54.47460938 60.38818359 54.47460938 60.38818359 52.78321838 62.20925903 C50.00486739 63.62806413 48.15007099 63.76859138 45.03515625 63.77636719 C43.94722778 63.78582367 42.85929932 63.79528015 41.73840332 63.80502319 C40.56853882 63.7989505 39.39867432 63.79287781 38.19335938 63.78662109 C36.98772339 63.78949127 35.7820874 63.79236145 34.53991699 63.7953186 C31.99128754 63.79735978 29.44264244 63.79182623 26.89404297 63.77929688 C22.98955302 63.76324503 19.08609831 63.77914485 15.18164062 63.79833984 C12.70637792 63.79635742 10.23111586 63.79251377 7.75585938 63.78662109 C6.00106262 63.79573013 6.00106262 63.79573013 4.21081543 63.80502319 C3.12288696 63.79556671 2.0349585 63.78611023 0.9140625 63.77636719 C-0.04205933 63.77398041 -0.99818115 63.77159363 -1.98327637 63.76913452 C-5.06107785 63.30790768 -6.40559611 62.67050965 -8.52539062 60.38818359 C-9.02659607 57.88366699 -9.02659607 57.88366699 -9.02709961 54.86279297 C-9.03648056 53.73151978 -9.04586151 52.60024658 -9.05552673 51.43469238 C-9.04429276 50.21278198 -9.03305878 48.99087158 -9.02148438 47.73193359 C-9.02366722 45.85121155 -9.02366722 45.85121155 -9.02589417 43.93249512 C-9.02423257 41.27898612 -9.01472075 38.62690505 -8.99194336 35.97363281 C-8.96355747 32.57373558 -8.96629523 29.17473634 -8.97903347 25.77477264 C-8.98766296 22.53126837 -8.97254445 19.28790972 -8.95898438 16.04443359 C-8.96192001 14.82252319 -8.96485565 13.60061279 -8.96788025 12.3416748 C-8.95519608 11.21040161 -8.9425119 10.07912842 -8.92944336 8.91357422 C-8.92133888 7.41824158 -8.92133888 7.41824158 -8.91307068 5.8927002 C-8.52539062 3.38818359 -8.52539062 3.38818359 -7.34547424 1.56710815 C-4.81967742 -0.06892872 -3.00054891 0.007184 0 0 Z " fill="#34952F" transform="translate(219.525390625,63.61181640625)"/>
<path d="M0 0 C8.08114467 5.85227438 14.11440741 12.98047859 16 23 C16.92175979 34.86199076 15.61209948 44.09048063 7.875 53.375 C0.49280205 61.05004548 -7.65899408 64.10833767 -18.125 64.3125 C-28.28426014 64.33460404 -36.65982472 61.11918076 -44 54 C-46.32733655 51.15547755 -48.22404202 48.21442862 -50 45 C-50.34160156 44.38511719 -50.68320312 43.77023438 -51.03515625 43.13671875 C-54.66832176 35.24514528 -54.0778938 25.38464507 -51.5625 17.25 C-47.6562518 7.92452015 -40.31930847 0.83107327 -31 -3 C-21.7611603 -6.16877798 -8.20630815 -5.23116894 0 0 Z " fill="#C60B0E" transform="translate(113,65)"/>
<path d="M0 0 C6.27 0 12.54 0 19 0 C31 21 31 21 43 42 C43 28.14 43 14.28 43 0 C47.62 0 52.24 0 57 0 C57 20.79 57 41.58 57 63 C50.73 63 44.46 63 38 63 C37.09378906 61.36933594 36.18757813 59.73867188 35.25390625 58.05859375 C34.02356431 55.8514918 32.79308829 53.6444646 31.5625 51.4375 C30.97017578 50.37080078 30.37785156 49.30410156 29.76757812 48.20507812 C25.0116789 39.6851517 20.02714779 31.37857965 15 23 C14.67 36.2 14.34 49.4 14 63 C9.38 63 4.76 63 0 63 C0 42.21 0 21.42 0 0 Z M13 19 C14 21 14 21 14 21 Z " fill="#000000" transform="translate(342,212)"/>
<path d="M0 0 C7.28850259 5.9927688 11.93578458 12.67792669 13.04003906 22.29394531 C13.86362137 33.53921069 12.81742413 43.61729402 5.625 52.75 C-0.48142048 59.06341778 -7.45366026 60.91194936 -16.06640625 61.33984375 C-27.54687153 61.23926395 -33.99080298 58.50919702 -42 50.5 C-46.69871033 43.65330781 -47.72306877 36.54216711 -47.625 28.375 C-47.61815186 27.49763184 -47.61130371 26.62026367 -47.60424805 25.71630859 C-47.40006445 17.48931559 -45.48428559 11.89278342 -41.0625 5 C-30.26758464 -5.09089914 -13.01494821 -6.8902667 0 0 Z M-28.4375 13.5625 C-32.91726694 20.60213376 -33.20074969 28.79497226 -31.72265625 36.84375 C-30.15500086 42.40939043 -28.12603623 45.27340078 -23.1875 48.3125 C-18.25433477 49.77417859 -14.63158916 49.35669544 -9.984375 47.40234375 C-6.13270889 45.06622452 -4.56153288 41.43459864 -3.1875 37.3125 C-2.93845022 34.37937281 -2.9563178 31.44263393 -2.9375 28.5 C-2.916875 27.70529297 -2.89625 26.91058594 -2.875 26.09179688 C-2.83396742 19.89074811 -4.00183741 15.69101517 -8.3125 11 C-15.58452301 6.73163867 -22.44469844 7.56969844 -28.4375 13.5625 Z " fill="#000000" transform="translate(739.1875,214.6875)"/>
<path d="M0 0 C35.61575179 0 35.61575179 0 44.7265625 8.63671875 C51.2468906 15.78338378 53.3530098 23.70274172 53.2109375 33.25 C52.477923 42.80633715 49.21303107 49.75960394 42.51171875 56.49609375 C31.19780357 65.95710967 12.89810614 63 0 63 C0 42.21 0 21.42 0 0 Z M15 12 C15 24.87 15 37.74 15 51 C23.54904587 51.05288866 23.54904587 51.05288866 31 48 C35.96562668 43.03437332 37.29886241 38.09317898 37.375 31.1875 C37.26500843 25.35183592 36.99438979 20.49086762 33 16 C27.27370365 11.38201907 22.54227294 12 15 12 Z " fill="#000000" transform="translate(876,212)"/>
<path d="M0 0 C4.95 0 9.9 0 15 0 C15.01981934 1.205354 15.03963867 2.41070801 15.06005859 3.65258789 C15.13642047 8.1461188 15.22508986 12.63933876 15.31738281 17.13256836 C15.35554659 19.07326089 15.39042095 21.01402111 15.421875 22.95483398 C15.46780026 25.75268668 15.52574828 28.55007838 15.5859375 31.34765625 C15.59748871 32.2083522 15.60903992 33.06904816 15.62094116 33.95582581 C15.74248827 38.97391018 16.19035344 43.29256086 18 48 C21.57897251 50.38598167 23.71590055 50.78579503 28 51 C32.91325369 49.6423597 32.91325369 49.6423597 36.17333984 46.0012207 C37.35757874 41.70179696 37.35797304 37.54731884 37.4140625 33.10546875 C37.43342865 32.15811356 37.4527948 31.21075836 37.4727478 30.23469543 C37.53236371 27.21905423 37.57885705 24.20337448 37.625 21.1875 C37.66319633 19.13865554 37.70224902 17.08982686 37.7421875 15.04101562 C37.83805053 10.02747238 37.92214807 5.01385397 38 0 C42.95 0 47.9 0 53 0 C53.09948619 6.22553948 53.17175931 12.45060782 53.21972656 18.67675781 C53.23974016 20.79109772 53.26695972 22.90538299 53.30175781 25.01953125 C53.35072941 28.07305448 53.37307182 31.12584078 53.390625 34.1796875 C53.41127014 35.11239471 53.43191528 36.04510193 53.45318604 37.006073 C53.45553603 44.00787701 52.25584082 51.06444556 47.6585083 56.62155151 C40.74339232 62.80774122 32.96828168 63.98854626 24 64 C17.08806635 63.45301245 11.35497765 61.47487715 6 57 C-0.02664752 49.86318057 -0.29758528 41.7223051 -0.1953125 32.8125 C-0.1924826 31.86938965 -0.18965271 30.9262793 -0.18673706 29.95458984 C-0.17562442 26.96959244 -0.15053672 23.98490531 -0.125 21 C-0.11495866 18.96484811 -0.10583484 16.92969148 -0.09765625 14.89453125 C-0.07571435 9.92956963 -0.04124673 4.96483725 0 0 Z " fill="#000000" transform="translate(581,212)"/>
<path d="M0 0 C12.54 0 25.08 0 38 0 C38 3.96 38 7.92 38 12 C30.41 12 22.82 12 15 12 C15 15.96 15 19.92 15 24 C21.93 24 28.86 24 36 24 C36 27.96 36 31.92 36 36 C29.07 36 22.14 36 15 36 C15 40.95 15 45.9 15 51 C22.59 51 30.18 51 38 51 C38 54.96 38 58.92 38 63 C25.46 63 12.92 63 0 63 C0 42.21 0 21.42 0 0 Z " fill="#000000" transform="translate(938,212)"/>
<path d="M0 0 C12.21 0 24.42 0 37 0 C37 3.96 37 7.92 37 12 C29.74 12 22.48 12 15 12 C15 15.96 15 19.92 15 24 C21.93 24 28.86 24 36 24 C36 27.96 36 31.92 36 36 C29.07 36 22.14 36 15 36 C15 40.95 15 45.9 15 51 C22.26 51 29.52 51 37 51 C37 54.96 37 58.92 37 63 C24.79 63 12.58 63 0 63 C0 42.21 0 21.42 0 0 Z " fill="#000000" transform="translate(829,212)"/>
<path d="M0 0 C6.6087254 0.07669701 13.86781203 1.57854135 19.375 5.25 C18.89769162 6.7089426 18.41808958 8.16713496 17.9375 9.625 C17.67066406 10.43710938 17.40382813 11.24921875 17.12890625 12.0859375 C16.375 14.25 16.375 14.25 15.375 16.25 C13.05794853 15.81555285 10.7714791 15.36612359 8.5078125 14.703125 C3.79335176 13.34565382 0.26996862 13.15112949 -4.625 14.25 C-5.98118499 15.37534105 -5.98118499 15.37534105 -5.6875 18.3125 C-5.666875 19.281875 -5.64625 20.25125 -5.625 21.25 C-5.11114746 21.51627197 -4.59729492 21.78254395 -4.06787109 22.05688477 C-1.70349175 23.29335458 0.64800918 24.55263515 3 25.8125 C4.21236328 26.43995117 4.21236328 26.43995117 5.44921875 27.08007812 C11.43218905 30.31477345 16.27639425 34.05278851 19.375 40.25 C19.86733445 45.56882627 20.32989149 51.27222294 17.9375 56.1875 C13.17799176 61.87569278 7.97461284 64.34171122 0.625 65.1875 C-6.49644672 65.5070521 -14.51937299 65.32320569 -20.984375 62.05859375 C-23.36418527 59.43513624 -23.02442077 57.53653286 -22.875 54.0625 C-22.83890625 52.97582031 -22.8028125 51.88914062 -22.765625 50.76953125 C-22.71921875 49.93808594 -22.6728125 49.10664063 -22.625 48.25 C-18.4071994 48.70845659 -14.71099069 49.51310748 -10.6875 50.875 C-5.88558895 52.39719845 -2.53208936 52.24959228 2.375 51.25 C3.035 49.6 3.695 47.95 4.375 46.25 C0.758171 40.93979559 -3.42699298 39.02479878 -9.04882812 36.37695312 C-14.89646496 33.47366302 -19.25498182 29.55268571 -21.625 23.25 C-22.51395238 17.7508992 -21.7536686 12.8934857 -19.0234375 8.04296875 C-15.8226469 3.93916181 -11.57340319 1.77769253 -6.625 0.4375 C-4.41616658 0.29944791 -2.20789892 0.15226889 0 0 Z " fill="#000000" transform="translate(429.625,210.75)"/>
<path d="M0 0 C12.21 0 24.42 0 37 0 C37 3.96 37 7.92 37 12 C29.74 12 22.48 12 15 12 C15 16.95 15 21.9 15 27 C21.6 27 28.2 27 35 27 C35 30.63 35 34.26 35 38 C28.4 38 21.8 38 15 38 C15 46.25 15 54.5 15 63 C10.05 63 5.1 63 0 63 C0 42.21 0 21.42 0 0 Z " fill="#000000" transform="translate(783,212)"/>
<path d="M0 0 C16.17 0 32.34 0 49 0 C49 3.96 49 7.92 49 12 C43.39 12 37.78 12 32 12 C32 28.83 32 45.66 32 63 C27.05 63 22.1 63 17 63 C17 46.17 17 29.34 17 12 C11.39 12 5.78 12 0 12 C0 8.04 0 4.08 0 0 Z " fill="#000000" transform="translate(527,212)"/>
<path d="M0 0 C16.17 0 32.34 0 49 0 C49 3.96 49 7.92 49 12 C43.39 12 37.78 12 32 12 C32 28.83 32 45.66 32 63 C27.05 63 22.1 63 17 63 C17 46.17 17 29.34 17 12 C11.39 12 5.78 12 0 12 C0 8.04 0 4.08 0 0 Z " fill="#000000" transform="translate(451,212)"/>
<path d="M0 0 C15.84 0 31.68 0 48 0 C48 3.96 48 7.92 48 12 C42.39 12 36.78 12 31 12 C31 28.83 31 45.66 31 63 C26.05 63 21.1 63 16 63 C16 46.17 16 29.34 16 12 C10.72 12 5.44 12 0 12 C0 8.04 0 4.08 0 0 Z " fill="#000000" transform="translate(640,212)"/>
<path d="M0 0 C4.95 0 9.9 0 15 0 C15 16.83 15 33.66 15 51 C23.25 51 31.5 51 40 51 C40 54.96 40 58.92 40 63 C26.8 63 13.6 63 0 63 C0 42.21 0 21.42 0 0 Z " fill="#000000" transform="translate(1099,212)"/>
<path d="M0 0 C4.95 0 9.9 0 15 0 C15 20.79 15 41.58 15 63 C10.05 63 5.1 63 0 63 C0 42.21 0 21.42 0 0 Z " fill="#000000" transform="translate(506,212)"/>
<path d="M0 0 C4.95 0 9.9 0 15 0 C15 20.79 15 41.58 15 63 C10.05 63 5.1 63 0 63 C0 42.21 0 21.42 0 0 Z " fill="#000000" transform="translate(315,212)"/>
<path d="M0 0 C0.98120464 3.05263664 0.98120464 4.94736336 0 8 C-0.65226562 7.855625 -1.30453125 7.71125 -1.9765625 7.5625 C-8.156592 6.24992736 -13.81340318 5.09643175 -20 7 C-20 9.64 -20 12.28 -20 15 C-18.35451172 15.79664063 -18.35451172 15.79664063 -16.67578125 16.609375 C-15.22119474 17.32259161 -13.7667765 18.03615148 -12.3125 18.75 C-11.59126953 19.09804688 -10.87003906 19.44609375 -10.12695312 19.8046875 C-0.12223851 24.73851936 -0.12223851 24.73851936 2.03125 29.078125 C3.09122151 33.98932635 3.20228739 37.63006326 1.12109375 42.2734375 C-1.04138052 45.60379857 -4.07895756 47.37357312 -7.796875 48.5859375 C-15.1497144 49.96785412 -22.99362945 49.6070216 -30 47 C-30 44.36 -30 41.72 -30 39 C-29.46632813 39.144375 -28.93265625 39.28875 -28.3828125 39.4375 C-21.2760752 41.20803663 -14.13785644 42.04172095 -7 40 C-6.70793118 37.07931185 -6.49112697 34.84531155 -7 32 C-10.69920258 28.58535147 -15.23625255 27.02994612 -19.8125 25.07421875 C-23.55507159 23.23634877 -27.09935071 20.80129859 -29 17 C-29.48950655 12.01666284 -29.76741914 7.53483829 -27.5 3 C-19.06373701 -3.74901039 -9.84925204 -2.55350979 0 0 Z " fill="#000000" transform="translate(342,301)"/>
<path d="M0 0 C4.37979801 4.74478118 5.12634684 8.07734751 5.09765625 14.41796875 C5.09443359 15.67158203 5.09121094 16.92519531 5.08789062 18.21679688 C5.07532227 20.18229492 5.07532227 20.18229492 5.0625 22.1875 C5.05748317 23.52278481 5.05292059 24.85807141 5.04882812 26.19335938 C5.03702695 29.46228473 5.02056297 32.73111991 5 36 C2.69 36 0.38 36 -2 36 C-2.33 35.34 -2.66 34.68 -3 34 C-3.78375 34.495 -4.5675 34.99 -5.375 35.5 C-10.06580595 37.44102315 -13.98810682 37.73225712 -19 37 C-22.55475507 35.28610023 -24.36288539 34.0249235 -26.4375 30.6875 C-27.44446036 25.87646719 -26.8489899 22.31739813 -24.1875 18.1875 C-19.29187943 13.29187943 -13.82658871 12.94802055 -7.125 12.9375 C-5.74993391 12.9533836 -4.37488287 12.97250234 -3 13 C-3.99 10.69 -4.98 8.38 -6 6 C-11.15171623 5.90961901 -15.91913204 6.15318867 -21 7 C-21.66 5.35 -22.32 3.7 -23 2 C-16.38339068 -2.34805755 -7.20458393 -4.20267396 0 0 Z M-17 21 C-17.33 23.31 -17.66 25.62 -18 28 C-16.44146006 29.77661725 -16.44146006 29.77661725 -14 31 C-10.63158378 30.40904979 -8.02198213 29.64725535 -5.125 27.8125 C-3.40100705 25.03495581 -3.30254951 22.20702481 -3 19 C-8.21979128 18.8200072 -12.07262981 19.02905192 -17 21 Z " fill="#000000" transform="translate(375,313)"/>
<path d="M0 0 C3.85502489 2.2676617 4.55278348 3.76566819 6.1875 7.875 C6.52807617 11.21826172 6.52807617 11.21826172 6.48046875 14.8046875 C6.47080078 16.09375 6.46113281 17.3828125 6.45117188 18.7109375 C6.42611188 20.05729786 6.40071712 21.40365203 6.375 22.75 C6.35993504 24.11977705 6.34624982 25.48957002 6.33398438 26.859375 C6.29871379 30.19832358 6.24941896 33.53645675 6.1875 36.875 C3.8775 36.875 1.5675 36.875 -0.8125 36.875 C-1.1425 36.215 -1.4725 35.555 -1.8125 34.875 C-2.616875 35.37 -3.42125 35.865 -4.25 36.375 C-9.86201397 38.73795325 -14.5406617 38.70112302 -20.25 36.625 C-22.9962662 34.74950113 -23.61420512 33.88429258 -24.8125 30.875 C-25.47790452 26.54987063 -25.33355114 22.96447056 -23.4375 19 C-17.150896 13.91084438 -9.61459796 13.49747913 -1.8125 13.875 C-2.8025 11.565 -3.7925 9.255 -4.8125 6.875 C-9.96421623 6.78461901 -14.73163204 7.02818867 -19.8125 7.875 C-20.1425 5.895 -20.4725 3.915 -20.8125 1.875 C-13.41645489 -1.00123976 -7.82184551 -2.30808556 0 0 Z M-16.8125 23.875 C-17.39600505 26.33209375 -17.39600505 26.33209375 -16.8125 28.875 C-14.81405751 31.00853917 -14.81405751 31.00853917 -11.8125 31.875 C-7.69856438 31.3075606 -5.5707252 30.77997847 -2.875 27.5625 C-1.76944972 24.76610811 -1.55744519 22.8506394 -1.8125 19.875 C-10.0518432 19.55786848 -10.0518432 19.55786848 -16.8125 23.875 Z " fill="#000000" transform="translate(475.8125,312.125)"/>
<path d="M0 0 C3.10078442 4.00782579 3.35671714 7.05715706 3.29296875 12.05078125 C3.28872391 12.70958786 3.28447906 13.36839447 3.28010559 14.04716492 C3.26341196 16.13603885 3.22578058 18.22392139 3.1875 20.3125 C3.17244097 21.73501203 3.15875469 23.1575393 3.14648438 24.58007812 C3.11354003 28.05370351 3.06182408 31.52675487 3 35 C0.69 35 -1.62 35 -4 35 C-4.33 34.34 -4.66 33.68 -5 33 C-5.61875 33.495 -6.2375 33.99 -6.875 34.5 C-11.27986175 36.61433364 -15.19164759 36.58619123 -20 36 C-23.68137204 34.43345871 -26.19896612 32.60206776 -28 29 C-28.5307127 25.89153987 -28.59820568 23.10180721 -28 20 C-24.70841644 15.7026548 -21.45975372 13.55903494 -16.25 12.375 C-12.45428297 11.93703265 -8.8194728 11.93414702 -5 12 C-5.66 9.69 -6.32 7.38 -7 5 C-12.45769811 4.88861841 -17.61509359 5.08342019 -23 6 C-23.33 4.02 -23.66 2.04 -24 0 C-15.42467767 -3.33484757 -8.47717214 -4.82035279 0 0 Z M-20 22 C-20.58350505 24.45709375 -20.58350505 24.45709375 -20 27 C-18.00155751 29.13353917 -18.00155751 29.13353917 -15 30 C-10.88606438 29.4325606 -8.7582252 28.90497847 -6.0625 25.6875 C-4.95694972 22.89110811 -4.74494519 20.9756394 -5 18 C-13.2393432 17.68286848 -13.2393432 17.68286848 -20 22 Z " fill="#000000" transform="translate(576,314)"/>
<path d="M0 0 C3.10488194 4.00381747 3.35669383 7.05898348 3.29296875 12.05078125 C3.28872391 12.70958786 3.28447906 13.36839447 3.28010559 14.04716492 C3.26341196 16.13603885 3.22578058 18.22392139 3.1875 20.3125 C3.17244097 21.73501203 3.15875469 23.1575393 3.14648438 24.58007812 C3.11354003 28.05370351 3.06182408 31.52675487 3 35 C0.69 35 -1.62 35 -4 35 C-4.33 34.34 -4.66 33.68 -5 33 C-5.61875 33.495 -6.2375 33.99 -6.875 34.5 C-11.27986175 36.61433364 -15.19164759 36.58619123 -20 36 C-23.68157213 34.43337356 -26.16042622 32.5823279 -28 29 C-28.40510805 24.74636551 -28.45309967 22.13274917 -26.875 18.1875 C-23.15979175 13.85309037 -18.53207642 12.55320764 -13 12 C-10.32692928 11.93220473 -7.67495816 11.95388003 -5 12 C-5.66 9.69 -6.32 7.38 -7 5 C-12.12583611 4.89748328 -16.94997778 4.96409801 -22 6 C-24 3 -24 3 -24 0 C-15.28576315 -2.94565753 -8.50455288 -4.74292372 0 0 Z M-19 21 C-20.15474612 23.43810155 -20.15474612 23.43810155 -20 26 C-18.33687677 29.11697941 -18.33687677 29.11697941 -15.75 29.875 C-12.07078289 30.04223714 -10.09657212 28.92675599 -7 27 C-4.70986347 23.5647952 -4.82157027 22.014669 -5 18 C-10.50263621 17.71538089 -14.32125724 17.69064536 -19 21 Z " fill="#000000" transform="translate(637,314)"/>
<path d="M0 0 C3.10488194 4.00381747 3.35669383 7.05898348 3.29296875 12.05078125 C3.28872391 12.70958786 3.28447906 13.36839447 3.28010559 14.04716492 C3.26341196 16.13603885 3.22578058 18.22392139 3.1875 20.3125 C3.17244097 21.73501203 3.15875469 23.1575393 3.14648438 24.58007812 C3.11354003 28.05370351 3.06182408 31.52675487 3 35 C0.69 35 -1.62 35 -4 35 C-4.33 34.34 -4.66 33.68 -5 33 C-5.61875 33.495 -6.2375 33.99 -6.875 34.5 C-11.283874 36.61625952 -15.18800036 36.57870836 -20 36 C-24.20475482 34.3002055 -26.20472472 32.1574796 -28 28 C-28.40359922 24.23307391 -28.31158806 21.76165971 -26.875 18.25 C-23.20357994 13.84429593 -18.55051212 12.55505121 -13 12 C-10.32692928 11.93220473 -7.67495816 11.95388003 -5 12 C-5.66 9.69 -6.32 7.38 -7 5 C-12.12583611 4.89748328 -16.94997778 4.96409801 -22 6 C-24 3 -24 3 -24 0 C-15.28576315 -2.94565753 -8.50455288 -4.74292372 0 0 Z M-19 21 C-20.15474612 23.43810155 -20.15474612 23.43810155 -20 26 C-18.33687677 29.11697941 -18.33687677 29.11697941 -15.75 29.875 C-12.07078289 30.04223714 -10.09657212 28.92675599 -7 27 C-4.70986347 23.5647952 -4.82157027 22.014669 -5 18 C-10.50263621 17.71538089 -14.32125724 17.69064536 -19 21 Z " fill="#000000" transform="translate(760,314)"/>
<path d="M0 0 C0.93065133 2.60582371 1.14917407 3.64198224 0.0625 6.25 C-0.4634375 7.11625 -0.4634375 7.11625 -1 8 C-1.53367187 7.84402344 -2.06734375 7.68804687 -2.6171875 7.52734375 C-9.6244483 5.69672717 -16.37102464 5.06969396 -22.9375 8.5625 C-27.22613821 13.63089062 -28.53874098 19.19063505 -28.2890625 25.76171875 C-27.54587076 31.51643318 -25.66667232 36.35416225 -21 40 C-14.62828516 42.12390495 -7.5260075 41.13495783 -1 40 C-1 42.31 -1 44.62 -1 47 C-8.81838242 49.94656755 -18.40528363 50.66866558 -26.21875 47.17578125 C-31.84754447 43.46028315 -35.35177529 38.49182845 -37 32 C-37.83371349 24.54247969 -38.57031269 15.17506632 -34.390625 8.640625 C-24.63813581 -2.86512067 -14.06794475 -3.64724493 0 0 Z " fill="#000000" transform="translate(544,301)"/>
<path d="M0 0 C3.53733604 4.42126789 4.4902912 7.29854708 4.390625 12.9296875 C4.37773438 14.21875 4.36484375 15.5078125 4.3515625 16.8359375 C4.31814906 18.18230268 4.28428937 19.52865685 4.25 20.875 C4.22991356 22.24476569 4.21166655 23.61455966 4.1953125 24.984375 C4.1482806 28.32363986 4.08255864 31.66145562 4 35 C1.36 35 -1.28 35 -4 35 C-4.01981934 34.19780029 -4.03963867 33.39560059 -4.06005859 32.5690918 C-4.15519495 28.94155823 -4.2649208 25.31460955 -4.375 21.6875 C-4.4059375 20.42486328 -4.436875 19.16222656 -4.46875 17.86132812 C-4.50742187 16.65283203 -4.54609375 15.44433594 -4.5859375 14.19921875 C-4.6173584 13.08377686 -4.6487793 11.96833496 -4.68115234 10.8190918 C-4.805249 7.79631214 -4.805249 7.79631214 -7 5 C-12.46564274 4.2136545 -12.46564274 4.2136545 -17.09130859 6.65112305 C-19.50739638 9.62441296 -19.53491449 11.28063882 -19.609375 15.078125 C-19.64160156 16.23828125 -19.67382812 17.3984375 -19.70703125 18.59375 C-19.72830078 20.40359375 -19.72830078 20.40359375 -19.75 22.25 C-19.77964844 23.47203125 -19.80929687 24.6940625 -19.83984375 25.953125 C-19.91052402 28.96881644 -19.96323175 31.9837355 -20 35 C-22.97 35 -25.94 35 -29 35 C-29 22.79 -29 10.58 -29 -2 C-26.36 -2 -23.72 -2 -21 -2 C-20.67 -1.34 -20.34 -0.68 -20 0 C-19.34 -0.66 -18.68 -1.32 -18 -2 C-11.86111839 -4.36110831 -5.34013285 -3.64099967 0 0 Z " fill="#000000" transform="translate(722,314)"/>
<path d="M0 0 C3.7647859 2.45148849 5.2764566 4.51686981 6.6875 8.75 C6.7708804 10.88794525 6.79483747 13.02842009 6.78515625 15.16796875 C6.78193359 16.42158203 6.77871094 17.67519531 6.77539062 18.96679688 C6.76282227 20.93229492 6.76282227 20.93229492 6.75 22.9375 C6.74498317 24.27278481 6.74042059 25.60807141 6.73632812 26.94335938 C6.72452695 30.21228473 6.70806297 33.48111991 6.6875 36.75 C4.0475 36.75 1.4075 36.75 -1.3125 36.75 C-1.33755615 35.97809326 -1.3626123 35.20618652 -1.38842773 34.41088867 C-1.50434007 30.91958819 -1.62708824 27.42856078 -1.75 23.9375 C-1.78931641 22.72255859 -1.82863281 21.50761719 -1.86914062 20.25585938 C-1.91103516 19.09248047 -1.95292969 17.92910156 -1.99609375 16.73046875 C-2.03275146 15.65692139 -2.06940918 14.58337402 -2.10717773 13.47729492 C-2.20791847 10.65688447 -2.20791847 10.65688447 -3.3125 7.75 C-6.40423752 6.20413124 -8.90679552 6.45640479 -12.3125 6.75 C-15.14518412 8.87230104 -16.18471639 10.08502231 -16.85839844 13.59082031 C-16.8793457 14.65913086 -16.90029297 15.72744141 -16.921875 16.828125 C-16.95410156 17.98828125 -16.98632812 19.1484375 -17.01953125 20.34375 C-17.04080078 22.15359375 -17.04080078 22.15359375 -17.0625 24 C-17.09214844 25.22203125 -17.12179687 26.4440625 -17.15234375 27.703125 C-17.22302402 30.71881644 -17.27573175 33.7337355 -17.3125 36.75 C-20.2825 36.75 -23.2525 36.75 -26.3125 36.75 C-26.3125 24.54 -26.3125 12.33 -26.3125 -0.25 C-24.0025 -0.25 -21.6925 -0.25 -19.3125 -0.25 C-18.6525 0.41 -17.9925 1.07 -17.3125 1.75 C-16.4875 1.255 -15.6625 0.76 -14.8125 0.25 C-9.45903871 -2.04434055 -5.43999489 -2.05282826 0 0 Z " fill="#000000" transform="translate(414.3125,312.25)"/>
<path d="M0 0 C1.98 0 3.96 0 6 0 C6 2.64 6 5.28 6 8 C9.63 8 13.26 8 17 8 C17 9.98 17 11.96 17 14 C13.37 14 9.74 14 6 14 C6.0867681 17.60536404 6.1936268 21.20817495 6.3125 24.8125 C6.33505859 25.83666016 6.35761719 26.86082031 6.38085938 27.91601562 C6.41630859 28.89892578 6.45175781 29.88183594 6.48828125 30.89453125 C6.51446533 31.80050049 6.54064941 32.70646973 6.56762695 33.63989258 C7.08028486 36.43823476 7.68478691 37.37432572 10 39 C13.62535976 39.2503577 13.62535976 39.2503577 17 39 C17 40.98 17 42.96 17 45 C13.27287842 46.86356079 9.0579268 46.56549975 5 46 C1.37468392 44.1258346 -0.69121639 41.92635083 -2 38 C-2.08239169 36.15389468 -2.10743359 34.30494836 -2.09765625 32.45703125 C-2.09443359 31.38388672 -2.09121094 30.31074219 -2.08789062 29.20507812 C-2.07951172 28.08552734 -2.07113281 26.96597656 -2.0625 25.8125 C-2.05798828 24.68134766 -2.05347656 23.55019531 -2.04882812 22.38476562 C-2.03703498 19.58979073 -2.0205765 16.7949218 -2 14 C-3.65 14 -5.3 14 -7 14 C-6.75 11.625 -6.75 11.625 -6 9 C-5.360625 8.71125 -4.72125 8.4225 -4.0625 8.125 C-1.56660199 7.06414789 -1.56660199 7.06414789 -0.75 3.375 C-0.5025 2.26125 -0.255 1.1475 0 0 Z " fill="#000000" transform="translate(590,304)"/>
<path d="M0 0 C1.98 0 3.96 0 6 0 C6 2.64 6 5.28 6 8 C9.3 8 12.6 8 16 8 C16 9.98 16 11.96 16 14 C12.7 14 9.4 14 6 14 C6.33 21.59 6.66 29.18 7 37 C11.2099725 38.683989 12.78952566 39.24059853 17 39 C17 40.98 17 42.96 17 45 C11.97049525 46.67650158 6.97208411 46.83918473 2.0625 44.75 C-0.93117928 42.20990849 -1.90263896 40.17880136 -2.22705078 36.25097656 C-2.21134033 34.71135254 -2.21134033 34.71135254 -2.1953125 33.140625 C-2.18564453 31.46806641 -2.18564453 31.46806641 -2.17578125 29.76171875 C-2.15902344 28.60285156 -2.14226562 27.44398438 -2.125 26.25 C-2.11597656 25.07566406 -2.10695313 23.90132813 -2.09765625 22.69140625 C-2.07410063 19.79406464 -2.04120652 16.89713559 -2 14 C-3.65 14 -5.3 14 -7 14 C-7 12.35 -7 10.7 -7 9 C-5.35 8.67 -3.7 8.34 -2 8 C-1.34 5.36 -0.68 2.72 0 0 Z " fill="#000000" transform="translate(432,304)"/>
<path d="M0 0 C0.33 0.33 0.66 0.66 1 1 C0.71269945 3.33944736 0.38063221 5.6739143 0 8 C-1.5778125 7.87625 -1.5778125 7.87625 -3.1875 7.75 C-7.57865299 8.03794446 -8.97912336 8.89027405 -12 12 C-12.99455909 14.98367726 -13.19559632 17.2004192 -13.31640625 20.32421875 C-13.35830078 21.35224609 -13.40019531 22.38027344 -13.44335938 23.43945312 C-13.48267578 24.51130859 -13.52199219 25.58316406 -13.5625 26.6875 C-13.60568359 27.77095703 -13.64886719 28.85441406 -13.69335938 29.97070312 C-13.79946838 32.64700791 -13.90152361 35.32340526 -14 38 C-16.64 38 -19.28 38 -22 38 C-22 25.79 -22 13.58 -22 1 C-19.69 1 -17.38 1 -15 1 C-14.67 1.99 -14.34 2.98 -14 4 C-13.175 3.34 -12.35 2.68 -11.5 2 C-7.6308733 -0.6132765 -4.57275279 -0.38752142 0 0 Z " fill="#000000" transform="translate(671,311)"/>
<path d="M0 0 C2.97 0 5.94 0 9 0 C9 12.21 9 24.42 9 37 C6.03 37 3.06 37 0 37 C0 24.79 0 12.58 0 0 Z " fill="#000000" transform="translate(676,312)"/>
<path d="M0 0 C2.875 -0.125 2.875 -0.125 6 0 C6.66 0.66 7.32 1.32 8 2 C7.43181818 7.56818182 7.43181818 7.56818182 6 9 C3.5625 9.1875 3.5625 9.1875 1 9 C0.34 8.34 -0.32 7.68 -1 7 C-0.625 3.375 -0.625 3.375 0 0 Z " fill="#000000" transform="translate(677,299)"/>
<path d="M0 0 C0 3 0 3 -1.53125 4.60546875 C-2.1809375 5.12753906 -2.830625 5.64960937 -3.5 6.1875 C-4.1496875 6.71730469 -4.799375 7.24710937 -5.46875 7.79296875 C-5.9740625 8.19128906 -6.479375 8.58960937 -7 9 C-7 6 -7 6 -5.46875 4.39453125 C-4.49421875 3.61142578 -4.49421875 3.61142578 -3.5 2.8125 C-2.8503125 2.28269531 -2.200625 1.75289063 -1.53125 1.20703125 C-1.0259375 0.80871094 -0.520625 0.41039063 0 0 Z " fill="#88080A" transform="translate(75,66)"/>
</svg>
