<?xml version="1.0" encoding="UTF-8"?>
<svg version="1.1" xmlns="http://www.w3.org/2000/svg" width="672" height="371">
<path d="M0 0 C0.80103149 0.00202423 1.60206299 0.00404846 2.42736816 0.00613403 C3.24483521 0.00517731 4.06230225 0.00422058 4.90454102 0.00323486 C6.63627194 0.00255308 8.3680054 0.00440724 10.09973145 0.00857544 C12.75978298 0.01392374 15.41966566 0.00863041 18.07971191 0.00222778 C19.75809771 0.00288857 21.43648339 0.00416973 23.11486816 0.00613403 C23.91589966 0.0041098 24.71693115 0.00208557 25.54223633 0 C31.15616738 0.02399575 31.15616738 0.02399575 32.27111816 1.13894653 C32.36619638 3.72533691 32.39668192 6.28493213 32.38464355 8.87161255 C32.38478958 9.68130493 32.38493561 10.49099731 32.38508606 11.32522583 C32.3843867 14.01446162 32.37659326 16.70362902 32.36877441 19.39285278 C32.36691032 21.25230369 32.36548637 23.11175509 32.36448669 24.97120667 C32.36066087 29.87523749 32.35083004 34.77923889 32.33978271 39.68325806 C32.32956997 44.68345746 32.32498937 49.68366159 32.31994629 54.68386841 C32.30920783 64.50224282 32.29161052 74.32058763 32.27111816 84.13894653 C37.55111816 84.13894653 42.83111816 84.13894653 48.27111816 84.13894653 C48.26588135 82.90217163 48.26064453 81.66539673 48.25524902 80.3911438 C48.23720255 75.81969929 48.22568746 71.24825794 48.21618652 66.67678833 C48.21114549 64.69501212 48.20431278 62.71323965 48.19567871 60.73147583 C48.18360302 57.88942545 48.17788771 55.04742406 48.17346191 52.20535278 C48.16830063 51.31368912 48.16313934 50.42202545 48.15782166 49.50334167 C48.1576264 47.38154052 48.20901786 45.25983874 48.27111816 43.13894653 C49.27111816 42.13894653 49.27111816 42.13894653 53.2401123 42.02542114 C55.01217422 42.02567232 56.784241 42.03123675 58.55627441 42.04129028 C59.79323059 42.0428009 59.79323059 42.0428009 61.05517578 42.04434204 C64.14800397 42.04959061 67.2408124 42.06355176 70.33361816 42.07644653 C77.24299316 42.09707153 84.15236816 42.11769653 91.27111816 42.13894653 C91.27111816 55.99894653 91.27111816 69.85894653 91.27111816 84.13894653 C103.81111816 84.13894653 116.35111816 84.13894653 129.27111816 84.13894653 C129.2940255 89.67488643 129.31395307 95.21066309 129.3260498 100.74661255 C129.3310906 102.63138383 129.33792315 104.51615118 129.34655762 106.40090942 C129.35863433 109.10396289 129.36434885 111.80696484 129.36877441 114.51004028 C129.3739357 115.35795639 129.37909698 116.2058725 129.38441467 117.07948303 C129.38461011 119.09965722 129.33318027 121.11972587 129.27111816 123.13894653 C128.27111816 124.13894653 128.27111816 124.13894653 124.7611084 124.25247192 C123.20063396 124.25222084 121.64015397 124.24665993 120.07971191 124.23660278 C119.35336548 124.2355957 118.62701904 124.23458862 117.87866211 124.23355103 C115.15529816 124.2283037 112.43195664 124.21434253 109.70861816 124.20144653 C103.62424316 124.18082153 97.53986816 124.16019653 91.27111816 124.13894653 C91.27111816 138.98894653 91.27111816 153.83894653 91.27111816 169.13894653 C84.54736816 169.34519653 77.82361816 169.55144653 70.89611816 169.76394653 C68.77383789 169.83436157 66.65155762 169.90477661 64.46496582 169.97732544 C62.78839329 170.0241994 61.11179926 170.07031308 59.43518066 170.11550903 C58.12263306 170.16324463 58.12263306 170.16324463 56.78356934 170.21194458 C54.61327719 170.26552426 52.4408258 170.21248245 50.27111816 170.13894653 C48.27111816 168.13894653 48.27111816 168.13894653 48.03060913 166.22802734 C48.03505035 165.45081329 48.03949158 164.67359924 48.04406738 163.87283325 C48.04429398 162.55169022 48.04429398 162.55169022 48.04452515 161.20385742 C48.05484772 160.2517337 48.06517029 159.29960999 48.07580566 158.31863403 C48.07863556 157.34483795 48.08146545 156.37104187 48.0843811 155.36773682 C48.09559904 152.24968305 48.12070647 149.13191386 48.14611816 146.01394653 C48.15614588 143.90327359 48.16527209 141.79259616 48.17346191 139.68191528 C48.19554364 134.50081562 48.23008443 129.31992937 48.27111816 124.13894653 C42.99111816 124.13894653 37.71111816 124.13894653 32.27111816 124.13894653 C32.27635498 125.46660034 32.2815918 126.79425415 32.2869873 128.16213989 C32.30503243 133.06903413 32.31654838 137.97592541 32.3260498 142.88284302 C32.33109115 145.01012667 32.33792408 147.13740685 32.34655762 149.26467896 C32.35863195 152.31522479 32.36434831 155.36572499 32.36877441 158.41629028 C32.37651634 159.85221779 32.37651634 159.85221779 32.38441467 161.31715393 C32.3844902 162.19799149 32.38456573 163.07882904 32.38464355 163.98635864 C32.38686417 164.7657933 32.38908478 165.54522797 32.39137268 166.34828186 C32.27111816 168.13894653 32.27111816 168.13894653 31.27111816 169.13894653 C28.63025606 169.31143742 26.01294884 169.42287466 23.36877441 169.49050903 C22.17942543 169.52523819 22.17942543 169.52523819 20.96604919 169.56066895 C19.2856603 169.60837516 17.60519947 169.65360097 15.92468262 169.69656372 C13.347831 169.76357692 10.77145985 169.84135133 8.19494629 169.92019653 C6.56540682 169.96511855 4.93584983 170.00941036 3.30627441 170.05300903 C2.14527977 170.08885605 2.14527977 170.08885605 0.96083069 170.12542725 C-4.4991428 170.25381605 -4.4991428 170.25381605 -6.72888184 169.13894653 C-6.72888184 167.81894653 -6.72888184 166.49894653 -6.72888184 165.13894653 C-7.57450684 165.41609497 -8.42013184 165.69324341 -9.29138184 165.97879028 C-10.42575684 166.34101685 -11.56013184 166.70324341 -12.72888184 167.07644653 C-13.84263184 167.43609497 -14.95638184 167.79574341 -16.10388184 168.16629028 C-31.44406774 172.2823531 -50.09171402 171.4670454 -64.72888184 165.13894653 C-64.72888184 164.47894653 -64.72888184 163.81894653 -64.72888184 163.13894653 C-65.78075684 163.03582153 -66.83263184 162.93269653 -67.91638184 162.82644653 C-71.61516297 162.15945321 -73.75874994 161.38904645 -76.72888184 159.13894653 C-76.72888184 158.47894653 -76.72888184 157.81894653 -76.72888184 157.13894653 C-78.04888184 156.80894653 -79.36888184 156.47894653 -80.72888184 156.13894653 C-80.72888184 160.42894653 -80.72888184 164.71894653 -80.72888184 169.13894653 C-91.94888184 169.13894653 -103.16888184 169.13894653 -114.72888184 169.13894653 C-114.75466309 163.92468872 -114.78044434 158.71043091 -114.80700684 153.33816528 C-114.8322019 150.01585193 -114.85855514 146.69362722 -114.88903809 143.37136841 C-114.93721106 138.10924049 -114.98131615 132.84731802 -114.99987793 127.58499146 C-115.01512925 123.33775478 -115.04972272 119.09105914 -115.09719086 114.84406471 C-115.11191792 113.23158306 -115.11991782 111.61902413 -115.12076569 110.00647545 C-115.13284187 98.54528871 -116.31970313 88.96826671 -122.72888184 79.13894653 C-126.90702186 76.06656648 -131.63025513 73.63249449 -136.91638184 74.07644653 C-141.35870575 75.31447123 -144.02105715 76.37625363 -147.72888184 79.13894653 C-150.54648803 84.40040296 -151.17253728 88.6489832 -151.16125488 94.55276489 C-151.17144653 95.36333344 -151.18163818 96.17390198 -151.19213867 97.0090332 C-151.22212906 99.66569048 -151.23151307 102.32198637 -151.24060059 104.97879028 C-151.25745765 106.82967819 -151.27560927 108.68055473 -151.29499817 110.53141785 C-151.34239276 115.38599085 -151.37227023 120.24051772 -151.3984375 125.09524536 C-151.43355264 130.92913561 -151.49053533 136.76284872 -151.54383087 142.59659576 C-151.62222115 151.44402322 -151.67292021 160.29122077 -151.72888184 169.13894653 C-164.59888184 169.13894653 -177.46888184 169.13894653 -190.72888184 169.13894653 C-190.72888184 127.88894653 -190.72888184 86.63894653 -190.72888184 44.13894653 C-178.18888184 44.13894653 -165.64888184 44.13894653 -152.72888184 44.13894653 C-152.06888184 45.12894653 -151.40888184 46.11894653 -150.72888184 47.13894653 C-149.93868652 46.77800903 -149.14849121 46.41707153 -148.33435059 46.04519653 C-136.25010532 41.07339277 -122.34075675 39.60587209 -109.81872559 44.20535278 C-106.38344653 45.73999146 -103.0451302 47.35799834 -99.72888184 49.13894653 C-99.72888184 49.79894653 -99.72888184 50.45894653 -99.72888184 51.13894653 C-98.85103027 51.52566528 -98.85103027 51.52566528 -97.95544434 51.92019653 C-95.55369918 53.23483599 -93.99691953 54.67085448 -92.10388184 56.63894653 C-91.2182959 57.55160278 -91.2182959 57.55160278 -90.31481934 58.48269653 C-89.52978027 59.30254028 -89.52978027 59.30254028 -88.72888184 60.13894653 C-88.06888184 60.79894653 -87.40888184 61.45894653 -86.72888184 62.13894653 C-86.16040527 61.61945435 -85.59192871 61.09996216 -85.00622559 60.56472778 C-84.23407715 59.86734497 -83.46192871 59.16996216 -82.66638184 58.45144653 C-81.91228027 57.76695435 -81.15817871 57.08246216 -80.38122559 56.37722778 C-66.763106 44.88505912 -49.80661722 41.35734456 -32.20349121 42.81863403 C-24.10876431 43.86641242 -13.64997871 46.21784966 -7.72888184 52.13894653 C-7.71857437 51.50223526 -7.70826691 50.86552399 -7.69764709 50.20951843 C-7.58981853 43.60767855 -7.47520223 37.00598175 -7.35656738 30.40432739 C-7.3131424 27.93756084 -7.27147312 25.47076276 -7.23156738 23.00393677 C-7.17404738 19.46681187 -7.11030109 15.92984688 -7.04528809 12.39285278 C-7.02857559 11.28245132 -7.0118631 10.17204987 -6.99464417 9.02799988 C-6.97469894 8.00701706 -6.95475372 6.98603424 -6.9342041 5.93411255 C-6.91865982 5.03032364 -6.90311554 4.12653473 -6.88710022 3.19535828 C-6.55684483 -1.09706994 -3.64210304 0.01556752 0 0 Z M-51.72888184 82.13894653 C-51.72888184 82.79894653 -51.72888184 83.45894653 -51.72888184 84.13894653 C-52.46493652 84.18921997 -53.20099121 84.23949341 -53.95935059 84.29129028 C-58.80308334 85.77378677 -60.76415065 90.00960723 -63.11560059 94.24050903 C-66.50867324 101.43168744 -65.92140263 110.15341652 -63.68981934 117.61160278 C-63.21415527 118.86263794 -63.21415527 118.86263794 -62.72888184 120.13894653 C-62.06888184 120.13894653 -61.40888184 120.13894653 -60.72888184 120.13894653 C-60.72888184 120.79894653 -60.72888184 121.45894653 -60.72888184 122.13894653 C-60.06888184 122.13894653 -59.40888184 122.13894653 -58.72888184 122.13894653 C-58.39888184 123.78894653 -58.06888184 125.43894653 -57.72888184 127.13894653 C-56.73888184 127.13894653 -55.74888184 127.13894653 -54.72888184 127.13894653 C-54.72888184 127.79894653 -54.72888184 128.45894653 -54.72888184 129.13894653 C-47.38353277 134.8719019 -39.79635609 135.97634675 -30.72888184 135.13894653 C-22.30451155 133.25706277 -15.85706982 128.21681105 -10.95153809 121.24441528 C-6.62592006 113.79550756 -6.81472449 104.6080759 -8.85778809 96.43582153 C-12.08426559 87.92833824 -18.80332242 83.018591 -26.72888184 79.13894653 C-35.28029129 76.28847671 -44.23318949 77.34170343 -51.72888184 82.13894653 Z " fill="#912B8C" transform="translate(358.7288818359375,93.86105346679688)"/>
<path d="M0 0 C0 0.66 0 1.32 0 2 C0.87785156 2.39058594 0.87785156 2.39058594 1.7734375 2.7890625 C4.14067554 4.07650775 5.73232086 5.46564527 7.625 7.375 C8.21539062 7.96023437 8.80578125 8.54546875 9.4140625 9.1484375 C12.36081694 12.58873702 12.36081694 12.58873702 13 15 C11.62109375 17.70703125 11.62109375 17.70703125 9.4375 20.8125 C1.7449615 32.68960612 -0.43753087 43.13858019 -0.5625 57.1875 C-0.57732422 58.36320557 -0.59214844 59.53891113 -0.60742188 60.75024414 C-0.44467365 74.55962498 4.22193825 86.64211138 12.828125 97.3359375 C14 99 14 99 14 101 C14.61875 101.2475 15.2375 101.495 15.875 101.75 C18 103 18 103 20 107 C19.67 111.29 19.34 115.58 19 120 C7.78 120 -3.44 120 -15 120 C-15.02578125 114.78574219 -15.0515625 109.57148438 -15.078125 104.19921875 C-15.10332007 100.87690539 -15.12967331 97.55468068 -15.16015625 94.23242188 C-15.20832923 88.97029395 -15.25243431 83.70837149 -15.27099609 78.44604492 C-15.28624742 74.19880824 -15.32084088 69.9521126 -15.36830902 65.70511818 C-15.38303609 64.09263653 -15.39103598 62.48007759 -15.39188385 60.86752892 C-15.40396003 49.40634218 -16.5908213 39.82932018 -23 30 C-27.17814003 26.92761994 -31.9013733 24.49354795 -37.1875 24.9375 C-41.62982391 26.1755247 -44.29217531 27.23730709 -48 30 C-50.81760619 35.26145643 -51.44365544 39.51003667 -51.43237305 45.41381836 C-51.4425647 46.2243869 -51.45275635 47.03495544 -51.46325684 47.87008667 C-51.49324722 50.52674395 -51.50263123 53.18303984 -51.51171875 55.83984375 C-51.52857581 57.69073166 -51.54672743 59.54160819 -51.56611633 61.39247131 C-51.61351093 66.24704432 -51.64338839 71.10157118 -51.66955566 75.95629883 C-51.7046708 81.79018907 -51.76165349 87.62390219 -51.81494904 93.45764923 C-51.89333932 102.30507669 -51.94403838 111.15227423 -52 120 C-64.87 120 -77.74 120 -91 120 C-91 78.75 -91 37.5 -91 -5 C-78.46 -5 -65.92 -5 -53 -5 C-52.34 -4.01 -51.68 -3.02 -51 -2 C-50.20980469 -2.3609375 -49.41960937 -2.721875 -48.60546875 -3.09375 C-31.9450218 -9.94833389 -15.74649666 -8.45645191 0 0 Z " fill="#28ABE1" transform="translate(259,143)"/>
<path d="M0 0 C0.99 0.495 0.99 0.495 2 1 C2 28.39 2 55.78 2 84 C7.28 84 12.56 84 18 84 C17.99476318 82.7632251 17.98952637 81.5264502 17.98413086 80.25219727 C17.96608439 75.68075275 17.95456929 71.10931141 17.94506836 66.5378418 C17.94002733 64.55606559 17.93319462 62.57429311 17.92456055 60.5925293 C17.91248485 57.75047891 17.90676955 54.90847753 17.90234375 52.06640625 C17.89718246 51.17474258 17.89202118 50.28307892 17.88670349 49.36439514 C17.88650823 47.24259399 17.9378997 45.1208922 18 43 C19 42 19 42 22.96899414 41.88647461 C24.74105605 41.88672579 26.51312284 41.89229022 28.28515625 41.90234375 C29.52211243 41.90385437 29.52211243 41.90385437 30.78405762 41.90539551 C33.87688581 41.91064408 36.96969424 41.92460523 40.0625 41.9375 C46.971875 41.958125 53.88125 41.97875 61 42 C61 55.86 61 69.72 61 84 C73.54 84 86.08 84 99 84 C99.02290734 89.5359399 99.04283491 95.07171655 99.05493164 100.60766602 C99.05997244 102.4924373 99.06680498 104.37720465 99.07543945 106.26196289 C99.08751617 108.96501636 99.09323068 111.66801831 99.09765625 114.37109375 C99.10281754 115.21900986 99.10797882 116.06692596 99.11329651 116.9405365 C99.11349195 118.96071068 99.06206211 120.98077934 99 123 C98 124 98 124 94.48999023 124.11352539 C92.92951579 124.11327431 91.3690358 124.1077134 89.80859375 124.09765625 C89.08224731 124.09664917 88.35590088 124.09564209 87.60754395 124.09460449 C84.88417999 124.08935716 82.16083847 124.075396 79.4375 124.0625 C73.353125 124.041875 67.26875 124.02125 61 124 C61 138.85 61 153.7 61 169 C50.914375 169.309375 50.914375 169.309375 40.625 169.625 C38.50271973 169.69541504 36.38043945 169.76583008 34.19384766 169.83837891 C32.51727513 169.88525286 30.8406811 169.93136655 29.1640625 169.9765625 C27.85151489 170.0242981 27.85151489 170.0242981 26.51245117 170.07299805 C24.34215903 170.12657773 22.16970764 170.07353591 20 170 C18 168 18 168 17.75949097 166.08908081 C17.7661528 164.92325974 17.7661528 164.92325974 17.77294922 163.73388672 C17.77310028 162.85312469 17.77325134 161.97236267 17.77340698 161.06491089 C17.78372955 160.11278717 17.79405212 159.16066345 17.8046875 158.1796875 C17.8075174 157.20589142 17.81034729 156.23209534 17.81326294 155.22879028 C17.82448087 152.11073651 17.8495883 148.99296732 17.875 145.875 C17.88502772 143.76432706 17.89415393 141.65364962 17.90234375 139.54296875 C17.92442547 134.36186909 17.95896626 129.18098283 18 124 C12.72 124 7.44 124 2 124 C2 138.52 2 153.04 2 168 C1.67 168 1.34 168 1 168 C0.67 112.56 0.34 57.12 0 0 Z " fill="#24AAE1" transform="translate(389,94)"/>
<path d="M0 0 C0.66 0 1.32 0 2 0 C2.81917642 1.72601379 3.63006016 3.4559647 4.4375 5.1875 C5.11619141 6.63189453 5.11619141 6.63189453 5.80859375 8.10546875 C7.89277509 13.16900439 8.12307602 17.72359478 8.11352539 23.17700195 C8.11367142 23.87998917 8.11381744 24.58297638 8.1139679 25.30726624 C8.11327441 27.61763659 8.10550857 29.92792508 8.09765625 32.23828125 C8.09579006 33.84539241 8.09436711 35.45250415 8.09336853 37.05961609 C8.08955915 41.27968937 8.07974239 45.49972797 8.06866455 49.7197876 C8.05841643 54.02998384 8.05386363 58.3401857 8.04882812 62.65039062 C8.03811867 71.10027629 8.02106127 79.55013383 8 88 C4.06175709 84.98305938 1.65679375 82.19944818 -1 78 C-1.63421875 77.2678125 -2.2684375 76.535625 -2.921875 75.78125 C-5.34242061 72.5417228 -6.76859123 69.18563044 -8.1875 65.4375 C-8.44724609 64.77814453 -8.70699219 64.11878906 -8.97460938 63.43945312 C-14.68092878 48.76816679 -14.51867595 28.66792562 -8.5703125 14.0859375 C-6.06896697 9.17035798 -3.52373868 4.26931563 0 0 Z " fill="#2B3882" transform="translate(270,160)"/>
<path d="M0 0 C7.26 0 14.52 0 22 0 C22 12.87 22 25.74 22 39 C14.74 38.67 7.48 38.34 0 38 C0 25.46 0 12.92 0 0 Z " fill="#263982" transform="translate(368,179)"/>
<path d="M0 0 C0.99 0.495 0.99 0.495 2 1 C2 28.39 2 55.78 2 84 C7.28 84 12.56 84 18 84 C18 70.47 18 56.94 18 43 C18.33 43 18.66 43 19 43 C19 56.86 19 70.72 19 85 C7 87 7 87 2 87 C2 98.55 2 110.1 2 122 C7.61 122 13.22 122 19 122 C19 137.18 19 152.36 19 168 C18.67 168 18.34 168 18 168 C18 153.48 18 138.96 18 124 C12.72 124 7.44 124 2 124 C2 138.52 2 153.04 2 168 C1.67 168 1.34 168 1 168 C0.67 112.56 0.34 57.12 0 0 Z " fill="#C4C4F2" transform="translate(389,94)"/>
<path d="M0 0 C1.55879555 3.11759111 1.12952133 6.42514486 1.11352539 9.84619141 C1.11367142 10.65602982 1.11381744 11.46586823 1.1139679 12.30024719 C1.11326977 14.98404596 1.10548204 17.66777581 1.09765625 20.3515625 C1.09579171 22.20958417 1.09436798 24.06760633 1.09336853 25.92562866 C1.08954615 30.82142488 1.07971823 35.71719155 1.06866455 40.61297607 C1.05844444 45.60656331 1.05386962 50.60015532 1.04882812 55.59375 C1.03809573 65.39584842 1.02050117 75.19791713 1 85 C-5.93 85 -12.86 85 -20 85 C-19.505 84.01 -19.505 84.01 -19 83 C-12.73 83 -6.46 83 0 83 C0 56.6 0 30.2 0 3 C-11.22 3 -22.44 3 -34 3 C-34 18.51 -34 34.02 -34 50 C-34.33 50 -34.66 50 -35 50 C-35 33.83 -35 17.66 -35 1 C-29.59625 0.835 -24.1925 0.67 -18.625 0.5 C-16.92037598 0.44779297 -15.21575195 0.39558594 -13.45947266 0.34179688 C-12.11100334 0.30075719 -10.76253333 0.25974002 -9.4140625 0.21875 C-8.71176514 0.1971582 -8.00946777 0.17556641 -7.28588867 0.15332031 C-2.2281436 0 -2.2281436 0 0 0 Z " fill="#7C3484" transform="translate(389,94)"/>
<path d="M0 0 C5.94 0 11.88 0 18 0 C17.67 0.66 17.34 1.32 17 2 C12.38 2 7.76 2 3 2 C3 13.22 3 24.44 3 36 C8.61 36 14.22 36 20 36 C20.66 36.33 21.32 36.66 22 37 C21.67 37.66 21.34 38.32 21 39 C14.07 38.67 7.14 38.34 0 38 C0 25.46 0 12.92 0 0 Z " fill="#463081" transform="translate(368,179)"/>
<path d="M0 0 C13.86 0 27.72 0 42 0 C42 13.86 42 27.72 42 42 C41.67 42 41.34 42 41 42 C40.67 29.13 40.34 16.26 40 3 C20.695 2.505 20.695 2.505 1 2 C1 15.2 1 28.4 1 42 C0.67 42 0.34 42 0 42 C0 28.14 0 14.28 0 0 Z " fill="#6CBADA" transform="translate(408,136)"/>
<path d="M0 0 C12.21 0 24.42 0 37 0 C37 12.87 37 25.74 37 39 C36.67 39 36.34 39 36 39 C35.505 35.535 35.505 35.535 35 32 C34.67 32 34.34 32 34 32 C34 22.43 34 12.86 34 3 C23.11 2.67 12.22 2.34 1 2 C0.67 1.34 0.34 0.68 0 0 Z " fill="#59B9E3" transform="translate(451,178)"/>
<path d="M0 0 C0 0.99 0 1.98 0 3 C-11.22 3 -22.44 3 -34 3 C-34 18.51 -34 34.02 -34 50 C-34.33 50 -34.66 50 -35 50 C-35 33.83 -35 17.66 -35 1 C-29.59625 0.835 -24.1925 0.67 -18.625 0.5 C-16.92037598 0.44779297 -15.21575195 0.39558594 -13.45947266 0.34179688 C-12.11100334 0.30075719 -10.76253333 0.25974002 -9.4140625 0.21875 C-8.71176514 0.1971582 -8.00946777 0.17556641 -7.28588867 0.15332031 C-2.2281436 0 -2.2281436 0 0 0 Z " fill="#822D7F" transform="translate(389,94)"/>
<path d="M0 0 C1.23907104 0.00870117 1.23907104 0.00870117 2.50317383 0.01757812 C8.53744503 0.14582791 13.97705596 0.96277738 19.5625 3.375 C19.5625 4.365 19.5625 5.355 19.5625 6.375 C13.8125 5.5 13.8125 5.5 11.5625 4.375 C9.67777141 4.22155791 7.78822126 4.12540429 5.8984375 4.05859375 C4.77695313 4.01669922 3.65546875 3.97480469 2.5 3.93164062 C1.324375 3.89232422 0.14875 3.85300781 -1.0625 3.8125 C-2.24585938 3.76931641 -3.42921875 3.72613281 -4.6484375 3.68164062 C-7.57800328 3.57532574 -10.50765588 3.47329358 -13.4375 3.375 C-13.4375 4.035 -13.4375 4.695 -13.4375 5.375 C-16.0775 5.375 -18.7175 5.375 -21.4375 5.375 C-14.78387925 0.93925284 -7.87055278 -0.13474502 0 0 Z " fill="#67BCDE" transform="translate(231.4375,135.625)"/>
<path d="M0 0 C2.475 0.99 2.475 0.99 5 2 C5 2.99 5 3.98 5 5 C5.02861899 7.56147999 5.05931058 10.12289489 5.09179688 12.68432617 C5.10155045 13.4650499 5.11130402 14.24577362 5.12135315 15.05015564 C5.15364103 17.6310956 5.18619454 20.21203215 5.21875 22.79296875 C5.24118659 24.58230062 5.26360662 26.37163269 5.28601074 28.16096497 C5.34502892 32.8709636 5.40427229 37.58095937 5.46356201 42.29095459 C5.52402068 47.09696282 5.58426713 51.9029737 5.64453125 56.70898438 C5.76281273 66.13932554 5.88133202 75.56966369 6 85 C5.34 85 4.68 85 4 85 C3.99413376 84.09734909 3.98826752 83.19469818 3.98222351 82.26469421 C3.92408779 73.71787059 3.85189297 65.17130251 3.76428509 56.6247282 C3.71974098 52.23185279 3.68045066 47.83906671 3.65356445 43.44604492 C3.62737099 39.19888159 3.58685799 34.95206505 3.53681374 30.70511818 C3.52025267 29.09263263 3.50867192 27.48008725 3.50238609 25.86752892 C3.46380001 16.8706898 3.04518354 8.58503116 0 0 Z " fill="#59B4D9" transform="translate(240,178)"/>
<path d="M0 0 C0.66 0 1.32 0 2 0 C1.67 28.05 1.34 56.1 1 85 C-1.31 85 -3.62 85 -6 85 C-6 84.67 -6 84.34 -6 84 C-4.02 84 -2.04 84 0 84 C-0.01474869 82.96239029 -0.02949738 81.92478058 -0.04469299 80.85572815 C-0.18271508 71.09930083 -0.31545577 61.3428142 -0.4429636 51.58624363 C-0.5086953 46.56974282 -0.57631792 41.55328207 -0.64819336 36.53686523 C-0.71742837 31.69995605 -0.78178606 26.86300476 -0.84269524 22.02598381 C-0.86685729 20.17629559 -0.89280677 18.32662986 -0.92053413 16.47699165 C-0.95893227 13.89558561 -0.99109719 11.31417421 -1.02172852 8.73266602 C-1.03467453 7.96014999 -1.04762054 7.18763397 -1.06095886 6.39170837 C-1.07903932 4.59444833 -1.04519928 2.79678257 -1 1 C-0.67 0.67 -0.34 0.34 0 0 Z " fill="#8FCAE2" transform="translate(206,178)"/>
<path d="M0 0 C0.33 0 0.66 0 1 0 C1 14.19 1 28.38 1 43 C21.295 43.495 21.295 43.495 42 44 C42 44.33 42 44.66 42 45 C36.17944212 45.16721165 30.35875454 45.32781152 24.5378418 45.48217773 C22.55602051 45.53567894 20.57424788 45.5910143 18.5925293 45.64819336 C15.75059507 45.72987855 12.90855338 45.80505172 10.06640625 45.87890625 C9.17474258 45.90594131 8.28307892 45.93297638 7.36439514 45.96083069 C5.24352554 46.01275915 3.12147191 46.01188911 1 46 C0 45 0 45 -0.12025452 43.17137146 C-0.11803391 42.37417191 -0.11581329 41.57697235 -0.11352539 40.75561523 C-0.11344986 39.85475693 -0.11337433 38.95389862 -0.11329651 38.02574158 C-0.10813522 37.04658279 -0.10297394 36.06742401 -0.09765625 35.05859375 C-0.0962413 34.06118668 -0.09482635 33.0637796 -0.09336853 32.03614807 C-0.08775114 28.83656876 -0.07519571 25.63705831 -0.0625 22.4375 C-0.05748724 20.27408955 -0.05292395 18.11067801 -0.04882812 15.94726562 C-0.03777607 10.63148675 -0.02102104 5.31574829 0 0 Z " fill="#49A1C8" transform="translate(408,218)"/>
<path d="M0 0 C0.33 1.65 0.66 3.3 1 5 C12.55 5 24.1 5 36 5 C36 5.33 36 5.66 36 6 C30.90985861 6.16744386 25.81956506 6.32802081 20.72900391 6.48217773 C18.99652241 6.5356173 17.2640982 6.59094818 15.53173828 6.64819336 C13.04472202 6.73004993 10.5575805 6.80514988 8.0703125 6.87890625 C7.29317902 6.90594131 6.51604553 6.93297638 5.71536255 6.96083069 C0.22774341 7.11387171 0.22774341 7.11387171 -2 6 C-2 4.68 -2 3.36 -2 2 C-2.53109375 2.2165625 -3.0621875 2.433125 -3.609375 2.65625 C-4.31578125 2.9346875 -5.0221875 3.213125 -5.75 3.5 C-6.44609375 3.7784375 -7.1421875 4.056875 -7.859375 4.34375 C-10 5 -10 5 -14 5 C-14 4.01 -14 3.02 -14 2 C-9.07262981 0.02905192 -5.21979128 -0.1799928 0 0 Z " fill="#BE86BB" transform="translate(354,257)"/>
<path d="M0 0 C1.99954746 -0.04254356 4.00041636 -0.04080783 6 0 C6.33 0.33 6.66 0.66 7 1 C17.4270283 3.58154666 28.3226387 3.59907141 39 4 C39.33 3.34 39.66 2.68 40 2 C40 2.99 40 3.98 40 5 C28.14030111 8.95323296 11.1685154 5.8284935 0 1 C0 0.67 0 0.34 0 0 Z " fill="#B181AE" transform="translate(294,258)"/>
<path d="M0 0 C2.5625 1.625 2.5625 1.625 5 5 C4.67 9.62 4.34 14.24 4 19 C-6.23 19 -16.46 19 -27 19 C-27 18.67 -27 18.34 -27 18 C-12.15 17.505 -12.15 17.505 3 17 C2.00293775 8.3812725 2.00293775 8.3812725 0 0 Z " fill="#4EA5CE" transform="translate(274,244)"/>
<path d="M0 0 C1.32 0.33 2.64 0.66 4 1 C4 1.66 4 2.32 4 3 C7.58752742 4.86551426 11.27812193 6.42535928 15 8 C14.67 8.99 14.34 9.98 14 11 C12.576875 10.9690625 12.576875 10.9690625 11.125 10.9375 C8.09333717 10.77448174 8.09333717 10.77448174 6 12 C6.33 10.35 6.66 8.7 7 7 C6.401875 6.731875 5.80375 6.46375 5.1875 6.1875 C3.00152146 5.00082594 1.58667406 3.90400887 0 2 C0 1.34 0 0.68 0 0 Z " fill="#8D3C89" transform="translate(300,220)"/>
<path d="M0 0 C1.125 3.75 1.125 3.75 0 6 C-0.66 6 -1.32 6 -2 6 C-2.0825 6.7425 -2.165 7.485 -2.25 8.25 C-3.14597236 11.53523197 -4.51280722 12.74598154 -7 15 C-7.33 15.66 -7.66 16.32 -8 17 C-10 17 -12 17 -14 17 C-9.375 12.125 -9.375 12.125 -6 11 C-4.97348627 9.28480253 -4.97348627 9.28480253 -4 7 C-2.69413341 4.65044852 -1.3433489 2.32847143 0 0 Z " fill="#9F61A0" transform="translate(349,210)"/>
<path d="M0 0 C6.6 0 13.2 0 20 0 C20 7.26 20 14.52 20 22 C19.67 22 19.34 22 19 22 C19 15.4 19 8.8 19 2 C18.01 2.33 17.02 2.66 16 3 C15.67 2.67 15.34 2.34 15 2 C12.47403741 1.76346477 9.96892793 1.57826308 7.4375 1.4375 C6.72658203 1.39431641 6.01566406 1.35113281 5.28320312 1.30664062 C3.52238088 1.20028223 1.7612168 1.09961154 0 1 C0 0.67 0 0.34 0 0 Z " fill="#812C89" transform="translate(369,217)"/>
<path d="M0 0 C1.37478516 0.01740234 1.37478516 0.01740234 2.77734375 0.03515625 C3.69644531 0.04417969 4.61554688 0.05320313 5.5625 0.0625 C6.27277344 0.07410156 6.98304688 0.08570313 7.71484375 0.09765625 C7.71484375 0.42765625 7.71484375 0.75765625 7.71484375 1.09765625 C7.05097656 1.27941406 6.38710937 1.46117187 5.703125 1.6484375 C-1.20821994 3.49138657 -1.20821994 3.49138657 -7.28515625 7.09765625 C-8.6320554 9.66865027 -8.6320554 9.66865027 -9.28515625 12.09765625 C-10.44456663 8.6194251 -9.99336509 6.63870047 -9.28515625 3.09765625 C-7.83109375 2.63359375 -7.83109375 2.63359375 -6.34765625 2.16015625 C-0.13836726 0.00591313 -0.13836726 0.00591313 0 0 Z " fill="#6DBEE0" transform="translate(218.28515625,165.90234375)"/>
<path d="M0 0 C0 0.33 0 0.66 0 1 C-1.98 1 -3.96 1 -6 1 C-6 1.66 -6 2.32 -6 3 C-9.3 3 -12.6 3 -16 3 C-16 3.66 -16 4.32 -16 5 C-18.64 5 -21.28 5 -24 5 C-16.7213087 1.08615383 -8.18619136 -2.28451852 0 0 Z " fill="#9E5296" transform="translate(315,138)"/>
<path d="M0 0 C1.32 0.66 2.64 1.32 4 2 C0.125 5 0.125 5 -1 5 C-1 5.66 -1 6.32 -1 7 C-1.474375 7.45375 -1.94875 7.9075 -2.4375 8.375 C-4.22093737 10.22977487 -4.5691993 11.50135592 -5 14 C-6.4375 11.5 -6.4375 11.5 -7 8 C-5.02044532 4.97372189 -2.60129106 2.49977726 0 0 Z " fill="#813B94" transform="translate(278,150)"/>
<path d="M0 0 C1.99954746 -0.04254356 4.00041636 -0.04080783 6 0 C6.33 0.33 6.66 0.66 7 1 C9.01311449 1.39569108 11.03597208 1.74252191 13.0625 2.0625 C14.71958984 2.32740234 14.71958984 2.32740234 16.41015625 2.59765625 C17.26480469 2.73042969 18.11945313 2.86320312 19 3 C18.67 3.66 18.34 4.32 18 5 C11.44074057 4.61020794 6.05473373 3.57886807 0 1 C0 0.67 0 0.34 0 0 Z " fill="#A867A2" transform="translate(294,258)"/>
<path d="M0 0 C0.33 0 0.66 0 1 0 C0.84660156 0.91910156 0.69320313 1.83820313 0.53515625 2.78515625 C-0.206817 7.97896901 -0.35464583 13.20025636 -0.5625 18.4375 C-0.60568359 19.45521484 -0.64886719 20.47292969 -0.69335938 21.52148438 C-0.79868582 24.01421028 -0.90081672 26.50702338 -1 29 C-1.33 29 -1.66 29 -2 29 C-2.05794812 24.72922344 -2.09357874 20.45854764 -2.125 16.1875 C-2.14175781 14.97255859 -2.15851563 13.75761719 -2.17578125 12.50585938 C-2.18222656 11.34248047 -2.18867188 10.17910156 -2.1953125 8.98046875 C-2.20578613 7.90692139 -2.21625977 6.83337402 -2.22705078 5.72729492 C-2 3 -2 3 0 0 Z " fill="#2E90CA" transform="translate(259,179)"/>
<path d="M0 0 C1 3 1 3 0.22265625 4.82421875 C-0.8515625 6.54947917 -1.92578125 8.27473958 -3 10 C-3.66 10 -4.32 10 -5 10 C-5 11.65 -5 13.3 -5 15 C-5.99 15.33 -6.98 15.66 -8 16 C-6.65678452 9.68688724 -3.75248411 5.20391664 0 0 Z " fill="#1C4E94" transform="translate(270,160)"/>
<path d="M0 0 C0.99 0.99 1.98 1.98 3 3 C1.35821735 7.77609498 -1.26546702 11.79382904 -4 16 C-4.33 14.68 -4.66 13.36 -5 12 C-4.34 12 -3.68 12 -3 12 C-2.87625 11.319375 -2.7525 10.63875 -2.625 9.9375 C-1.90899123 6.5722588 -0.97054875 3.29986575 0 0 Z " fill="#329AD4" transform="translate(268,155)"/>
<path d="M0 0 C2.64 0 5.28 0 8 0 C8.84454356 3.37817425 9.10844919 5.67465243 8 9 C7.608125 8.2575 7.21625 7.515 6.8125 6.75 C4.86961158 3.80216929 2.83531533 2.06901389 0 0 Z " fill="#67BBE1" transform="translate(231,169)"/>
<path d="M0 0 C0 0.99 0 1.98 0 3 C1.32 3 2.64 3 4 3 C4.66 4.65 5.32 6.3 6 8 C4.39459341 7.21085079 2.79071984 6.41858235 1.1875 5.625 C0.29417969 5.18414062 -0.59914063 4.74328125 -1.51953125 4.2890625 C-4 3 -4 3 -7 1 C-4.50935112 0.31292445 -2.62113708 0 0 0 Z " fill="#A762A6" transform="translate(333,170)"/>
<path d="M0 0 C4.455 0.99 4.455 0.99 9 2 C9 2.99 9 3.98 9 5 C5.26512223 4.5020163 3.18762365 4.12508244 0 2 C0 1.34 0 0.68 0 0 Z " fill="#5BBBE0" transform="translate(242,137)"/>
<path d="M0 0 C2.475 0.99 2.475 0.99 5 2 C5 4.66666667 5 7.33333333 5 10 C4.67 9.01 4.34 8.02 4 7 C3.34 7 2.68 7 2 7 C1.34 4.69 0.68 2.38 0 0 Z " fill="#53B7E1" transform="translate(240,178)"/>
<path d="M0 0 C0.99 0.33 1.98 0.66 3 1 C2 4 2 4 0 5 C-0.72159424 6.64363134 -1.39351421 8.31050386 -2 10 C-3.16909807 6.49270578 -2.85056945 4.55692677 -2 1 C-1.34 0.67 -0.68 0.34 0 0 Z " fill="#5AB5DA" transform="translate(211,168)"/>
<path d="M0 0 C2.625 -0.1875 2.625 -0.1875 5 0 C5 0.66 5 1.32 5 2 C4.21625 2.061875 3.4325 2.12375 2.625 2.1875 C1.75875 2.455625 0.8925 2.72375 0 3 C-1.23290201 5.45704762 -1.23290201 5.45704762 -2 8 C-2.99 8.495 -2.99 8.495 -4 9 C-2.94124926 5.59687262 -1.99097846 2.98646769 0 0 Z " fill="#AF75AA" transform="translate(302,176)"/>
<path d="M0 0 C2.64 0.33 5.28 0.66 8 1 C8 1.66 8 2.32 8 3 C4.7 3 1.4 3 -2 3 C-1.34 2.01 -0.68 1.02 0 0 Z " fill="#883C84" transform="translate(318,169)"/>
<path d="M0 0 C2.5 2.3125 2.5 2.3125 5 5 C5 5.99 5 6.98 5 8 C1.59575156 6.86525052 0.78346291 6.03188696 -1 3 C-0.67 2.01 -0.34 1.02 0 0 Z " fill="#2B8FCB" transform="translate(266,234)"/>
<path d="M0 0 C1.31554985 0.4495045 2.62738358 0.90989716 3.9375 1.375 C5.03384766 1.75785156 5.03384766 1.75785156 6.15234375 2.1484375 C8 3 8 3 9 5 C8.01 5.33 7.02 5.66 6 6 C2.8125 4.1875 2.8125 4.1875 0 2 C0 1.34 0 0.68 0 0 Z " fill="#A875A3" transform="translate(341,141)"/>
<path d="M0 0 C0.99 0.33 1.98 0.66 3 1 C3 1.66 3 2.32 3 3 C3.99 3.33 4.98 3.66 6 4 C6 4.99 6 5.98 6 7 C5.34 7 4.68 7 4 7 C4 6.34 4 5.68 4 5 C2.68 4.34 1.36 3.68 0 3 C0 2.01 0 1.02 0 0 Z " fill="#90589C" transform="translate(278,246)"/>
<path d="M0 0 C1.32 0.33 2.64 0.66 4 1 C4 1.66 4 2.32 4 3 C5.32 3.66 6.64 4.32 8 5 C7.01 5.495 7.01 5.495 6 6 C3.4375 4.75 3.4375 4.75 1 3 C0.67 2.01 0.34 1.02 0 0 Z " fill="#915A92" transform="translate(300,220)"/>
<path d="M0 0 C0.33 0.99 0.66 1.98 1 3 C1.99 3 2.98 3 4 3 C3.34 4.32 2.68 5.64 2 7 C0.62437146 5.71034824 -0.70766393 4.37310707 -2 3 C-2 2.34 -2 1.68 -2 1 C-1.34 0.67 -0.68 0.34 0 0 Z " fill="#944A8E" transform="translate(341,175)"/>
<path d="M0 0 C1.98 0 3.96 0 6 0 C6 0.66 6 1.32 6 2 C6.66 2.33 7.32 2.66 8 3 C5.03 2.67 2.06 2.34 -1 2 C-0.67 1.34 -0.34 0.68 0 0 Z " fill="#31A5D7" transform="translate(222,164)"/>
<path d="M0 0 C1.32 0.66 2.64 1.32 4 2 C2.25 3.5625 2.25 3.5625 0 5 C-2.25 4.6875 -2.25 4.6875 -4 4 C-2.68 2.68 -1.36 1.36 0 0 Z " fill="#B05FB0" transform="translate(278,150)"/>
<path d="M0 0 C0.33 0.66 0.66 1.32 1 2 C0.34 2 -0.32 2 -1 2 C-1 2.66 -1 3.32 -1 4 C-3.64 4 -6.28 4 -9 4 C-6.06279492 2.47700477 -3.0831351 1.19899698 0 0 Z " fill="#A865A3" transform="translate(300,139)"/>
<path d="" fill="#FFFFFF" transform="translate(0,0)"/>
<path d="" fill="#FFFFFF" transform="translate(0,0)"/>
<path d="" fill="#FFFFFF" transform="translate(0,0)"/>
<path d="" fill="#FFFFFF" transform="translate(0,0)"/>
<path d="" fill="#FFFFFF" transform="translate(0,0)"/>
<path d="" fill="#FFFFFF" transform="translate(0,0)"/>
<path d="" fill="#FFFFFF" transform="translate(0,0)"/>
<path d="" fill="#FFFFFF" transform="translate(0,0)"/>
<path d="" fill="#FFFFFF" transform="translate(0,0)"/>
<path d="" fill="#FFFFFF" transform="translate(0,0)"/>
<path d="" fill="#FFFFFF" transform="translate(0,0)"/>
<path d="" fill="#FFFFFF" transform="translate(0,0)"/>
<path d="" fill="#FFFFFF" transform="translate(0,0)"/>
<path d="" fill="#FFFFFF" transform="translate(0,0)"/>
<path d="" fill="#FFFFFF" transform="translate(0,0)"/>
<path d="" fill="#FFFFFF" transform="translate(0,0)"/>
<path d="" fill="#FFFFFF" transform="translate(0,0)"/>
<path d="" fill="#FFFFFF" transform="translate(0,0)"/>
<path d="" fill="#FFFFFF" transform="translate(0,0)"/>
<path d="" fill="#FFFFFF" transform="translate(0,0)"/>
<path d="" fill="#FFFFFF" transform="translate(0,0)"/>
<path d="" fill="#FFFFFF" transform="translate(0,0)"/>
<path d="" fill="#FFFFFF" transform="translate(0,0)"/>
<path d="" fill="#FFFFFF" transform="translate(0,0)"/>
<path d="" fill="#FFFFFF" transform="translate(0,0)"/>
<path d="" fill="#FFFFFF" transform="translate(0,0)"/>
<path d="" fill="#FFFFFF" transform="translate(0,0)"/>
<path d="" fill="#FFFFFF" transform="translate(0,0)"/>
<path d="" fill="#FFFFFF" transform="translate(0,0)"/>
<path d="" fill="#FFFFFF" transform="translate(0,0)"/>
<path d="" fill="#FFFFFF" transform="translate(0,0)"/>
<path d="" fill="#FFFFFF" transform="translate(0,0)"/>
<path d="" fill="#FFFFFF" transform="translate(0,0)"/>
<path d="" fill="#FFFFFF" transform="translate(0,0)"/>
<path d="" fill="#FFFFFF" transform="translate(0,0)"/>
<path d="" fill="#FFFFFF" transform="translate(0,0)"/>
<path d="" fill="#FFFFFF" transform="translate(0,0)"/>
<path d="" fill="#FFFFFF" transform="translate(0,0)"/>
<path d="" fill="#FFFFFF" transform="translate(0,0)"/>
<path d="" fill="#FFFFFF" transform="translate(0,0)"/>
<path d="" fill="#FFFFFF" transform="translate(0,0)"/>
<path d="" fill="#FFFFFF" transform="translate(0,0)"/>
<path d="" fill="#FFFFFF" transform="translate(0,0)"/>
<path d="" fill="#FFFFFF" transform="translate(0,0)"/>
<path d="" fill="#FFFFFF" transform="translate(0,0)"/>
<path d="" fill="#FFFFFF" transform="translate(0,0)"/>
<path d="" fill="#FFFFFF" transform="translate(0,0)"/>
<path d="" fill="#FFFFFF" transform="translate(0,0)"/>
<path d="" fill="#FFFFFF" transform="translate(0,0)"/>
<path d="" fill="#FFFFFF" transform="translate(0,0)"/>
<path d="" fill="#FFFFFF" transform="translate(0,0)"/>
<path d="" fill="#FFFFFF" transform="translate(0,0)"/>
<path d="" fill="#FFFFFF" transform="translate(0,0)"/>
<path d="" fill="#FFFFFF" transform="translate(0,0)"/>
<path d="" fill="#FFFFFF" transform="translate(0,0)"/>
<path d="" fill="#FFFFFF" transform="translate(0,0)"/>
<path d="" fill="#FFFFFF" transform="translate(0,0)"/>
<path d="" fill="#FFFFFF" transform="translate(0,0)"/>
<path d="" fill="#FFFFFF" transform="translate(0,0)"/>
<path d="" fill="#FFFFFF" transform="translate(0,0)"/>
<path d="" fill="#FFFFFF" transform="translate(0,0)"/>
<path d="" fill="#FFFFFF" transform="translate(0,0)"/>
<path d="" fill="#FFFFFF" transform="translate(0,0)"/>
<path d="" fill="#FFFFFF" transform="translate(0,0)"/>
<path d="" fill="#FFFFFF" transform="translate(0,0)"/>
</svg>
