<?xml version="1.0" encoding="UTF-8"?>
<svg version="1.1" xmlns="http://www.w3.org/2000/svg" width="849" height="603">
<path d="M0 0 C4.87476531 4.44397209 7.99782698 10.93003253 9.25 17.375 C9.3447939 19.83609919 9.38769818 22.26846382 9.38142776 24.72931194 C9.38450672 25.84904965 9.38450672 25.84904965 9.38764787 26.99140832 C9.39332745 29.50679576 9.39185943 32.02212862 9.39044189 34.53752136 C9.39302498 36.35359695 9.39603798 38.16967197 9.3994453 39.9857462 C9.4075252 44.98743018 9.40930542 49.98909981 9.41004276 54.99078953 C9.4118916 60.38085702 9.41943809 65.77091704 9.42617798 71.16098022 C9.43976893 82.95229291 9.44578723 94.74360219 9.45018864 106.53492141 C9.45294981 113.89539077 9.45718694 121.25585881 9.46169281 128.61632729 C9.47388655 148.98921597 9.48418561 169.36210359 9.4875679 189.73499584 C9.48778747 191.03930786 9.48800703 192.34361988 9.48823325 193.68745651 C9.48845153 194.99491704 9.48866981 196.30237757 9.4888947 197.64945811 C9.48933817 200.29893887 9.48978473 202.94841963 9.49023438 205.59790039 C9.4904558 206.91213871 9.49067723 208.22637702 9.49090537 209.58044074 C9.49485378 230.8780968 9.51230865 252.1757076 9.5355939 273.4733518 C9.55929919 295.33135312 9.57176938 317.18933727 9.57293582 339.04735166 C9.57385305 351.32301623 9.57961746 363.59863625 9.59775543 375.87428856 C9.61314532 386.32701487 9.61828345 396.77968284 9.61001733 407.23241832 C9.60610688 412.56613187 9.60705976 417.89972791 9.62107468 423.23342705 C9.63378974 428.11707328 9.63263708 433.0005134 9.62048396 437.88415924 C9.61852282 439.65000435 9.62162464 441.41586394 9.63032833 443.18168869 C9.68572476 455.18129992 9.4155428 465.54198198 0.82421875 474.93359375 C-4.928267 480.438956 -11.80005029 482.98356354 -19.65234375 483.76171875 C-26.70357112 483.5962515 -33.30558261 481.00013264 -39.9375 478.8125 C-41.55339718 478.29036911 -43.16962308 477.76925477 -44.78613281 477.24902344 C-50.78116364 475.31249652 -56.76529292 473.34315208 -62.75 471.375 C-64.67928543 470.74174061 -66.60857295 470.10848754 -68.53792572 469.47543335 C-80.35140705 465.59921845 -92.16368294 461.71933048 -103.97216797 457.82791901 C-121.56005946 452.03204036 -139.16171542 446.28962933 -156.8125 440.6875 C-180.6313321 433.12556022 -204.35410232 425.27623274 -228.08345795 417.43920135 C-249.67395329 410.30893848 -271.26368413 403.18636242 -292.9375 396.3125 C-315.07545511 389.2903384 -337.13166396 382.02509339 -359.1875 374.75 C-360.08924202 374.45257149 -360.99098404 374.15514297 -361.92005157 373.84870148 C-366.40106398 372.37065293 -370.88203415 370.89247633 -375.36300659 369.41430664 C-376.66109568 368.98610626 -376.66109568 368.98610626 -377.98540878 368.54925537 C-379.71488177 367.97874566 -381.44434602 367.4082095 -383.17380142 366.83764648 C-400.55491015 361.10386939 -417.95330868 355.42454746 -435.36245728 349.77651978 C-441.72411798 347.71136867 -448.0812394 345.63248689 -454.4375 343.55078125 C-458.56242307 342.20028573 -462.68742059 340.8500179 -466.8125 339.5 C-467.8245047 339.16878143 -468.8365094 338.83756287 -469.87918091 338.49630737 C-481.69749923 334.63052876 -493.52522851 330.79621917 -505.37109375 327.015625 C-506.49564468 326.65665131 -507.62019562 326.29767761 -508.77882385 325.92782593 C-514.17412193 324.20664001 -519.5706495 322.48943808 -524.96899414 320.77783203 C-530.56989476 318.99889281 -536.16394226 317.20002303 -541.75 315.375 C-542.59001556 315.10084259 -543.43003113 314.82668518 -544.29550171 314.54421997 C-546.64316344 313.77070484 -548.98451398 312.980811 -551.32421875 312.18359375 C-551.99819702 311.96186493 -552.67217529 311.74013611 -553.36657715 311.51168823 C-560.64892891 308.98063833 -566.2118319 304.571165 -570.203125 297.97265625 C-573.27102988 291.48036459 -573.89856445 285.3411711 -573.89044189 278.21028137 C-573.89341302 277.39227088 -573.89638414 276.57426039 -573.8994453 275.7314617 C-573.90811134 272.99259493 -573.90963878 270.25377197 -573.91113281 267.51489258 C-573.91576249 265.55010892 -573.92078736 263.58532615 -573.92617798 261.62054443 C-573.93929014 256.28356276 -573.94574472 250.94659366 -573.95018864 245.6095984 C-573.95312148 242.27353576 -573.95722671 238.93747655 -573.96169281 235.60141563 C-573.97536508 225.15869246 -573.98503287 214.71597713 -573.9888947 204.27324563 C-573.99337388 192.22802835 -574.01091649 180.18292462 -574.0398953 168.13774186 C-574.06152952 158.82121131 -574.07159993 149.50471266 -574.07293582 140.18815726 C-574.07398266 134.62667866 -574.07986482 129.06530685 -574.09775543 123.50385475 C-574.11426598 118.26961321 -574.11637708 113.0355584 -574.10761642 107.80130005 C-574.10684763 105.88493537 -574.11116788 103.96856053 -574.12107468 102.0522213 C-574.23553057 78.52398181 -574.23553057 78.52398181 -566.75 69.375 C-560.77051368 63.43926602 -555.00279297 60.26374108 -546.53716087 59.14776325 C-545.84398857 59.05345181 -545.15081626 58.95914037 -544.43663873 58.86197101 C-542.1569595 58.55456102 -539.87558885 58.26265205 -537.59384155 57.97102356 C-535.97386936 57.75613741 -534.35401108 57.54039093 -532.73426187 57.32383043 C-528.54974667 56.76745981 -524.36359477 56.2247294 -520.17664093 55.68704894 C-517.87855978 55.39153188 -515.5808423 55.09336893 -513.28326082 54.79399467 C-503.74027321 53.55135286 -494.19339616 52.34076367 -484.64502931 51.14023912 C-480.45895362 50.6133913 -476.27321684 50.08386226 -472.08743286 49.55470276 C-464.85301148 48.64048851 -457.61839088 47.72786556 -450.38362503 46.81638145 C-439.78698833 45.48133275 -429.19069068 44.14360776 -418.59446351 42.80531297 C-401.2091873 40.60962873 -383.8236704 38.41585647 -366.43798828 36.22338867 C-349.8903641 34.13660079 -333.34281897 32.04918838 -316.79541016 29.96069336 C-315.78775814 29.83351621 -314.78010612 29.70633907 -313.74191919 29.57530807 C-302.6116957 28.17053218 -291.48149954 26.76553995 -280.3513298 25.36033821 C-276.33486783 24.8532649 -272.31840457 24.3462018 -268.30194092 23.83914185 C-267.31177832 23.71413512 -266.32161572 23.5891284 -265.3014482 23.4603336 C-252.41397762 21.83335348 -239.52631354 20.20791656 -226.63845992 18.58397353 C-216.97015564 17.36570398 -207.3019412 16.14672242 -197.63378906 14.92724609 C-196.6949574 14.80883388 -195.75612575 14.69042167 -194.78884465 14.56842121 C-170.34194478 11.48464351 -145.89826954 8.37708437 -121.45956517 5.22899755 C-116.10027296 4.53864851 -110.74080492 3.84968088 -105.38120842 3.16169834 C-103.90694523 2.9724226 -102.43268207 2.78314652 -100.95841897 2.5938701 C-98.79506509 2.31613126 -96.6317083 2.03841527 -94.46834074 1.76078308 C-85.67986749 0.63278285 -76.89258253 -0.50378229 -68.10637856 -1.64934015 C-63.25318902 -2.28025543 -58.39904347 -2.90355311 -53.54460382 -3.52476907 C-51.35011473 -3.80727706 -49.1560418 -4.09304247 -46.96246099 -4.38251853 C-11.96289747 -8.99773485 -11.96289747 -8.99773485 0 0 Z M-456.75 133.375 C-456.92015625 132.48296875 -457.0903125 131.5909375 -457.265625 130.671875 C-457.50796875 129.50140625 -457.7503125 128.3309375 -458 127.125 C-458.34804688 125.38476562 -458.34804688 125.38476562 -458.703125 123.609375 C-459.83675495 120.10696604 -460.88804238 118.63444022 -463.75 116.375 C-469.00381528 114.62372824 -474.56292673 115.06311456 -480.0625 115 C-481.28646484 114.96261719 -482.51042969 114.92523438 -483.77148438 114.88671875 C-485.54942383 114.86931641 -485.54942383 114.86931641 -487.36328125 114.8515625 C-488.44391846 114.83174316 -489.52455566 114.81192383 -490.63793945 114.79150391 C-493.8816057 115.39967542 -495.98598347 116.30978091 -498.47395229 118.49872398 C-501.34582863 122.72147574 -500.55579853 128.25380959 -500.49462891 133.1640625 C-500.50193024 134.46373962 -500.50923157 135.76341675 -500.51675415 137.10247803 C-500.53553834 140.66065207 -500.516753 144.21772254 -500.49008989 147.77581024 C-500.46742501 151.50239689 -500.47567865 155.22893062 -500.47958374 158.95556641 C-500.4813486 165.21339913 -500.4592115 171.47079811 -500.42236328 177.72851562 C-500.38002882 184.95924521 -500.37300855 192.18933951 -500.3854872 199.42016792 C-500.39688432 206.38116961 -500.38557185 213.34194799 -500.36314011 220.30291748 C-500.35386093 223.2629612 -500.35209479 226.22286807 -500.3563118 229.18292236 C-500.36078546 233.31759809 -500.33183433 237.45138738 -500.29931641 241.5859375 C-500.30427124 242.81310486 -500.30922607 244.04027222 -500.31433105 245.30462646 C-500.29455547 251.76775468 -500.29455547 251.76775468 -497.84066772 257.61181641 C-494.11850555 260.75093565 -490.97591519 260.56508203 -486.29296875 260.61328125 C-485.18300285 260.62538887 -485.18300285 260.62538887 -484.0506134 260.63774109 C-482.48290345 260.65157883 -480.91516341 260.66230238 -479.34741211 260.67016602 C-476.95693368 260.68736022 -474.56784541 260.73124349 -472.17773438 260.77539062 C-470.65365599 260.78551956 -469.12956586 260.79403503 -467.60546875 260.80078125 C-466.89384079 260.81828934 -466.18221283 260.83579742 -465.44902039 260.85383606 C-461.82728869 260.83811258 -459.88883436 260.46515263 -456.8215332 258.47338867 C-453.47106041 255.07948017 -453.615919 252.98705391 -453.57641602 248.31152344 C-453.56292618 247.03549255 -453.54943634 245.75946167 -453.53553772 244.44476318 C-453.53047777 243.75960381 -453.52541782 243.07444443 -453.52020454 242.36852264 C-453.50374848 240.2137155 -453.4804987 238.05907958 -453.45530701 235.90435791 C-453.38473161 229.7761703 -453.32501549 223.64790525 -453.27319336 217.51953125 C-453.24100226 213.76938031 -453.19961293 210.01941478 -453.15299797 206.26941681 C-453.13718886 204.85198637 -453.12477278 203.43451319 -453.11609077 202.01702118 C-452.95647219 176.2853248 -452.95647219 176.2853248 -446.75 165.375 C-446.41355469 164.73949219 -446.07710937 164.10398438 -445.73046875 163.44921875 C-442.42976239 158.00247009 -437.59910902 155.58669435 -431.75 153.375 C-423.77192776 151.44166348 -416.20851859 151.77633734 -408.75 155.375 C-404.16062519 158.86691562 -402.28174779 162.92580506 -400.75 168.375 C-400.36794734 171.1908261 -400.34153274 173.95259563 -400.36523438 176.79125977 C-400.3598616 177.59073029 -400.35448883 178.39020081 -400.34895325 179.21389771 C-400.33923219 180.9352891 -400.33621378 182.65672916 -400.33930969 184.37814522 C-400.34381729 187.10714453 -400.32970605 189.8355055 -400.31091309 192.56443787 C-400.26805738 199.33792993 -400.25689286 206.11140594 -400.24468994 212.88500977 C-400.23313977 218.62056537 -400.20952262 224.35582782 -400.16999817 230.09126091 C-400.15647509 232.77178841 -400.16058927 235.45191361 -400.16540527 238.13246155 C-400.15606108 239.78435776 -400.14589136 241.43624959 -400.13476562 243.08813477 C-400.14091385 243.82651077 -400.14706207 244.56488678 -400.15339661 245.32563782 C-400.09299193 250.4542137 -399.0616456 253.89261038 -396.75 258.375 C-393.45952458 261.08450158 -389.40291243 260.68121444 -385.31640625 260.67578125 C-384.60145493 260.68006638 -383.8865036 260.6843515 -383.14988708 260.68876648 C-381.64119524 260.69449654 -380.13247577 260.6950198 -378.6237793 260.69067383 C-376.32357339 260.68751521 -374.02465629 260.71098258 -371.72460938 260.73632812 C-370.25520995 260.73860151 -368.78580708 260.73930443 -367.31640625 260.73828125 C-366.29118614 260.75209587 -366.29118614 260.75209587 -365.24525452 260.76618958 C-360.90658982 260.72444601 -358.19207501 260.03767833 -354.75 257.375 C-352.2296062 253.59440931 -352.46155482 250.58958632 -352.4753418 246.21020508 C-352.47023087 245.37715347 -352.46511993 244.54410187 -352.45985413 243.68580627 C-352.44591975 240.92197535 -352.44691997 238.15839323 -352.44921875 235.39453125 C-352.44532948 233.46416634 -352.44099433 231.53380229 -352.43623352 229.60343933 C-352.42875984 225.54557535 -352.42906765 221.4877983 -352.43432617 217.42993164 C-352.44007493 212.2714767 -352.42330774 207.11338621 -352.3999815 201.95499134 C-352.38511175 197.95938592 -352.38439108 193.96386512 -352.38749123 189.96823692 C-352.38698306 188.06955948 -352.38184181 186.17087665 -352.37167931 184.27222633 C-352.27119676 162.84314279 -354.68856844 142.71696406 -369.7421875 126.1875 C-381.27706624 115.03289199 -395.46782374 111.99770828 -410.9309082 112.07421875 C-429.33505321 112.50315731 -444.03332299 120.24138276 -456.75 133.375 Z M-165.75 135.375 C-180.75490471 152.27396645 -186.01215046 172.86782667 -184.91845703 195.09863281 C-183.38343326 215.84147578 -174.44950674 233.47979535 -159.40625 247.5703125 C-142.06832064 262.37510283 -120.60071372 264.44924654 -98.75 263.375 C-81.61878292 261.70848117 -66.56511827 253.73316705 -55.625 240.5 C-51.44605181 235.482249 -51.44605181 235.482249 -49.3125 229.5 C-50.03358115 224.34942033 -54.11730662 221.79961949 -58.0546875 218.734375 C-59.24113363 217.85960015 -60.43129988 216.98984998 -61.625 216.125 C-62.21152344 215.67898438 -62.79804687 215.23296875 -63.40234375 214.7734375 C-67.41526998 211.86296353 -70.63117355 210.28086066 -75.75 210.375 C-78.70128658 212.07928587 -78.70128658 212.07928587 -81.25 214.625 C-89.73549501 222.11083395 -97.18072846 223.70388242 -108.39453125 223.58984375 C-115.98254502 223.10399886 -123.32313503 220.90827409 -128.75 215.375 C-136.43489219 205.51513832 -138.89851997 193.67373473 -137.75 181.375 C-136.39146761 172.37472291 -133.65469225 164.67006948 -126.67578125 158.55859375 C-117.74163271 152.08796261 -108.09092333 151.52723402 -97.3671875 152.6171875 C-90.46527201 153.79556332 -85.02555636 157.43852815 -79.86328125 162.06640625 C-76.84280461 163.93675685 -75.26884723 163.92350137 -71.75 163.375 C-68.8405172 161.93732084 -66.25947067 160.13665247 -63.625 158.25 C-62.92246094 157.775625 -62.21992187 157.30125 -61.49609375 156.8125 C-57.27413693 153.85952453 -54.03223339 151.12451272 -51.75 146.375 C-51.82937825 139.44263242 -56.2283673 135.2030574 -60.75 130.375 C-75.96350042 115.95148034 -94.3193989 111.90431157 -114.625 112.16015625 C-134.11150353 112.73857201 -152.27661158 121.4496289 -165.75 135.375 Z M-313.625 130.8125 C-322.66132724 140.54060349 -325.57289585 151.21816058 -325.09375 164.3359375 C-324.42670503 174.3559059 -321.11568324 183.40488123 -313.75 190.375 C-300.14043496 200.87440371 -284.81111633 203.2597584 -268.33203125 206.15234375 C-267.65938232 206.27536865 -266.9867334 206.39839355 -266.29370117 206.52514648 C-264.50264272 206.85172579 -262.70843701 207.16091148 -260.9140625 207.46875 C-257.22850449 208.52436661 -254.73495811 209.97998936 -251.75 212.375 C-250.7783781 215.77567665 -250.51356171 218.15903164 -251.1875 221.625 C-254.18144596 224.97821948 -258.79214396 226.13891674 -263.1472168 226.6640625 C-265.73044343 226.77773361 -268.28962125 226.790737 -270.875 226.75 C-272.25606934 226.73694824 -272.25606934 226.73694824 -273.66503906 226.72363281 C-285.65196939 226.46823541 -296.20255054 223.93255844 -306.80859375 218.27734375 C-309.64356417 216.95968144 -311.66011289 216.99664648 -314.75 217.375 C-319.13825496 220.30767366 -321.75974669 223.82714335 -324.5625 228.1875 C-324.96919922 228.77853516 -325.37589844 229.36957031 -325.79492188 229.97851562 C-328.52143068 234.18054684 -329.53030296 237.24644393 -328.75 242.375 C-322.53191243 252.78386678 -306.84478282 257.35918058 -295.75 260.375 C-292.09608704 261.23977524 -288.47292917 261.89281339 -284.75 262.375 C-283.8940625 262.48585938 -283.038125 262.59671875 -282.15625 262.7109375 C-260.71137795 265.04464416 -238.71352923 263.30179383 -220.75 250.375 C-211.95735598 242.68809758 -206.53744877 232.68809604 -205.546875 220.97265625 C-205.31823213 208.60688774 -207.48025022 196.92981145 -215.75 187.375 C-227.82757402 176.26743586 -242.51506766 173.29559714 -258.03955078 169.96142578 C-262.01637288 169.10101084 -265.98040895 168.19676314 -269.9375 167.25 C-271.18917969 166.95867187 -272.44085938 166.66734375 -273.73046875 166.3671875 C-276.65914186 165.40485507 -278.0183334 164.88653064 -279.75 162.375 C-280.26126266 158.35793626 -280.43398851 156.27126081 -277.9375 153 C-270.89087667 147.76536552 -258.09157716 149.80152567 -249.75 150.375 C-243.97027379 151.2684238 -238.78954754 153.33498258 -233.6015625 155.98046875 C-230.2551492 157.61700238 -228.42468988 158.00047913 -224.75 157.375 C-222.61828257 155.74816302 -221.38274598 154.45385144 -219.75 152.375 C-219.07195312 151.52679688 -218.39390625 150.67859375 -217.6953125 149.8046875 C-212.59877597 143.28865757 -212.59877597 143.28865757 -210.75 135.375 C-214.281875 127.07509376 -223.78832591 123.0860245 -231.625 119.625 C-257.98473406 109.3250525 -292.14744758 110.57935513 -313.625 130.8125 Z " fill="#F15F47" transform="translate(697.75,67.625)"/>
<path d="M0 0 C0.66 0.33 1.32 0.66 2 1 C-0.97 3.97 -3.94 6.94 -7 10 C-7 6.04435836 -5.59478606 4.89133304 -3 2 C-2.01 1.34 -1.02 0.68 0 0 Z " fill="#F48C8E" transform="translate(259,223)"/>
</svg>
