<?xml version="1.0" encoding="UTF-8"?>
<svg version="1.1" xmlns="http://www.w3.org/2000/svg" width="612" height="408">
<path d="M0 0 C3.13416346 0.00538012 6.26818445 0.00000075 9.40234375 -0.00634766 C27.55378085 -0.01497447 45.39674901 0.38658948 63.31640625 3.44287109 C64.57904297 3.64332031 65.84167969 3.84376953 67.14257812 4.05029297 C88.26377367 7.5398818 110.15383003 13.3131706 123.50390625 31.31787109 C130.65369185 41.51601489 136.67445733 51.66042992 141.50390625 63.13037109 C141.95624634 64.11179077 141.95624634 64.11179077 142.41772461 65.11303711 C144.90553877 70.51446321 146.84527831 75.94276232 148.56640625 81.63037109 C149.05656011 83.22434624 149.54744344 84.81809725 150.0390625 86.41162109 C150.27778076 87.19102051 150.51649902 87.97041992 150.76245117 88.7734375 C151.51128963 91.15384134 152.31143768 93.51223033 153.12109375 95.87255859 C154.22253306 99.15002962 155.03361326 102.33101226 155.56640625 105.75537109 C156.07157164 108.7780136 156.63107685 111.55957188 157.50390625 114.50537109 C159.0115178 119.97046296 159.716684 125.52217536 160.50390625 131.13037109 C160.68050781 132.34595703 160.85710937 133.56154297 161.0390625 134.81396484 C165.37226086 165.65991765 168.44045839 202.64007874 149.08203125 229.07177734 C147.94512172 230.47186037 146.72859301 231.80638541 145.50390625 233.13037109 C144.80265625 233.91412109 144.10140625 234.69787109 143.37890625 235.50537109 C141.50390625 237.13037109 141.50390625 237.13037109 138.50390625 237.13037109 C137.84390625 238.45037109 137.18390625 239.77037109 136.50390625 241.13037109 C135.84390625 241.13037109 135.18390625 241.13037109 134.50390625 241.13037109 C134.50390625 241.79037109 134.50390625 242.45037109 134.50390625 243.13037109 C129.09214154 247.13037109 129.09214154 247.13037109 126.50390625 247.13037109 C126.50390625 247.79037109 126.50390625 248.45037109 126.50390625 249.13037109 C124.32808687 250.76985405 122.16031111 252.2750299 119.87890625 253.75537109 C119.20174561 254.19977539 118.52458496 254.64417969 117.8269043 255.10205078 C90.07142118 273.13037109 90.07142118 273.13037109 83.50390625 273.13037109 C83.50390625 273.79037109 83.50390625 274.45037109 83.50390625 275.13037109 C82.82328125 275.39849609 82.14265625 275.66662109 81.44140625 275.94287109 C75.23592452 278.45147009 69.27083105 281.20605597 63.31640625 284.25537109 C58.46988581 286.7280161 53.7701295 288.94681129 48.5390625 290.50146484 C46.31494723 291.18876342 44.21411924 292.04526516 42.06640625 292.94287109 C36.50123053 295.21437139 30.81150959 297.0731842 25.09985352 298.9362793 C21.44706957 300.13146668 17.83034644 301.3691728 14.2421875 302.74755859 C11.38204057 303.80554398 8.79242863 304.62627164 5.81640625 305.19287109 C2.51864056 305.87380906 -0.37622261 306.85042396 -3.49609375 308.13037109 C-18.04382328 311.92966653 -32.78131912 314.97818047 -47.62109375 317.38037109 C-49.11080688 317.624729 -49.11080688 317.624729 -50.63061523 317.87402344 C-63.0620829 319.81963859 -75.42004172 320.31699288 -87.97875977 320.31567383 C-90.29527233 320.31785853 -92.61130547 320.33609187 -94.92773438 320.35498047 C-107.98487368 320.4053202 -121.0108599 319.6127647 -133.62109375 315.94287109 C-134.36552734 315.72928955 -135.10996094 315.51570801 -135.87695312 315.2956543 C-161.9216639 307.43935307 -176.75706723 288.69629933 -189.3828125 265.69287109 C-190.81646075 262.86320315 -192.17365933 260.0135164 -193.49609375 257.13037109 C-194.01816406 256.02951172 -194.54023438 254.92865234 -195.078125 253.79443359 C-197.80994814 247.9851552 -200.41514084 242.20335611 -202.49609375 236.13037109 C-203.02976562 234.62216797 -203.02976562 234.62216797 -203.57421875 233.08349609 C-212.31694253 207.74066387 -219.20031598 180.87791265 -221.49609375 154.13037109 C-221.58342773 153.16534668 -221.67076172 152.20032227 -221.76074219 151.20605469 C-224.49431867 120.56146575 -227.8181003 81.57392252 -207.71875 55.68896484 C-197.62052582 44.06447128 -184.62682987 35.82163929 -170.4921875 29.96630859 C-169.01638224 29.34826099 -167.55170883 28.7034784 -166.09375 28.04443359 C-158.68093864 24.77988553 -151.1249493 22.41076044 -143.35083008 20.18579102 C-142.52220459 19.94707275 -141.6935791 19.70835449 -140.83984375 19.46240234 C-140.09927734 19.25333252 -139.35871094 19.0442627 -138.59570312 18.82885742 C-136.46780453 18.1784961 -136.46780453 18.1784961 -134.48242188 17.1081543 C-132.42297963 16.09438018 -130.61619937 15.60686842 -128.37109375 15.15380859 C-125.12864006 14.47543227 -121.90345335 13.7609737 -118.68359375 12.98193359 C-99.93358969 8.51592142 -81.02073642 5.61420514 -61.90982056 3.20779419 C-59.90379743 2.95487439 -57.8985316 2.69596963 -55.89331055 2.43676758 C-37.33091499 0.18414535 -18.67876254 -0.03798872 0 0 Z M19.50390625 66.13037109 C18.76914062 66.23752441 18.034375 66.34467773 17.27734375 66.45507812 C-0.55238501 69.08588218 -18.03993992 72.65174195 -35.49609375 77.13037109 C-36.15258911 77.2978183 -36.80908447 77.4652655 -37.48547363 77.63778687 C-52.38866419 81.45458852 -66.0039541 86.36829024 -79.74609375 93.19287109 C-80.43219727 93.53350586 -81.11830078 93.87414062 -81.82519531 94.22509766 C-91.56276114 99.11053005 -98.94406531 104.93382739 -103.49609375 115.13037109 C-104.33913537 120.50876319 -103.04467433 124.96843582 -101.49609375 130.13037109 C-101.16072428 131.95965912 -100.85079257 133.79369279 -100.55859375 135.63037109 C-98.69097075 147.11908228 -96.30627326 158.20470973 -93.05859375 169.38037109 C-92.77024658 170.37391602 -92.48189941 171.36746094 -92.18481445 172.39111328 C-90.43724731 178.2857898 -88.49086263 184.0708817 -86.34350586 189.83203125 C-85.68283274 191.6239001 -85.0781502 193.4364447 -84.49609375 195.25537109 C-82.08263392 202.19406811 -78.7472897 208.74189554 -75.49609375 215.31787109 C-74.99795166 216.33373291 -74.99795166 216.33373291 -74.48974609 217.37011719 C-72.42380768 221.50910045 -70.26755084 225.41777336 -67.49609375 229.13037109 C-66.83609375 229.13037109 -66.17609375 229.13037109 -65.49609375 229.13037109 C-65.398125 229.69111328 -65.30015625 230.25185547 -65.19921875 230.82958984 C-63.70627284 235.71484064 -60.55940477 239.14902687 -56.49609375 242.13037109 C-53.59741037 242.45536111 -53.59741037 242.45536111 -50.51953125 241.95068359 C-49.37291016 241.82121338 -48.22628906 241.69174316 -47.04492188 241.55834961 C-45.28825195 241.34650024 -45.28825195 241.34650024 -43.49609375 241.13037109 C-41.3069416 240.96250815 -39.11677702 240.80731119 -36.92578125 240.66552734 C-35.84425781 240.58753906 -34.76273437 240.50955078 -33.6484375 240.42919922 C-31.45604529 240.27110657 -29.26332588 240.11749044 -27.0703125 239.96826172 C-20.90994074 239.51561792 -14.95226368 238.74658215 -8.89013672 237.56518555 C-5.96715161 237.03430277 -3.08716065 236.82407781 -0.12109375 236.69287109 C5.5463817 236.31771905 10.78607989 235.24403127 16.2890625 233.87646484 C19.34078835 233.16822713 22.33892892 232.67898633 25.44140625 232.25537109 C52.76970008 229.07033868 52.76970008 229.07033868 75.50390625 216.13037109 C77.39992217 210.42691517 76.54937522 204.11743066 76.37890625 198.19287109 C76.35945953 197.49918427 76.34001282 196.80549744 76.31997681 196.09078979 C75.94980957 184.19825852 74.79304786 172.47910472 73.19140625 160.69287109 C73.09075867 159.93684601 72.99011108 159.18082092 72.88641357 158.40188599 C70.76029685 142.66592336 67.20869902 127.30127626 62.50390625 112.13037109 C62.09398437 110.80078369 62.09398437 110.80078369 61.67578125 109.44433594 C54.99977293 84.55662907 54.99977293 84.55662907 40.50390625 64.13037109 C33.53674235 63.5292438 26.39838302 65.11928376 19.50390625 66.13037109 Z " fill="#D7DE20" transform="translate(328.49609375,41.86962890625)"/>
<path d="M0 0 C3.13416346 0.00538012 6.26818445 0.00000075 9.40234375 -0.00634766 C27.55378085 -0.01497447 45.39674901 0.38658948 63.31640625 3.44287109 C64.57904297 3.64332031 65.84167969 3.84376953 67.14257812 4.05029297 C88.26377367 7.5398818 110.15383003 13.3131706 123.50390625 31.31787109 C130.65369185 41.51601489 136.67445733 51.66042992 141.50390625 63.13037109 C141.95624634 64.11179077 141.95624634 64.11179077 142.41772461 65.11303711 C144.90553877 70.51446321 146.84527831 75.94276232 148.56640625 81.63037109 C149.05656011 83.22434624 149.54744344 84.81809725 150.0390625 86.41162109 C150.27778076 87.19102051 150.51649902 87.97041992 150.76245117 88.7734375 C151.51128963 91.15384134 152.31143768 93.51223033 153.12109375 95.87255859 C154.22253306 99.15002962 155.03361326 102.33101226 155.56640625 105.75537109 C156.07157164 108.7780136 156.63107685 111.55957188 157.50390625 114.50537109 C159.0115178 119.97046296 159.716684 125.52217536 160.50390625 131.13037109 C160.68050781 132.34595703 160.85710937 133.56154297 161.0390625 134.81396484 C165.37226086 165.65991765 168.44045839 202.64007874 149.08203125 229.07177734 C147.94512172 230.47186037 146.72859301 231.80638541 145.50390625 233.13037109 C144.80265625 233.91412109 144.10140625 234.69787109 143.37890625 235.50537109 C141.50390625 237.13037109 141.50390625 237.13037109 138.50390625 237.13037109 C137.84390625 238.45037109 137.18390625 239.77037109 136.50390625 241.13037109 C135.84390625 241.13037109 135.18390625 241.13037109 134.50390625 241.13037109 C134.50390625 241.79037109 134.50390625 242.45037109 134.50390625 243.13037109 C129.09214154 247.13037109 129.09214154 247.13037109 126.50390625 247.13037109 C126.50390625 247.79037109 126.50390625 248.45037109 126.50390625 249.13037109 C125.14282227 250.25952148 125.14282227 250.25952148 123.2578125 251.47802734 C122.24944336 252.13834961 122.24944336 252.13834961 121.22070312 252.81201172 C120.50978516 253.26769531 119.79886719 253.72337891 119.06640625 254.19287109 C117.67134 255.09960057 116.27678205 256.00711274 114.8828125 256.91552734 C114.25963135 257.31650635 113.6364502 257.71748535 112.99438477 258.13061523 C111.51967123 259.05015922 111.51967123 259.05015922 110.50390625 260.13037109 C105.95411876 260.9290983 101.55700383 261.25967515 96.94311523 261.27563477 C95.04703773 261.28520454 95.04703773 261.28520454 93.11265564 261.29496765 C91.74177082 261.29650018 90.37088548 261.29761207 89 261.29833984 C87.55729644 261.30156538 86.11459319 261.30493034 84.67189026 261.3084259 C81.63826751 261.31440698 78.60467315 261.3162677 75.57104492 261.31567383 C72.52573552 261.31559376 69.48058036 261.32234135 66.43530273 261.33618164 C40.79060637 261.45084948 15.18771576 260.89722345 -10.24609375 257.25537109 C-11.48214355 257.08247559 -12.71819336 256.90958008 -13.99169922 256.73144531 C-43.21018849 252.5136736 -43.21018849 252.5136736 -54.49609375 245.13037109 C-54.82609375 244.47037109 -55.15609375 243.81037109 -55.49609375 243.13037109 C-51.53609375 242.80037109 -47.57609375 242.47037109 -43.49609375 242.13037109 C-43.49609375 241.47037109 -43.49609375 240.81037109 -43.49609375 240.13037109 C-42.76608154 240.08025879 -42.03606934 240.03014648 -41.28393555 239.97851562 C-37.91668305 239.74375816 -34.55017081 239.49961653 -31.18359375 239.25537109 C-30.03568359 239.17673828 -28.88777344 239.09810547 -27.70507812 239.01708984 C-21.32278818 238.54700617 -15.14115509 237.79290931 -8.86157227 236.56298828 C-5.94862477 236.03024569 -3.07751956 235.82365132 -0.12109375 235.69287109 C5.5463817 235.31771905 10.78607989 234.24403127 16.2890625 232.87646484 C19.34078835 232.16822713 22.33892892 231.67898633 25.44140625 231.25537109 C51.77317265 228.00148506 51.77317265 228.00148506 74.50390625 216.13037109 C76.5057465 210.51248084 75.54774866 204.06090061 75.37890625 198.19287109 C75.35945953 197.49918427 75.34001282 196.80549744 75.31997681 196.09078979 C74.94980957 184.19825852 73.79304786 172.47910472 72.19140625 160.69287109 C72.09075867 159.93684601 71.99011108 159.18082092 71.88641357 158.40188599 C69.76029685 142.66592336 66.20869902 127.30127626 61.50390625 112.13037109 C61.09398437 110.80078369 61.09398437 110.80078369 60.67578125 109.44433594 C53.77175833 86.96675691 53.77175833 86.96675691 41.50390625 67.13037109 C41.19453125 66.30537109 40.88515625 65.48037109 40.56640625 64.63037109 C39.16511976 61.33322642 37.17747527 59.47789511 34.50390625 57.13037109 C33.51390625 56.80037109 32.52390625 56.47037109 31.50390625 56.13037109 C31.50390625 55.14037109 31.50390625 54.15037109 31.50390625 53.13037109 C30.22515625 52.82099609 28.94640625 52.51162109 27.62890625 52.19287109 C25.4028895 51.65431865 23.55650626 51.1566711 21.50390625 50.13037109 C21.50390625 49.47037109 21.50390625 48.81037109 21.50390625 48.13037109 C19.77140625 48.22318359 19.77140625 48.22318359 18.00390625 48.31787109 C14.23581206 48.31787109 11.42519094 47.46991886 7.93359375 45.99755859 C2.63576272 44.10669286 -2.98796353 43.22116655 -8.49609375 42.13037109 C-8.49609375 41.47037109 -8.49609375 40.81037109 -8.49609375 40.13037109 C-9.6665625 40.14841797 -10.83703125 40.16646484 -12.04296875 40.18505859 C-16.00564968 40.18331905 -19.81670967 39.79879655 -23.74609375 39.25537109 C-30.06926975 38.40702932 -36.39472547 37.73028887 -42.74609375 37.13037109 C-48.12301163 36.61845213 -53.42919986 36.04311658 -58.74609375 35.06787109 C-72.94876684 32.53157296 -87.59258741 32.99303314 -101.96484375 33.03271484 C-103.98221806 33.03458495 -105.99959284 33.03600605 -108.01696777 33.03700256 C-113.2709483 33.04078113 -118.52490023 33.05057036 -123.77886963 33.06170654 C-129.16247165 33.07202211 -134.5460784 33.0765217 -139.9296875 33.08154297 C-150.45183533 33.09219785 -160.97396214 33.10921669 -171.49609375 33.13037109 C-170.49609375 30.13037109 -170.49609375 30.13037109 -168.0390625 28.73583984 C-159.91481461 25.30265942 -151.73687161 22.5488906 -143.25073242 20.13500977 C-142.43193604 19.90144775 -141.61313965 19.66788574 -140.76953125 19.42724609 C-139.67777588 19.12318848 -139.67777588 19.12318848 -138.56396484 18.81298828 C-136.46308676 18.17693436 -136.46308676 18.17693436 -134.48681641 17.11035156 C-132.42539526 16.09556808 -130.61829866 15.60729206 -128.37109375 15.15380859 C-125.12864006 14.47543227 -121.90345335 13.7609737 -118.68359375 12.98193359 C-99.93358969 8.51592142 -81.02073642 5.61420514 -61.90982056 3.20779419 C-59.90379743 2.95487439 -57.8985316 2.69596963 -55.89331055 2.43676758 C-37.33091499 0.18414535 -18.67876254 -0.03798872 0 0 Z " fill="#EC1B24" transform="translate(328.49609375,41.86962890625)"/>
<path d="M0 0 C0.60226913 0.07064667 1.20453827 0.14129333 1.82505798 0.21408081 C12.78175456 1.31904862 23.75377236 1.14465447 34.75390625 1.1328125 C36.98135895 1.13348805 39.20881158 1.13446015 41.43626404 1.13571167 C46.10033878 1.13718143 50.7643943 1.13506042 55.4284668 1.13037109 C61.32508723 1.12472338 67.2216617 1.12794839 73.11828041 1.13391495 C77.70639366 1.13761014 82.29449656 1.13681384 86.88261032 1.13433075 C89.12630567 1.13332031 91.37000173 1.13334219 93.61369705 1.13440704 C108.75169625 1.15008725 108.75169625 1.15008725 123.87451172 0.55761719 C125.11941879 0.48590302 126.36432587 0.41418884 127.6469574 0.34030151 C129.77244696 0.20001385 131.89644571 0.03136922 134.01625061 -0.177948 C140.90821651 -0.66338122 145.36272121 1.18891885 151.36479187 4.55444336 C161.42907868 10.07525838 175.06953316 10.56110469 186.25 12.125 C187.35843262 12.28371582 188.46686523 12.44243164 189.60888672 12.60595703 C215.47685803 16.00709635 241.39830809 16.28363274 267.43640137 16.1373291 C271.58127692 16.11637338 275.72617981 16.10763242 279.87109375 16.09765625 C287.91413333 16.07660149 295.95704654 16.04275846 304 16 C300.90428934 19.22369763 298.17412441 21.13066583 294.125 23.0625 C293.11695313 23.54847656 292.10890625 24.03445313 291.0703125 24.53515625 C290.05710937 25.01855469 289.04390625 25.50195312 288 26 C286.92492187 26.55558594 285.84984375 27.11117188 284.7421875 27.68359375 C282 29 282 29 280 29 C280 29.66 280 30.32 280 31 C279.319375 31.268125 278.63875 31.53625 277.9375 31.8125 C271.73201827 34.321099 265.7669248 37.07568488 259.8125 40.125 C254.96597956 42.59764501 250.26622325 44.81644019 245.03515625 46.37109375 C242.81104098 47.05839233 240.71021299 47.91489406 238.5625 48.8125 C232.99732428 51.08400029 227.30760334 52.9428131 221.59594727 54.8059082 C217.94316332 56.00109559 214.32644019 57.23880171 210.73828125 58.6171875 C207.87813432 59.67517289 205.28852238 60.49590054 202.3125 61.0625 C199.01473431 61.74343797 196.11987114 62.72005287 193 64 C178.45227047 67.79929544 163.71477463 70.84780937 148.875 73.25 C147.38528687 73.49435791 147.38528687 73.49435791 145.86547852 73.74365234 C133.43401085 75.68926749 121.07605203 76.18662179 108.51733398 76.18530273 C106.20082142 76.18748744 103.88478828 76.20572078 101.56835938 76.22460938 C88.51122007 76.27494911 75.48523385 75.48239361 62.875 71.8125 C62.13056641 71.59891846 61.38613281 71.38533691 60.61914062 71.1652832 C35.25530567 63.51436592 20.29883776 45.49852122 7.91455078 23.03076172 C6.17445662 19.73369372 4.56482989 16.38295958 3 13 C2.63390625 12.33355469 2.2678125 11.66710937 1.890625 10.98046875 C0.32357468 7.4958437 0.33222178 3.7651802 0 0 Z " fill="#F7931D" transform="translate(132,286)"/>
<path d="M0 0 C3.13416346 0.00538012 6.26818445 0.00000075 9.40234375 -0.00634766 C27.55378085 -0.01497447 45.39674901 0.38658948 63.31640625 3.44287109 C64.57904297 3.64332031 65.84167969 3.84376953 67.14257812 4.05029297 C88.26377367 7.5398818 110.15383003 13.3131706 123.50390625 31.31787109 C129.07586908 39.26547699 134.46512183 47.28261545 138.50390625 56.13037109 C138.93509766 57.0565625 138.93509766 57.0565625 139.375 58.00146484 C140.87787927 61.34519145 141.95438675 64.50354242 142.50390625 68.13037109 C141.00390625 66.81787109 141.00390625 66.81787109 139.50390625 65.13037109 C139.50390625 64.14037109 139.50390625 63.15037109 139.50390625 62.13037109 C138.84390625 62.13037109 138.18390625 62.13037109 137.50390625 62.13037109 C137.17390625 61.47037109 136.84390625 60.81037109 136.50390625 60.13037109 C132.23410116 58.85155586 127.86683673 58.98541647 123.44921875 58.99755859 C122.67061493 58.99660187 121.89201111 58.99564514 121.08981323 58.99465942 C119.44073404 58.99398026 117.79165215 58.99581617 116.14257812 59 C113.67181031 59.00527942 111.2012304 59.00008404 108.73046875 58.99365234 C100.02460542 58.99031565 91.42092387 59.25358157 82.73730469 59.90771484 C78.66425079 60.18819092 74.64855674 60.22899632 70.56640625 60.19287109 C69.87095703 60.18835938 69.17550781 60.18384766 68.45898438 60.17919922 C66.80725076 60.16780795 65.15556365 60.14990449 63.50390625 60.13037109 C63.50390625 61.12037109 63.50390625 62.11037109 63.50390625 63.13037109 C58.22390625 63.79037109 52.94390625 64.45037109 47.50390625 65.13037109 C47.17390625 67.44037109 46.84390625 69.75037109 46.50390625 72.13037109 C43.00842523 68.9108491 41.24351625 66.47939609 39.50390625 62.13037109 C36.87347122 59.16270081 35.2854168 57.39087461 31.50390625 56.13037109 C31.50390625 55.14037109 31.50390625 54.15037109 31.50390625 53.13037109 C30.22515625 52.82099609 28.94640625 52.51162109 27.62890625 52.19287109 C25.4028895 51.65431865 23.55650626 51.1566711 21.50390625 50.13037109 C21.50390625 49.47037109 21.50390625 48.81037109 21.50390625 48.13037109 C19.77140625 48.22318359 19.77140625 48.22318359 18.00390625 48.31787109 C14.23581206 48.31787109 11.42519094 47.46991886 7.93359375 45.99755859 C2.63576272 44.10669286 -2.98796353 43.22116655 -8.49609375 42.13037109 C-8.49609375 41.47037109 -8.49609375 40.81037109 -8.49609375 40.13037109 C-9.6665625 40.14841797 -10.83703125 40.16646484 -12.04296875 40.18505859 C-16.00564968 40.18331905 -19.81670967 39.79879655 -23.74609375 39.25537109 C-30.06926975 38.40702932 -36.39472547 37.73028887 -42.74609375 37.13037109 C-48.12301163 36.61845213 -53.42919986 36.04311658 -58.74609375 35.06787109 C-72.94876684 32.53157296 -87.59258741 32.99303314 -101.96484375 33.03271484 C-103.98221806 33.03458495 -105.99959284 33.03600605 -108.01696777 33.03700256 C-113.2709483 33.04078113 -118.52490023 33.05057036 -123.77886963 33.06170654 C-129.16247165 33.07202211 -134.5460784 33.0765217 -139.9296875 33.08154297 C-150.45183533 33.09219785 -160.97396214 33.10921669 -171.49609375 33.13037109 C-170.49609375 30.13037109 -170.49609375 30.13037109 -168.0390625 28.73583984 C-159.91481461 25.30265942 -151.73687161 22.5488906 -143.25073242 20.13500977 C-142.43193604 19.90144775 -141.61313965 19.66788574 -140.76953125 19.42724609 C-139.67777588 19.12318848 -139.67777588 19.12318848 -138.56396484 18.81298828 C-136.46308676 18.17693436 -136.46308676 18.17693436 -134.48681641 17.11035156 C-132.42539526 16.09556808 -130.61829866 15.60729206 -128.37109375 15.15380859 C-125.12864006 14.47543227 -121.90345335 13.7609737 -118.68359375 12.98193359 C-99.93358969 8.51592142 -81.02073642 5.61420514 -61.90982056 3.20779419 C-59.90379743 2.95487439 -57.8985316 2.69596963 -55.89331055 2.43676758 C-37.33091499 0.18414535 -18.67876254 -0.03798872 0 0 Z " fill="#A157A0" transform="translate(328.49609375,41.86962890625)"/>
<path d="M0 0 C0.61785873 0.072686 1.23571747 0.14537201 1.87229919 0.22026062 C11.38698613 1.18355911 20.85125658 1.07195224 30.40028572 0.98346901 C33.46431911 0.9565555 36.52827763 0.9388629 39.59239197 0.92399597 C48.29472122 0.88148676 56.9968988 0.83308137 65.69897461 0.75317383 C71.04255339 0.70476814 76.38593469 0.67569765 81.7297039 0.65942955 C83.7619758 0.64952025 85.79422556 0.63229248 87.82637215 0.60764503 C90.65541257 0.57404568 93.48352963 0.56502342 96.31274414 0.56176758 C97.57271461 0.53783936 97.57271461 0.53783936 98.85813904 0.51342773 C104.51691757 0.54324431 104.51691757 0.54324431 106.99241638 2.88383484 C108.07544939 5.15846166 108.81173143 7.30911391 109.4375 9.75 C110.57570208 13.79891677 112.0191928 17.32562682 113.98046875 21.03515625 C114.99679551 22.99382429 115.87998463 24.97251924 116.75 27 C121.49300309 37.78800702 127.02768675 48.22838285 132.75 58.5234375 C134 61 134 61 134 63 C122.73683605 66.60605385 111.41151089 69.8961747 100 73 C111.52487095 73.25834082 122.93585656 72.85670368 134.4375 72.0625 C136.34825317 71.93222412 136.34825317 71.93222412 138.29760742 71.79931641 C145.2175104 71.33192056 145.2175104 71.33192056 152 70 C153.74886981 69.93375493 155.50002748 69.91447405 157.25 69.9375 C158.58804688 69.95103516 158.58804688 69.95103516 159.953125 69.96484375 C160.62859375 69.97644531 161.3040625 69.98804688 162 70 C162 70.33 162 70.66 162 71 C158.10566022 71.65505026 154.20930036 72.2972639 150.3125 72.9375 C149.22904297 73.11990234 148.14558594 73.30230469 147.02929688 73.49023438 C134.18825895 75.58595273 121.50139684 76.18666646 108.51733398 76.18530273 C106.20082142 76.18748744 103.88478828 76.20572078 101.56835938 76.22460938 C88.51122007 76.27494911 75.48523385 75.48239361 62.875 71.8125 C62.13056641 71.59891846 61.38613281 71.38533691 60.61914062 71.1652832 C35.25530567 63.51436592 20.29883776 45.49852122 7.91455078 23.03076172 C6.17445662 19.73369372 4.56482989 16.38295958 3 13 C2.63390625 12.33355469 2.2678125 11.66710937 1.890625 10.98046875 C0.32357468 7.4958437 0.33222178 3.7651802 0 0 Z " fill="#FCAF19" transform="translate(132,286)"/>
<path d="M0 0 C23.22197364 -0.27828693 45.94387648 0.4258502 69 3.5 C73.7384319 4.11638139 78.49356177 4.54856242 83.25 5 C90.56130382 5.69969289 97.78043595 6.6206524 105 8 C105 8.66 105 9.32 105 10 C106.0725 10.103125 107.145 10.20625 108.25 10.3125 C112.92449168 10.89061735 117.39203533 12.05260841 121.9453125 13.234375 C126.26657028 14.3174524 130.62284563 15.17686256 135 16 C135 16.66 135 17.32 135 18 C138.3 18.99 141.6 19.98 145 21 C145 21.99 145 22.98 145 24 C145.59296875 24.10183594 146.1859375 24.20367187 146.796875 24.30859375 C149.36184111 25.11355652 150.42743483 26.11566902 152.25 28.0625 C153.03117187 28.88427734 153.03117187 28.88427734 153.828125 29.72265625 C154.21484375 30.14417969 154.6015625 30.56570312 155 31 C154.67 31.66 154.34 32.32 154 33 C152.865625 33.04898438 151.73125 33.09796875 150.5625 33.1484375 C149.04164602 33.2235414 147.52081375 33.29908584 146 33.375 C145.25621094 33.4059375 144.51242187 33.436875 143.74609375 33.46875 C138.57457689 33.73856827 134.0052977 34.6828164 129 36 C126.7551402 36.32889806 124.50450184 36.62045947 122.25 36.875 C107.25000579 38.76134 92.62719 42.2469939 78 46 C77.34386719 46.16735657 76.68773437 46.33471313 76.01171875 46.50714111 C60.28785601 50.53411611 46.09285677 55.84631804 31.67089844 63.18261719 C28.82915887 64.62222829 26.06083626 65.97670794 23.08203125 67.1171875 C20.40786084 68.25107589 20.20013534 69.43971128 19 72 C16.00711009 73.99525994 14.76914404 74 11 74 C11.33 74.99 11.66 75.98 12 77 C11.34 77 10.68 77 10 77 C10 77.66 10 78.32 10 79 C9.01 78.67 8.02 78.34 7 78 C1.88529791 39.1721044 1.88529791 39.1721044 0.6875 22.6875 C0.61160645 21.64875732 0.53571289 20.61001465 0.45751953 19.53979492 C0.02704532 13.01988191 -0.07913395 6.53294743 0 0 Z " fill="#A6CE3A" transform="translate(215,74)"/>
<path d="M0 0 C1.23207189 4.13587616 2.28742843 8.17179228 2.9375 12.4375 C3.93013397 18.70054766 5.11022194 24.91596398 6.31640625 31.140625 C7.54644312 38.08506175 8.15702109 44.75556624 8.16796875 51.79296875 C8.174049 53.02434319 8.174049 53.02434319 8.18025208 54.28059387 C8.18963481 56.91626971 8.18965863 59.55180985 8.1875 62.1875 C8.1882251 63.08073975 8.1889502 63.97397949 8.18969727 64.89428711 C8.18851576 78.02431465 7.78791206 90.97378355 6 104 C5.34 104 4.68 104 4 104 C3.98582031 104.62003906 3.97164063 105.24007812 3.95703125 105.87890625 C3.25227114 118.96458717 -1.83080752 130.61561389 -8 142 C-8.66 142 -9.32 142 -10 142 C-10.11214844 142.56203125 -10.22429687 143.1240625 -10.33984375 143.703125 C-11.09057339 146.31513108 -12.21167376 148.39471322 -13.5625 150.75 C-14.24505859 151.94882812 -14.24505859 151.94882812 -14.94140625 153.171875 C-15.29074219 153.77515625 -15.64007813 154.3784375 -16 155 C-16.66 155 -17.32 155 -18 155 C-18.17334634 151.91691146 -18.34027011 148.83380873 -18.5 145.75 C-18.54914551 144.80286133 -18.59829102 143.85572266 -18.64892578 142.87988281 C-18.91381523 137.31812735 -19.01377121 131.79664583 -18.91723633 126.22998047 C-18.79224012 118.89060797 -19.05023159 111.86835657 -20.3125 104.625 C-20.43028809 103.94147461 -20.54807617 103.25794922 -20.66943359 102.55371094 C-21.26840225 99.48754361 -22.0301146 96.94239292 -23.48046875 94.16796875 C-25.57195103 89.80757767 -26.20743577 85.43281038 -27 80.6875 C-28.02444359 74.63199657 -29.23544922 68.90987113 -31.28393555 63.11401367 C-32.16571615 60.51076164 -32.78986423 57.85918867 -33.43212891 55.18847656 C-34.64308948 50.52164483 -36.17758745 45.95200135 -37.6875 41.375 C-38.0369165 40.31555176 -38.38633301 39.25610352 -38.74633789 38.16455078 C-41.1681417 31.01009088 -43.97247046 24.39325335 -47.65234375 17.8046875 C-49.43978938 14.08472818 -50.51136074 10.72003159 -49.3125 6.6875 C-47.60913795 4.49746308 -46.71651444 4.46884005 -44 4 C-41.91765408 3.93256652 -39.83331443 3.91485528 -37.75 3.9375 C-36.67234375 3.94652344 -35.5946875 3.95554687 -34.484375 3.96484375 C-33.66453125 3.97644531 -32.8446875 3.98804687 -32 4 C-32 3.01 -32 2.02 -32 1 C-21.312837 0.20414744 -10.71600323 -0.12825004 0 0 Z " fill="#B01016" transform="translate(424,101)"/>
<path d="M0 0 C-17.87896254 12 -17.87896254 12 -24 12 C-24 12.66 -24 13.32 -24 14 C-24.680625 14.268125 -25.36125 14.53625 -26.0625 14.8125 C-32.26798173 17.321099 -38.2330752 20.07568488 -44.1875 23.125 C-49.03402044 25.59764501 -53.73377675 27.81644019 -58.96484375 29.37109375 C-61.18895902 30.05839233 -63.28978701 30.91489406 -65.4375 31.8125 C-71.00267572 34.08400029 -76.69239666 35.9428131 -82.40405273 37.8059082 C-86.05683668 39.00109559 -89.67355981 40.23880171 -93.26171875 41.6171875 C-96.12186568 42.67517289 -98.71147762 43.49590054 -101.6875 44.0625 C-104.98526569 44.74343797 -107.88012886 45.72005287 -111 47 C-112.93419177 47.49440838 -114.86903211 47.98654511 -116.80834961 48.46044922 C-118.85738803 48.96489111 -120.89725769 49.49643628 -122.9375 50.03515625 C-131.5831779 52.25121168 -139.78296887 53.51093672 -148.70703125 53.82421875 C-151.78342779 53.87828721 -151.78342779 53.87828721 -153.83325195 54.47753906 C-158.87773518 55.69389896 -164.21256854 55.70728834 -169.375 56.0625 C-170.66237061 56.15192871 -171.94974121 56.24135742 -173.27612305 56.33349609 C-184.53195059 57.06462006 -195.72618498 57.20898936 -207 57 C-203.63211037 54.75474025 -200.41803492 53.88988514 -196.5625 52.875 C-194.9437322 52.43592025 -193.32526302 51.99573867 -191.70703125 51.5546875 C-190.80807129 51.31073242 -189.90911133 51.06677734 -188.98291016 50.81542969 C-183.22948374 49.24263183 -177.48844521 47.62650805 -171.75 46 C-170.53965088 45.65694824 -169.32930176 45.31389648 -168.08227539 44.96044922 C-160.75113411 42.85780825 -153.57303395 40.59562155 -146.46875 37.8125 C-144 37 -144 37 -140 37 C-140 36.34 -140 35.68 -140 35 C-139.14277344 34.74605469 -138.28554688 34.49210937 -137.40234375 34.23046875 C-136.25894531 33.88628906 -135.11554688 33.54210937 -133.9375 33.1875 C-132.81214844 32.85105469 -131.68679688 32.51460938 -130.52734375 32.16796875 C-126.91141243 30.97066702 -123.49800936 29.50456091 -120 28 C-116.40219228 26.68694702 -112.77132475 25.46869642 -109.140625 24.25 C-105.09111873 22.8566215 -101.65145264 21.272968 -98 19 C-96.14434781 18.22291316 -94.26816923 17.49310216 -92.375 16.8125 C-91.43398438 16.46832031 -90.49296875 16.12414062 -89.5234375 15.76953125 C-87 15 -87 15 -84 15 C-84 14.34 -84 13.68 -84 13 C-81.03 12.505 -81.03 12.505 -78 12 C-78 11.34 -78 10.68 -78 10 C-72.68376389 7.62517344 -67.3576845 5.27986574 -62 3 C-63.98 2.34 -65.96 1.68 -68 1 C-68 0.67 -68 0.34 -68 0 C-59.72462119 -0.15392705 -51.4491679 -0.30210742 -43.17355728 -0.4429636 C-39.33081684 -0.50854987 -35.48813232 -0.57611097 -31.64550781 -0.64819336 C-27.93679471 -0.71769095 -24.22802449 -0.78199045 -20.51915741 -0.84269524 C-19.10455812 -0.86676068 -17.68998935 -0.89269523 -16.27545929 -0.92053413 C-14.29343059 -0.95922168 -12.31126391 -0.99063305 -10.32910156 -1.02172852 C-9.20103088 -1.04171402 -8.07296021 -1.06169952 -6.91070557 -1.08229065 C-4.40199862 -1.01136519 -2.38271409 -0.74052491 0 0 Z " fill="#F37922" transform="translate(436,303)"/>
<path d="M0 0 C3.1406679 3.44857652 3.93515074 7.02552888 4.6875 11.5 C4.81560059 12.24628662 4.94370117 12.99257324 5.07568359 13.76147461 C6.0748611 20.20810385 6.20165866 26.5140399 6.07836914 33.02514648 C5.9281752 41.11305116 6.32007725 49.14685636 6.82080078 57.21899414 C6.87220215 58.18957764 6.92360352 59.16016113 6.9765625 60.16015625 C7.02893066 61.02261963 7.08129883 61.88508301 7.13525391 62.77368164 C7 65 7 65 5 68 C4.57688231 70.50198523 4.57688231 70.50198523 4.4375 73.25 C4.11823963 77.54291173 3.66148152 81.74761879 3 86 C2.34 86 1.68 86 1 86 C0.95875 86.845625 0.9175 87.69125 0.875 88.5625 C-0.26247593 93.03115545 -2.49136461 96.01724907 -6 99 C-7.05767578 99.25330078 -7.05767578 99.25330078 -8.13671875 99.51171875 C-8.75160156 99.67285156 -9.36648438 99.83398438 -10 100 C-10.495 101.485 -10.495 101.485 -11 103 C-12.66666667 103.66666667 -14.33333333 104.33333333 -16 105 C-16.495 106.485 -16.495 106.485 -17 108 C-37.82177075 118.41088537 -92.65448023 105.49936577 -114 99 C-125.15953683 94.68092634 -125.15953683 94.68092634 -127 91 C-121.06 90.505 -121.06 90.505 -115 90 C-115 89.34 -115 88.68 -115 88 C-114.26998779 87.9498877 -113.53997559 87.89977539 -112.7878418 87.84814453 C-109.4205893 87.61338707 -106.05407706 87.36924544 -102.6875 87.125 C-101.53958984 87.04636719 -100.39167969 86.96773438 -99.20898438 86.88671875 C-92.82669443 86.41663507 -86.64506134 85.66253822 -80.36547852 84.43261719 C-77.45253102 83.8998746 -74.58142581 83.69328023 -71.625 83.5625 C-65.95752455 83.18734796 -60.71782636 82.11366018 -55.21484375 80.74609375 C-52.1631179 80.03785604 -49.16497733 79.54861524 -46.0625 79.125 C-19.7307336 75.87111396 -19.7307336 75.87111396 3 64 C5.13139949 58.18021536 3.94667966 51.18295278 3.75 45.0625 C3.72865997 44.34635529 3.70731995 43.63021057 3.68533325 42.8923645 C3.35171578 32.17567173 2.43492047 21.73187999 0.62109375 11.15234375 C-0.01180392 7.3801347 -0.11669821 3.82059793 0 0 Z " fill="#C3181D" transform="translate(400,194)"/>
<path d="M0 0 C4.190305 6.2854575 5.33548592 13.38274213 6.48828125 20.7421875 C8.12211317 31.14383499 10.50163337 41.14732477 13.4375 51.25 C13.72584717 52.24354492 14.01419434 53.23708984 14.3112793 54.26074219 C16.05884644 60.15541871 18.00523112 65.94051061 20.15258789 71.70166016 C20.81326101 73.49352901 21.41794355 75.3060736 22 77.125 C24.4236331 84.09294515 27.7809227 90.65542127 31.0625 97.25 C31.40297363 97.93562012 31.74344727 98.62124023 32.09423828 99.32763672 C34.98492707 106.14516233 34.98492707 106.14516233 40 111 C40.4125 111.70125 40.825 112.4025 41.25 113.125 C41.8275 114.07375 42.405 115.0225 43 116 C43.35320312 116.62261719 43.70640625 117.24523437 44.0703125 117.88671875 C45.58156997 120.11740717 46.73902366 121.50674324 49 123 C53.39382267 123.59630451 57.5944689 123.41179297 62 123 C62 123.33 62 123.66 62 124 C61.14535156 124.13277344 60.29070312 124.26554687 59.41015625 124.40234375 C57.75306641 124.66724609 57.75306641 124.66724609 56.0625 124.9375 C54.40927734 125.19853516 54.40927734 125.19853516 52.72265625 125.46484375 C50.09573071 125.71845136 50.09573071 125.71845136 49 127 C46.40846893 127.15996166 43.8404798 127.25938697 41.24609375 127.31640625 C40.08292381 127.3475779 40.08292381 127.3475779 38.89625549 127.37937927 C36.41009692 127.44495802 33.92382955 127.50379799 31.4375 127.5625 C29.75584796 127.60567733 28.07420706 127.64929136 26.39257812 127.69335938 C22.26183129 127.80064779 18.13097464 127.90189132 14 128 C13.73445313 127.03578125 13.46890625 126.0715625 13.1953125 125.078125 C12.84210938 123.81484375 12.48890625 122.5515625 12.125 121.25 C11.77695313 119.99703125 11.42890625 118.7440625 11.0703125 117.453125 C10.22588991 114.7287835 9.29706065 112.50618499 8 110 C7.52221681 107.95235778 7.05277565 105.90242031 6.625 103.84375 C5.88001557 100.45407084 4.99882785 97.10877578 4.125 93.75 C-13.0142784 26.0285568 -13.0142784 26.0285568 0 0 Z " fill="#61BB4A" transform="translate(223,160)"/>
<path d="M0 0 C7.65306586 0.17110513 14.77874224 1.48369505 22.1875 3.3125 C23.01797852 3.51319092 23.84845703 3.71388184 24.70410156 3.9206543 C47.9776389 9.87279459 61.0144909 23.91204215 73 44 C74.4388818 46.62411456 75.75747505 49.27800348 77 52 C77.28746094 52.61746094 77.57492187 53.23492187 77.87109375 53.87109375 C79.37397302 57.21482036 80.4504805 60.37317133 81 64 C79.5 62.6875 79.5 62.6875 78 61 C78 60.01 78 59.02 78 58 C77.34 58 76.68 58 76 58 C75.67 57.34 75.34 56.68 75 56 C70.58583663 54.68144222 65.98944108 54.7811029 61.41796875 54.68359375 C60.19670036 54.6524221 60.19670036 54.6524221 58.95075989 54.62062073 C56.36308821 54.55550537 53.77531947 54.49641792 51.1875 54.4375 C49.42772455 54.39427858 47.66795872 54.35066315 45.90820312 54.30664062 C41.60556691 54.1998632 37.30283357 54.09848982 33 54 C31.53515625 49.1171875 30.0703125 44.234375 28.60546875 39.3515625 C28.33984131 38.46871582 28.07421387 37.58586914 27.80053711 36.67626953 C27.26696666 34.89249421 26.73912662 33.10699473 26.21704102 31.31982422 C24.55270472 25.65288946 22.61337239 20.25636287 20.2265625 14.84765625 C19 12 19 12 18.2109375 9.49609375 C17.37804446 7.14464319 16.82150878 5.71715151 15 4 C11.85497223 3.3273135 8.99111156 3.18677104 5.77734375 3.23046875 C3 3 3 3 1.12890625 1.48828125 C0.75636719 0.99714844 0.38382812 0.50601563 0 0 Z " fill="#B57FB6" transform="translate(390,46)"/>
<path d="M0 0 C0.66 0.33 1.32 0.66 2 1 C1.360625 1.556875 0.72125 2.11375 0.0625 2.6875 C-2.2414184 5.27068124 -2.39010584 6.68914596 -3 10 C-3.99 10.66 -4.98 11.32 -6 12 C-5.67 13.32 -5.34 14.64 -5 16 C-5.99 16 -6.98 16 -8 16 C-8.495 16.825 -8.99 17.65 -9.5 18.5 C-9.995 19.325 -10.49 20.15 -11 21 C-11.99 21 -12.98 21 -14 21 C-14.03738281 21.54785156 -14.07476562 22.09570312 -14.11328125 22.66015625 C-14.52429754 27.61652914 -15.30625468 32.21853003 -16.52734375 37.0390625 C-19.00281031 48.28430886 -18.37313503 59.93004483 -18.28125 71.37475586 C-18.24971545 75.34835514 -18.24023269 79.32120905 -18.234375 83.29492188 C-18.22521833 85.81771322 -18.21484687 88.34050052 -18.203125 90.86328125 C-18.19887512 92.05270828 -18.19462524 93.24213531 -18.19024658 94.46760559 C-18.18063904 95.56022202 -18.17103149 96.65283844 -18.16113281 97.77856445 C-18.15430481 98.74147903 -18.14747681 99.70439362 -18.14044189 100.69648743 C-18.14933297 103.02796227 -18.14933297 103.02796227 -17 105 C-16.88336418 106.39403275 -16.82133516 107.79287499 -16.7890625 109.19140625 C-16.76255615 110.04645752 -16.7360498 110.90150879 -16.70874023 111.7824707 C-16.68110596 112.69988037 -16.65347168 113.61729004 -16.625 114.5625 C-16.26441042 124.25658682 -14.97665592 133.51453795 -13 143 C-12.34 143 -11.68 143 -11 143 C-10.74605469 144.19496094 -10.49210937 145.38992187 -10.23046875 146.62109375 C-7.95935216 157.2685015 -7.95935216 157.2685015 -4.72265625 167.6484375 C-3.31825613 172.21843141 -2.53808746 176.95234516 -1.6484375 181.64453125 C-1.16862545 184.12741409 -0.65179755 186.5588337 0 189 C-3.55166879 186.30032112 -4.26285983 182.54627853 -5.375 178.4375 C-5.58777588 177.67791992 -5.80055176 176.91833984 -6.01977539 176.13574219 C-6.4659886 174.53994328 -6.90839402 172.94307522 -7.34716797 171.34521484 C-7.94800153 169.18679781 -8.57816291 167.04024152 -9.22265625 164.89453125 C-14.8761962 145.79989914 -19.29553321 125.85832288 -21 106 C-21.08733398 105.03497559 -21.17466797 104.06995117 -21.26464844 103.07568359 C-24.14500741 70.78559869 -27.12921273 31.54613221 -5 5 C-3.39098 3.22466303 -1.77669245 1.61012754 0 0 Z " fill="#E5EA81" transform="translate(128,90)"/>
<path d="M0 0 C5.46465975 5.46465975 6.35581472 16.17892146 7.5703125 23.59375 C7.98739794 26.1869355 7.98739794 26.1869355 9 29.375 C10.50761155 34.84009186 11.21277775 40.39180427 12 46 C12.26490234 47.82337891 12.26490234 47.82337891 12.53515625 49.68359375 C15.27575038 69.19256383 16.14977988 88.93279187 14.125 108.5625 C14.04660889 109.32908936 13.96821777 110.09567871 13.88745117 110.88549805 C13.39033451 115.14316168 12.50828765 118.98846184 11 123 C10.67 123 10.34 123 10 123 C9.97314905 120.52076199 9.95323453 118.0418116 9.9375 115.5625 C9.92912109 114.85544922 9.92074219 114.14839844 9.91210938 113.41992188 C9.90346412 111.61306441 9.94779989 109.80612397 10 108 C10.495 107.505 10.495 107.505 11 107 C11.10127025 103.87151348 11.1396754 100.76557051 11.1328125 97.63671875 C11.13376923 96.69319046 11.13472595 95.74966217 11.13571167 94.77754211 C11.13639377 92.77592909 11.13453744 90.77431388 11.13037109 88.77270508 C11.125041 85.71104939 11.13030588 82.64954161 11.13671875 79.58789062 C11.13605762 77.64583301 11.13477575 75.70377549 11.1328125 73.76171875 C11.13483673 72.84492844 11.13686096 71.92813812 11.13894653 70.98356628 C11.13579437 70.12620377 11.13264221 69.26884125 11.12939453 68.38549805 C11.12859894 67.63350632 11.12780334 66.88151459 11.12698364 66.10673523 C10.99719548 63.95347126 10.55051487 62.0804047 10 60 C9.84842371 57.89758068 9.72699205 55.79290732 9.625 53.6875 C9.06196173 45.02397565 7.75327 36.25981001 5 28 C4.77439324 25.60745424 4.59151405 23.21071877 4.4375 20.8125 C4.35371094 19.54019531 4.26992188 18.26789063 4.18359375 16.95703125 C4.12300781 15.98121094 4.06242187 15.00539062 4 14 C3.34 14 2.68 14 2 14 C0.09391902 10.78817851 -0.22266247 8.46117397 -0.125 4.75 C-0.09792969 3.41195312 -0.09792969 3.41195312 -0.0703125 2.046875 C-0.04710937 1.37140625 -0.02390625 0.6959375 0 0 Z " fill="#E78285" transform="translate(477,127)"/>
<path d="M0 0 C2.12646373 0.00756333 4.25292864 0.01480146 6.37939453 0.02172852 C19.44329265 0.07950871 32.50334584 0.26789937 45.5625 0.625 C46.30214996 0.64446686 47.04179993 0.66393372 47.80386353 0.68399048 C59.65293454 1.00931151 59.65293454 1.00931151 63.1875 2.1875 C66.42988627 2.44517308 69.66612321 2.62996808 72.9140625 2.79296875 C78.08590515 3.08590515 78.08590515 3.08590515 79.1875 4.1875 C81.20344582 4.42177778 83.225974 4.60086124 85.25 4.75 C86.35472656 4.83378906 87.45945312 4.91757813 88.59765625 5.00390625 C89.45230469 5.06449219 90.30695313 5.12507813 91.1875 5.1875 C91.1875 5.8475 91.1875 6.5075 91.1875 7.1875 C71.56394142 6.45064701 71.56394142 6.45064701 62.32531738 4.68955994 C48.97978291 2.55423548 35.18981432 3.05265023 21.71875 3.08984375 C19.70137569 3.09171386 17.68400091 3.09313495 15.66662598 3.09413147 C10.41264545 3.09791003 5.15869352 3.10769927 -0.09527588 3.11883545 C-5.4788779 3.12915102 -10.86248465 3.13365061 -16.24609375 3.13867188 C-26.76824158 3.14932676 -37.29036839 3.1663456 -47.8125 3.1875 C-47.8125 2.8575 -47.8125 2.5275 -47.8125 2.1875 C-31.83574812 0.60650691 -16.05014541 -0.1092294 0 0 Z " fill="#A67972" transform="translate(204.8125,71.8125)"/>
<path d="M0 0 C0.89203125 0.00902344 1.7840625 0.01804687 2.703125 0.02734375 C3.37859375 0.03894531 4.0540625 0.05054688 4.75 0.0625 C4.75 0.3925 4.75 0.7225 4.75 1.0625 C0.85566022 1.71755026 -3.04069964 2.3597639 -6.9375 3 C-8.02095703 3.18240234 -9.10441406 3.36480469 -10.22070312 3.55273438 C-23.06174105 5.64845273 -35.74860316 6.24916646 -48.73266602 6.24780273 C-51.04917858 6.24998744 -53.36521172 6.26822078 -55.68164062 6.28710938 C-65.6862121 6.32332178 -75.35842466 5.55252564 -85.25 4.0625 C-85.25 3.7325 -85.25 3.4025 -85.25 3.0625 C-83.34214722 3.07821045 -83.34214722 3.07821045 -81.39575195 3.09423828 C-54.28408569 3.29781073 -26.78163926 -0.35238999 0 0 Z " fill="#DF833C" transform="translate(289.25,355.9375)"/>
<path d="M0 0 C1.85367975 3.24563708 2.50667731 6.17695841 3.0703125 9.859375 C3.24433594 10.97441406 3.41835937 12.08945313 3.59765625 13.23828125 C3.77167969 14.39714844 3.94570312 15.55601562 4.125 16.75 C4.30675781 17.92433594 4.48851563 19.09867188 4.67578125 20.30859375 C5.12317271 23.2048648 5.56434052 26.10194496 6 29 C6.66 29 7.32 29 8 29 C8.25394531 30.19496094 8.50789063 31.38992187 8.76953125 32.62109375 C11.04064784 43.2685015 11.04064784 43.2685015 14.27734375 53.6484375 C15.68174387 58.21843141 16.46191254 62.95234516 17.3515625 67.64453125 C17.83137455 70.12741409 18.34820245 72.5588337 19 75 C15.44833121 72.30032112 14.73714017 68.54627853 13.625 64.4375 C13.41222412 63.67791992 13.19944824 62.91833984 12.98022461 62.13574219 C12.5340114 60.53994328 12.09160598 58.94307522 11.65283203 57.34521484 C11.05199847 55.18679781 10.42183709 53.04024152 9.77734375 50.89453125 C6.94405319 41.32377371 4.74677515 31.63955049 2.6875 21.875 C2.42074463 20.62944336 2.15398926 19.38388672 1.87915039 18.10058594 C0.61395285 11.95141801 -0.33668801 6.27962287 0 0 Z " fill="#EBEE92" transform="translate(109,204)"/>
<path d="M0 0 C3.43927579 1.2419607 6.25207819 2.55740284 9 5 C9 5.66 9 6.32 9 7 C9.99628418 6.90912109 10.99256836 6.81824219 12.01904297 6.72460938 C15.80936183 6.3810561 19.60056819 6.04825206 23.39208984 5.71826172 C25.01538627 5.57556486 26.63844834 5.43016955 28.26123047 5.28173828 C39.87321948 4.22217131 51.34067883 3.81169333 63 4 C63 4.33 63 4.66 63 5 C52.63946908 5.83360594 42.3905794 6.12288464 32 6 C32 6.99 32 7.98 32 9 C26.72 9.66 21.44 10.32 16 11 C15.67 13.31 15.34 15.62 15 18 C11.50451898 14.78047801 9.73961 12.349025 8 8 C5.36956497 5.03232971 3.78151055 3.26050352 0 2 C0 1.34 0 0.68 0 0 Z " fill="#A8537B" transform="translate(360,96)"/>
<path d="M0 0 C2.73784945 2.05338709 4.83979592 3.75969388 6.75 6.625 C8.83578696 9.31437454 8.83578696 9.31437454 12.234375 9.48828125 C13.39453125 9.43027344 14.5546875 9.37226563 15.75 9.3125 C16.92046875 9.26738281 18.0909375 9.22226562 19.296875 9.17578125 C20.18890625 9.11777344 21.0809375 9.05976563 22 9 C22 9.33 22 9.66 22 10 C21.14535156 10.13277344 20.29070312 10.26554687 19.41015625 10.40234375 C18.30542969 10.57894531 17.20070313 10.75554687 16.0625 10.9375 C14.96035156 11.11152344 13.85820312 11.28554688 12.72265625 11.46484375 C10.09573071 11.71845136 10.09573071 11.71845136 9 13 C6.40846893 13.15996166 3.8404798 13.25938697 1.24609375 13.31640625 C0.08292381 13.3475779 0.08292381 13.3475779 -1.10374451 13.37937927 C-3.58990308 13.44495802 -6.07617045 13.50379799 -8.5625 13.5625 C-10.24415204 13.60567733 -11.92579294 13.64929136 -13.60742188 13.69335938 C-17.73816871 13.80064779 -21.86902536 13.90189132 -26 14 C-26 13.01 -26 12.02 -26 11 C-25.24380371 10.97494385 -24.48760742 10.9498877 -23.70849609 10.92407227 C-20.26384541 10.80763114 -16.81943592 10.68512338 -13.375 10.5625 C-11.59029297 10.50352539 -11.59029297 10.50352539 -9.76953125 10.44335938 C-8.61582031 10.40146484 -7.46210938 10.35957031 -6.2734375 10.31640625 C-5.21560059 10.27974854 -4.15776367 10.24309082 -3.06787109 10.20532227 C0.00927273 9.99937941 2.9686809 9.55819179 6 9 C4.35 8.34 2.7 7.68 1 7 C0.67 4.69 0.34 2.38 0 0 Z " fill="#9BAA34" transform="translate(263,274)"/>
<path d="M0 0 C3.1017701 3.42176387 3.91623167 6.92121573 4.66015625 11.35546875 C4.78608658 12.09339157 4.91201691 12.83131439 5.04176331 13.59159851 C6.41837512 22.50432404 6.48690592 31.43334273 6.44604492 40.43432617 C6.43737475 43.3546861 6.46668896 46.27318353 6.49804688 49.19335938 C6.49965549 51.06249942 6.49908789 52.93164291 6.49609375 54.80078125 C6.50732773 55.66737869 6.51856171 56.53397614 6.53013611 57.42683411 C6.46040113 63.41629394 6.46040113 63.41629394 3.96899414 66.57495117 C3.31922607 67.04521729 2.66945801 67.5154834 2 68 C1.34 67.67 0.68 67.34 0 67 C0.474375 66.5875 0.94875 66.175 1.4375 65.75 C6.03664899 60.59895313 3.9582989 51.54453059 3.75 45.0625 C3.72865997 44.34635529 3.70731995 43.63021057 3.68533325 42.8923645 C3.35171578 32.17567173 2.43492047 21.73187999 0.62109375 11.15234375 C-0.01180392 7.3801347 -0.11669821 3.82059793 0 0 Z " fill="#D4878A" transform="translate(400,194)"/>
<path d="M0 0 C5.46465975 5.46465975 6.35581472 16.17892146 7.5703125 23.59375 C7.98739794 26.1869355 7.98739794 26.1869355 9 29.375 C10.24248583 33.87901115 10.8780531 38.39027431 11.53515625 43.01171875 C11.92672994 45.87004074 11.92672994 45.87004074 12.5546875 48.09765625 C13.08537803 50.36472895 13.09669521 52.42472595 13.0625 54.75 C13.05347656 55.54921875 13.04445313 56.3484375 13.03515625 57.171875 C13.02355469 57.77515625 13.01195312 58.3784375 13 59 C12.67 59 12.34 59 12 59 C11.8046875 57.07942708 11.609375 55.15885417 11.4140625 53.23828125 C11.06893861 50.94472519 11.06893861 50.94472519 10.05859375 48.70703125 C8.74066457 45.33682859 8.09153515 41.91855551 7.4375 38.375 C6.45562129 33.13074901 6.45562129 33.13074901 5 28 C4.77439324 25.60745424 4.59151405 23.21071877 4.4375 20.8125 C4.35371094 19.54019531 4.26992188 18.26789063 4.18359375 16.95703125 C4.12300781 15.98121094 4.06242187 15.00539062 4 14 C3.34 14 2.68 14 2 14 C0.09391902 10.78817851 -0.22266247 8.46117397 -0.125 4.75 C-0.09792969 3.41195312 -0.09792969 3.41195312 -0.0703125 2.046875 C-0.04710937 1.37140625 -0.02390625 0.6959375 0 0 Z " fill="#EA888D" transform="translate(477,127)"/>
<path d="M0 0 C4.21752518 -0.02473064 8.43501186 -0.04287453 12.65258789 -0.05493164 C14.08716568 -0.05995842 15.52173836 -0.06678079 16.95629883 -0.07543945 C19.01905582 -0.08757752 21.08174504 -0.09324486 23.14453125 -0.09765625 C24.38565674 -0.10289307 25.62678223 -0.10812988 26.90551758 -0.11352539 C30 0 30 0 33 1 C36.24238627 1.25767308 39.47862321 1.44246808 42.7265625 1.60546875 C47.89840515 1.89840515 47.89840515 1.89840515 49 3 C51.01594582 3.23427778 53.038474 3.41336124 55.0625 3.5625 C56.16722656 3.64628906 57.27195312 3.73007813 58.41015625 3.81640625 C59.26480469 3.87699219 60.11945313 3.93757813 61 4 C61 4.66 61 5.32 61 6 C57.91608441 5.8842008 54.83320814 5.75751611 51.75 5.625 C50.46996094 5.57859375 50.46996094 5.57859375 49.1640625 5.53125 C44.45607493 5.32044459 39.92129014 4.86645723 35.28125 4.03125 C28.13792077 2.76544561 20.98399612 2.31849122 13.75 1.875 C12.40751617 1.78831483 11.06506783 1.70107817 9.72265625 1.61328125 C6.48207586 1.4034595 3.24125152 1.19913655 0 1 C0 0.67 0 0.34 0 0 Z " fill="#9A707A" transform="translate(235,73)"/>
<path d="M0 0 C0.66 0.33 1.32 0.66 2 1 C1.360625 1.556875 0.72125 2.11375 0.0625 2.6875 C-2.2414184 5.27068124 -2.39010584 6.68914596 -3 10 C-3.99 10.66 -4.98 11.32 -6 12 C-5.67 13.32 -5.34 14.64 -5 16 C-5.99 16 -6.98 16 -8 16 C-8.495 16.825 -8.99 17.65 -9.5 18.5 C-9.995 19.325 -10.49 20.15 -11 21 C-11.99 21 -12.98 21 -14 21 C-14.03738281 21.64066406 -14.07476562 22.28132813 -14.11328125 22.94140625 C-14.54337277 28.60006141 -15.46086906 32.92173813 -18 38 C-18.33 38 -18.66 38 -19 38 C-18.2375217 23.00459343 -11.04624168 10.01065652 0 0 Z " fill="#E4EA76" transform="translate(128,90)"/>
<path d="M0 0 C9.46383622 0.45637789 18.67809502 1.18152232 28 3 C28 3.66 28 4.32 28 5 C29.0725 5.103125 30.145 5.20625 31.25 5.3125 C35.92449168 5.89061735 40.39203533 7.05260841 44.9453125 8.234375 C49.26657028 9.3174524 53.62284563 10.17686256 58 11 C58 11.66 58 12.32 58 13 C58.66 13.33 59.32 13.66 60 14 C58.68 14 57.36 14 56 14 C56 13.34 56 12.68 56 12 C55.443125 12.03480469 54.88625 12.06960937 54.3125 12.10546875 C49.45960185 12.27761547 45.98384397 11.80861217 41.45703125 9.86328125 C37.42089531 8.44517943 33.21479933 7.76639715 29.01513672 7.00268555 C24.09341385 6.09341385 24.09341385 6.09341385 23 5 C15.43835568 3.18407041 7.74104005 2.5133674 0 2 C0 1.34 0 0.68 0 0 Z " fill="#ABB45C" transform="translate(292,79)"/>
<path d="M0 0 C2.31 0 4.62 0 7 0 C6.01 0.66 5.02 1.32 4 2 C3.29875 2.474375 2.5975 2.94875 1.875 3.4375 C-1.20941797 5.11381411 -4.20598047 6.12823182 -7.54296875 7.1796875 C-10.08637489 8.0288374 -12.52815567 9.02455603 -15 10.0625 C-19.6114368 11.94899687 -24.11256592 13.05404502 -29 14 C-26.5175644 10.15222482 -26.5175644 10.15222482 -23.875 9.375 C-23.25625 9.25125 -22.6375 9.1275 -22 9 C-21.67 8.34 -21.34 7.68 -21 7 C-18.890625 6.40234375 -18.890625 6.40234375 -16.25 5.9375 C-14.95835937 5.70353516 -14.95835937 5.70353516 -13.640625 5.46484375 C-12.76921875 5.31144531 -11.8978125 5.15804688 -11 5 C-9.33254087 4.67065379 -7.66562162 4.33851662 -6 4 C-6 3.34 -6 2.68 -6 2 C-4.02 2 -2.04 2 0 2 C0 1.34 0 0.68 0 0 Z " fill="#ECA670" transform="translate(385,325)"/>
<path d="M0 0 C0.92167969 0.01804687 1.84335937 0.03609375 2.79296875 0.0546875 C3.45941406 0.07789063 4.12585938 0.10109375 4.8125 0.125 C4.8125 0.455 4.8125 0.785 4.8125 1.125 C0.8525 1.785 -3.1075 2.445 -7.1875 3.125 C-7.5175 4.115 -7.8475 5.105 -8.1875 6.125 C-19.7375 5.795 -31.2875 5.465 -43.1875 5.125 C-43.1875 4.795 -43.1875 4.465 -43.1875 4.125 C-42.45748779 4.0748877 -41.72747559 4.02477539 -40.9753418 3.97314453 C-37.6080893 3.73838707 -34.24157706 3.49424544 -30.875 3.25 C-29.72708984 3.17136719 -28.57917969 3.09273438 -27.39648438 3.01171875 C-21.00780663 2.54116458 -14.83280324 1.77004977 -8.54760742 0.53955078 C-5.67235114 0.03451456 -2.91559888 -0.07572984 0 0 Z " fill="#DE8A8F" transform="translate(328.1875,277.875)"/>
<path d="M0 0 C-1.98 0.66 -3.96 1.32 -6 2 C-5.67 3.32 -5.34 4.64 -5 6 C-10.89895571 10.0449982 -17.07303328 9.27748976 -24 9 C-21.47607333 6.02506237 -18.77551428 4.87721894 -15.1875 3.4375 C-14.17042969 3.02371094 -13.15335938 2.60992187 -12.10546875 2.18359375 C-3.40140845 -1.13380282 -3.40140845 -1.13380282 0 0 Z " fill="#BA88B7" transform="translate(181,65)"/>
<path d="M0 0 C3.4102158 2.17524053 4.59764392 3.72599802 5.625 7.625 C5.8621875 8.50414062 6.099375 9.38328125 6.34375 10.2890625 C7.13994726 13.57811545 7.89524635 16.87138557 8.5703125 20.1875 C8.94712746 22.08494678 8.94712746 22.08494678 10 24 C10.2322646 26.71262116 10.41936235 29.40773126 10.5625 32.125 C10.60568359 32.87910156 10.64886719 33.63320312 10.69335938 34.41015625 C10.7994832 36.27321888 10.90025001 38.13658524 11 40 C9.08072274 37.12108411 8.66296669 35.95372634 8.125 32.6875 C6.37858936 23.26788355 3.3987832 14.11317024 0.515625 4.98828125 C0 3 0 3 0 0 Z " fill="#BC585E" transform="translate(387,141)"/>
<path d="M0 0 C19.11468432 -0.22906609 37.96672246 -0.08068392 57 2 C57 2.33 57 2.66 57 3 C52.6041806 3.02907584 48.20838601 3.0468244 43.8125 3.0625 C42.56662109 3.07087891 41.32074219 3.07925781 40.03710938 3.08789062 C38.2340332 3.09272461 38.2340332 3.09272461 36.39453125 3.09765625 C35.28956299 3.10289307 34.18459473 3.10812988 33.04614258 3.11352539 C30.22578661 3.00841474 27.75376334 2.57206932 25 2 C23.01661939 1.8577379 21.03016487 1.754929 19.04296875 1.68359375 C17.93115234 1.64169922 16.81933594 1.59980469 15.67382812 1.55664062 C14.52333984 1.51732422 13.37285156 1.47800781 12.1875 1.4375 C11.01767578 1.39431641 9.84785156 1.35113281 8.64257812 1.30664062 C5.76182969 1.20081721 2.88099877 1.09873175 0 1 C0 0.67 0 0.34 0 0 Z " fill="#AFBD59" transform="translate(215,74)"/>
<path d="M0 0 C0 0.66 0 1.32 0 2 C-2.38426888 3.78227064 -4.76232286 5.43700301 -7.25 7.0625 C-7.93191406 7.52205078 -8.61382812 7.98160156 -9.31640625 8.45507812 C-12.54967236 10.59280067 -15.16157035 12.21611772 -19 13 C-18.34 12.34 -17.68 11.68 -17 11 C-17 9.68 -17 8.36 -17 7 C-15.35 7 -13.7 7 -12 7 C-12.66 5.68 -13.32 4.36 -14 3 C-8.99067246 -0.00559652 -5.67276511 -0.29341888 0 0 Z " fill="#E6313A" transform="translate(455,289)"/>
<path d="M0 0 C1.86136345 0.00033989 1.86136345 0.00033989 3.7603302 0.00068665 C5.10413987 0.01600406 6.4479458 0.031652 7.79174805 0.04760742 C9.1746525 0.05320719 10.55756292 0.05747549 11.94047546 0.06047058 C15.56886411 0.07188954 19.19688879 0.10133068 22.82513428 0.13458252 C26.53205442 0.16534745 30.23903374 0.17898959 33.94604492 0.1940918 C41.21118427 0.22620376 48.47602441 0.27736371 55.7409668 0.34057617 C55.7409668 0.67057617 55.7409668 1.00057617 55.7409668 1.34057617 C42.8709668 1.34057617 30.0009668 1.34057617 16.7409668 1.34057617 C16.7409668 2.00057617 16.7409668 2.66057617 16.7409668 3.34057617 C8.8209668 3.01057617 0.9009668 2.68057617 -7.2590332 2.34057617 C-7.2590332 3.00057617 -7.2590332 3.66057617 -7.2590332 4.34057617 C-8.5790332 4.01057617 -9.8990332 3.68057617 -11.2590332 3.34057617 C-7.3565631 0.60413431 -4.74062746 -0.02896514 0 0 Z " fill="#DDD75C" transform="translate(159.259033203125,73.659423828125)"/>
<path d="M0 0 C-2.9823868 2.50965416 -5.39979847 3.57738724 -9.1875 4.4375 C-10.23550781 4.67984375 -11.28351563 4.9221875 -12.36328125 5.171875 C-14.16345703 5.58179688 -14.16345703 5.58179688 -16 6 C-17.45244641 6.35684674 -18.90424209 6.71634971 -20.35546875 7.078125 C-21.86190846 7.44820459 -23.36841848 7.81799811 -24.875 8.1875 C-25.58809326 8.36659912 -26.30118652 8.54569824 -27.03588867 8.73022461 C-31.10910173 9.70922913 -34.81311676 10.19031287 -39 10 C-36.78001359 7.44007817 -35.330997 6.59189059 -32 6.0625 C-26.64256909 5.12176064 -21.32307708 4.05428875 -16 2.9375 C-15.15050781 2.7629126 -14.30101562 2.5883252 -13.42578125 2.40844727 C-12.62527344 2.24143311 -11.82476562 2.07441895 -11 1.90234375 C-10.278125 1.75273193 -9.55625 1.60312012 -8.8125 1.44897461 C-2.67847256 -0.07048612 -2.67847256 -0.07048612 0 0 Z " fill="#EDAC79" transform="translate(333,346)"/>
<path d="M0 0 C-3.75968787 2.25777601 -7.80819467 2.87446549 -12.0625 3.625 C-12.78244141 3.7590625 -13.50238281 3.893125 -14.24414062 4.03125 C-17.20491669 4.57007276 -19.9844408 5 -23 5 C-23 5.66 -23 6.32 -23 7 C-24.87077668 7.53580497 -26.7468917 8.05298887 -28.625 8.5625 C-29.66914063 8.85253906 -30.71328125 9.14257812 -31.7890625 9.44140625 C-35.19022902 10.03309337 -37.65448342 9.75851802 -41 9 C-38.69010467 6.69010467 -37.55117357 6.48121147 -34.4140625 5.78125 C-33.48843506 5.57201904 -32.56280762 5.36278809 -31.60913086 5.1472168 C-30.62436768 4.93363525 -29.63960449 4.72005371 -28.625 4.5 C-27.62799072 4.27932861 -26.63098145 4.05865723 -25.60375977 3.83129883 C-7.41468487 -0.14538598 -7.41468487 -0.14538598 0 0 Z " fill="#D0AACD" transform="translate(244,49)"/>
<path d="M0 0 C8.25 0 16.5 0 25 0 C25 0.33 25 0.66 25 1 C38.365 1.495 38.365 1.495 52 2 C52 2.33 52 2.66 52 3 C47.16603021 3.05028938 42.33222012 3.08612912 37.49804688 3.10986328 C35.86130107 3.11978101 34.22457228 3.13331937 32.58789062 3.15087891 C21.55125378 3.26612634 10.91474128 2.66920267 0 1 C0 0.67 0 0.34 0 0 Z " fill="#FAC980" transform="translate(204,359)"/>
<path d="M0 0 C1.32 0 2.64 0 4 0 C4 0.66 4 1.32 4 2 C4.9075 2.12375 5.815 2.2475 6.75 2.375 C10 3 10 3 11.92578125 3.9765625 C14.12685453 5.06259112 16.0297685 5.54525139 18.4375 6 C19.30117188 6.165 20.16484375 6.33 21.0546875 6.5 C25.49115397 7.2531402 29.94839838 7.85439979 34.41015625 8.4375 C35.26480469 8.623125 36.11945313 8.80875 37 9 C37.495 9.99 37.495 9.99 38 11 C32.16289284 11.17167962 26.94125796 10.65507059 21.25 9.375 C20.47156738 9.20258789 19.69313477 9.03017578 18.89111328 8.85253906 C12.00729443 7.21427819 6.11359975 4.59623515 0 1 C0 0.67 0 0.34 0 0 Z " fill="#C0280C" transform="translate(274,286)"/>
<path d="M0 0 C0 0.66 0 1.32 0 2 C-5.28 2.66 -10.56 3.32 -16 4 C-16.33 6.31 -16.66 8.62 -17 11 C-19.5 8.8125 -19.5 8.8125 -22 6 C-22.15625 3.32421875 -22.15625 3.32421875 -22 1 C-14.65623924 0.42240084 -7.36901413 -0.14738028 0 0 Z " fill="#A41F34" transform="translate(392,103)"/>
<path d="M0 0 C0 0.33 0 0.66 0 1 C-1.65 1 -3.3 1 -5 1 C-5 1.66 -5 2.32 -5 3 C-11.85275623 4.68661425 -18.5344465 5.55754631 -25.5625 6.125 C-27.07553711 6.25455078 -27.07553711 6.25455078 -28.61914062 6.38671875 C-31.07902365 6.59656659 -33.53922902 6.80088467 -36 7 C-32.94152736 4.96101824 -31.36404762 4.54460067 -27.81640625 3.96484375 C-26.80642578 3.79533203 -25.79644531 3.62582031 -24.75585938 3.45117188 C-23.70205078 3.28166016 -22.64824219 3.11214844 -21.5625 2.9375 C-19.48026873 2.59365702 -17.39822913 2.24865081 -15.31640625 1.90234375 C-13.93110718 1.67792603 -13.93110718 1.67792603 -12.51782227 1.44897461 C-10.0516744 1.04270459 -10.0516744 1.04270459 -7.87084961 0.44750977 C-5.23744984 -0.18240303 -2.69499273 -0.06124983 0 0 Z " fill="#E7ACAC" transform="translate(371,271)"/>
<path d="M0 0 C0.99 0.33 1.98 0.66 3 1 C2.34 1 1.68 1 1 1 C0.773125 1.763125 0.54625 2.52625 0.3125 3.3125 C-1.28096179 6.5753027 -2.76338336 7.46260709 -6 9 C-6.66 9 -7.32 9 -8 9 C-8.33 9.66 -8.66 10.32 -9 11 C-12.0625 11.625 -12.0625 11.625 -15 12 C-10.68074087 7.24881495 -5.6487497 3.08287695 0 0 Z " fill="#E9ED89" transform="translate(145,78)"/>
<path d="M0 0 C1.32 0.33 2.64 0.66 4 1 C4 1.99 4 2.98 4 4 C4.59296875 4.10183594 5.1859375 4.20367187 5.796875 4.30859375 C8.36184111 5.11355652 9.42743483 6.11566902 11.25 8.0625 C11.77078125 8.61035156 12.2915625 9.15820312 12.828125 9.72265625 C13.21484375 10.14417969 13.6015625 10.56570312 14 11 C13.67 11.66 13.34 12.32 13 13 C8.71 13 4.42 13 0 13 C0.33 12.34 0.66 11.68 1 11 C3.32156597 10.59270772 5.6568787 10.25561323 8 10 C7.20882096 8.00016466 7.20882096 8.00016466 6 6 C5.01 5.67 4.02 5.34 3 5 C3 4.34 3 3.68 3 3 C2.01 2.67 1.02 2.34 0 2 C0 1.34 0 0.68 0 0 Z " fill="#BDC977" transform="translate(356,94)"/>
<path d="M0 0 C0.89203125 0.00902344 1.7840625 0.01804687 2.703125 0.02734375 C3.37859375 0.03894531 4.0540625 0.05054688 4.75 0.0625 C4.75 0.3925 4.75 0.7225 4.75 1.0625 C0.77277258 1.74108764 -3.20703804 2.40317334 -7.1875 3.0625 C-8.30447266 3.25328125 -9.42144531 3.4440625 -10.57226562 3.640625 C-16.89366457 4.6787433 -22.84477372 5.27985657 -29.25 5.0625 C-29.25 4.7325 -29.25 4.4025 -29.25 4.0625 C-23.60531114 2.09342249 -18.19496682 1.65157565 -12.23828125 1.30859375 C-9.38035285 1.15605122 -9.38035285 1.15605122 -7.18359375 0.5390625 C-4.74544715 -0.06185444 -2.50719493 -0.03298941 0 0 Z " fill="#F3BE93" transform="translate(289.25,355.9375)"/>
<path d="M0 0 C2.31 0 4.62 0 7 0 C0.61957579 4.25361614 -7.3973032 6.30884575 -15 7 C-14.01 6.67 -13.02 6.34 -12 6 C-11.67 4.35 -11.34 2.7 -11 1 C-7.37 1.33 -3.74 1.66 0 2 C0 1.34 0 0.68 0 0 Z " fill="#F1AC76" transform="translate(349,339)"/>
<path d="M0 0 C1.98 0.99 1.98 0.99 4 2 C4 2.99 4 3.98 4 5 C4.99 5 5.98 5 7 5 C8.25 12.625 8.25 12.625 6 16 C5.67 14.35 5.34 12.7 5 11 C4.34 11 3.68 11 3 11 C2.49384702 9.73160474 1.99530901 8.46016898 1.5 7.1875 C1.2215625 6.47980469 0.943125 5.77210938 0.65625 5.04296875 C0 3 0 3 0 0 Z " fill="#A41A21" transform="translate(383,130)"/>
<path d="M0 0 C4.22845566 -0.20357077 8.45565214 -0.32772735 12.6875 -0.4375 C14.48477539 -0.52547852 14.48477539 -0.52547852 16.31835938 -0.61523438 C24.9281355 -0.78311302 24.9281355 -0.78311302 27.98291016 1.44873047 C29.42937732 3.32248334 30.36767791 4.71715062 31 7 C30.6003418 9.23266602 30.6003418 9.23266602 30 11 C28 8 28 8 28 5 C27.34 5 26.68 5 26 5 C25.67 4.34 25.34 3.68 25 3 C21.72509004 2.122419 18.51454636 1.8361408 15.13671875 1.68359375 C13.80737305 1.62075195 13.80737305 1.62075195 12.45117188 1.55664062 C11.53916016 1.51732422 10.62714844 1.47800781 9.6875 1.4375 C8.75615234 1.39431641 7.82480469 1.35113281 6.86523438 1.30664062 C4.57695546 1.20102775 2.28857628 1.09892248 0 1 C0 0.67 0 0.34 0 0 Z " fill="#C44D6E" transform="translate(440,99)"/>
<path d="M0 0 C-1.72271227 1.15551453 -3.45346917 2.29904119 -5.1875 3.4375 C-6.15042969 4.07558594 -7.11335938 4.71367187 -8.10546875 5.37109375 C-10.84977757 6.91546187 -12.90418343 7.59816641 -16 8 C-15.67 6.68 -15.34 5.36 -15 4 C-13.68 4 -12.36 4 -11 4 C-11.33 3.01 -11.66 2.02 -12 1 C-3.96428571 -1.27678571 -3.96428571 -1.27678571 0 0 Z " fill="#F09F6A" transform="translate(436,303)"/>
<path d="M0 0 C1.98 0.99 1.98 0.99 4 2 C4 2.66 4 3.32 4 4 C4.66 4 5.32 4 6 4 C7.4606285 6.64738916 8 7.89448334 8 11 C8.66 11 9.32 11 10 11 C10.66 13.64 11.32 16.28 12 19 C8.55751941 15.85214612 6.14078806 12.34193723 3.75 8.375 C3.38648438 7.78976562 3.02296875 7.20453125 2.6484375 6.6015625 C0 2.26051457 0 2.26051457 0 0 Z " fill="#F6D27C" transform="translate(141,309)"/>
<path d="M0 0 C0.495 1.485 0.495 1.485 1 3 C-2.83672283 5.55781522 -5.94535987 5.25306456 -10.38671875 5.1953125 C-11.20372757 5.1924826 -12.02073639 5.18965271 -12.86250305 5.18673706 C-15.47098459 5.17554541 -18.0791223 5.1504429 -20.6875 5.125 C-22.45637525 5.11496888 -24.22525588 5.10584326 -25.99414062 5.09765625 C-30.32955949 5.07560942 -34.66472145 5.0410867 -39 5 C-39 4.67 -39 4.34 -39 4 C-37.96069336 3.98541748 -36.92138672 3.97083496 -35.85058594 3.95581055 C-31.98874785 3.89776819 -28.12748924 3.8205362 -24.26611328 3.73754883 C-22.59596167 3.7043273 -20.92569854 3.67628666 -19.25537109 3.65356445 C-16.85205637 3.61996666 -14.44976101 3.56765054 -12.046875 3.51171875 C-11.30193787 3.50532883 -10.55700073 3.4989389 -9.78948975 3.49235535 C-5.60141764 3.37399941 -3.04207674 2.98304101 0 0 Z " fill="#E32121" transform="translate(438,297)"/>
<path d="M0 0 C-4.18574499 2.25386268 -8.61162158 3.5557189 -13.125 5 C-15.94425405 5.90563662 -15.94425405 5.90563662 -18.234375 7.1484375 C-20 8 -20 8 -22.25 7.625 C-22.8275 7.41875 -23.405 7.2125 -24 7 C-23.236875 6.54625 -22.47375 6.0925 -21.6875 5.625 C-19.76367186 4.46175508 -17.87058776 3.2470585 -16 2 C-10.67498276 0.32819226 -5.55352083 -0.23632004 0 0 Z " fill="#CCE08D" transform="translate(282,122)"/>
<path d="M0 0 C6.6 0 13.2 0 20 0 C20 0.33 20 0.66 20 1 C19.33613281 1.04898438 18.67226563 1.09796875 17.98828125 1.1484375 C11.18624114 1.52051593 11.18624114 1.52051593 5 4 C4.10613836 6.54775306 4.10613836 6.54775306 4 9 C3.34 8.67 2.68 8.34 2 8 C1.34 5.36 0.68 2.72 0 0 Z " fill="#DB2737" transform="translate(423,100)"/>
<path d="M0 0 C10.2455423 -0.23950618 19.87410311 0.22796804 30 2 C30 2.33 30 2.66 30 3 C19.7544577 3.23950618 10.12589689 2.77203196 0 1 C0 0.67 0 0.34 0 0 Z " fill="#D3B3D4" transform="translate(360,43)"/>
<path d="M0 0 C-0.66 0.66 -1.32 1.32 -2 2 C-2.99 2 -3.98 2 -5 2 C-5.33 2.99 -5.66 3.98 -6 5 C-7.9609375 5.984375 -7.9609375 5.984375 -10.375 6.75 C-11.56222656 7.14445312 -11.56222656 7.14445312 -12.7734375 7.546875 C-15 8 -15 8 -18 7 C-15.77644774 4.4429149 -14.24981807 3.75829088 -11 3 C-10.67 2.34 -10.34 1.68 -10 1 C-6.6322481 0.06451336 -3.4815554 -0.09947301 0 0 Z " fill="#EDA066" transform="translate(374,331)"/>
<path d="M0 0 C0 0.33 0 0.66 0 1 C-5.94 1.495 -5.94 1.495 -12 2 C-12 0.35 -12 -1.3 -12 -3 C-7.03897972 -4.53962698 -4.21630567 -2.73490098 0 0 Z " fill="#5FB843" transform="translate(270,283)"/>
<path d="M0 0 C0 3.39223356 -0.55802604 4.11308556 -2.4375 6.8125 C-4.65618551 10.203203 -5.69196888 12.89291842 -6 17 C-8.4294516 13.3558226 -8.16179575 11.28758728 -8 7 C-7.34 7 -6.68 7 -6 7 C-5.938125 6.21625 -5.87625 5.4325 -5.8125 4.625 C-5.544375 3.75875 -5.27625 2.8925 -5 2 C-2.4375 0.6875 -2.4375 0.6875 0 0 Z " fill="#BFD76E" transform="translate(231,146)"/>
<path d="M0 0 C-4.48681238 2.44438 -9.08948127 3.20844798 -14.0625 4.1875 C-15.42858398 4.47270508 -15.42858398 4.47270508 -16.82226562 4.76367188 C-17.69689453 4.93833984 -18.57152344 5.11300781 -19.47265625 5.29296875 C-20.66773804 5.53309692 -20.66773804 5.53309692 -21.88696289 5.77807617 C-24 6 -24 6 -27 5 C-26.34 5 -25.68 5 -25 5 C-25 4.34 -25 3.68 -25 3 C-24.06027344 2.90912109 -24.06027344 2.90912109 -23.1015625 2.81640625 C-21.87566406 2.69072266 -21.87566406 2.69072266 -20.625 2.5625 C-19.81289063 2.48128906 -19.00078125 2.40007812 -18.1640625 2.31640625 C-15.95727195 2.10909886 -15.95727195 2.10909886 -14 1 C-9.36490538 0.26239162 -4.69419613 -0.15142568 0 0 Z " fill="#D3E79D" transform="translate(333,110)"/>
<path d="M0 0 C0.33 0 0.66 0 1 0 C2.68010375 11.34070033 1.70614907 20.82102705 -1 32 C-1.33 32 -1.66 32 -2 32 C-2.05449838 30.27119018 -2.09301688 28.54187288 -2.125 26.8125 C-2.14820313 25.84957031 -2.17140625 24.88664062 -2.1953125 23.89453125 C-2 21 -2 21 -1 18.65625 C0.37249393 15.010563 0.21409268 11.52191174 0.125 7.6875 C0.11597656 6.94693359 0.10695312 6.20636719 0.09765625 5.44335938 C0.07424213 3.62876533 0.03837615 1.81433929 0 0 Z " fill="#C3DE31" transform="translate(221,144)"/>
<path d="M0 0 C4.62 0 9.24 0 14 0 C14 0.33 14 0.66 14 1 C13.14535156 1.13277344 12.29070312 1.26554687 11.41015625 1.40234375 C10.30542969 1.57894531 9.20070313 1.75554687 8.0625 1.9375 C6.96035156 2.11152344 5.85820312 2.28554688 4.72265625 2.46484375 C2.09573071 2.71845136 2.09573071 2.71845136 1 4 C-0.4887186 4.08669432 -1.981445 4.10703494 -3.47265625 4.09765625 C-4.37177734 4.09443359 -5.27089844 4.09121094 -6.19726562 4.08789062 C-7.14279297 4.07951172 -8.08832031 4.07113281 -9.0625 4.0625 C-10.01189453 4.05798828 -10.96128906 4.05347656 -11.93945312 4.04882812 C-14.29303065 4.0370011 -16.64648477 4.02052025 -19 4 C-19 3.67 -19 3.34 -19 3 C-12.73 2.67 -6.46 2.34 0 2 C0 1.34 0 0.68 0 0 Z " fill="#E4AB68" transform="translate(271,283)"/>
<path d="M0 0 C0.33 0 0.66 0 1 0 C1.02685938 2.14576637 1.04633088 4.29162645 1.0625 6.4375 C1.07410156 7.63246094 1.08570313 8.82742187 1.09765625 10.05859375 C1 13 1 13 0 14 C-0.23678716 16.69235776 -0.42198025 19.36498156 -0.5625 22.0625 C-0.60568359 22.82111328 -0.64886719 23.57972656 -0.69335938 24.36132812 C-0.79973633 26.24065438 -0.90039934 28.12030244 -1 30 C-1.33 30 -1.66 30 -2 30 C-2.39755352 8.99082569 -2.39755352 8.99082569 0 0 Z " fill="#7FC235" transform="translate(220,170)"/>
<path d="M0 0 C-2.42380796 2.42380796 -4.57362054 2.74620468 -7.84765625 3.4921875 C-9.79539543 3.95172669 -11.71371068 4.53184125 -13.625 5.125 C-16.91207072 5.97720352 -19.62362995 6.16470098 -23 6 C-19.16926917 3.86959356 -15.09786732 2.62689148 -10.9375 1.3125 C-10.21755859 1.07466797 -9.49761719 0.83683594 -8.75585938 0.59179688 C-3.35483259 -1.11827753 -3.35483259 -1.11827753 0 0 Z " fill="#F08016" transform="translate(273,348)"/>
<path d="M0 0 C1.76644008 2.64966013 2.88971705 4.94081299 4.0625 7.875 C4.57490234 9.13957031 4.57490234 9.13957031 5.09765625 10.4296875 C5.98073602 12.94512683 6.54398751 15.37675291 7 18 C5.35 18 3.7 18 2 18 C2.04125 16.80375 2.0825 15.6075 2.125 14.375 C2.13850228 10.55385518 1.30983537 7.60204727 0 4 C0 2.68 0 1.36 0 0 Z " fill="#9AD28D" transform="translate(240,227)"/>
<path d="M0 0 C2.56919192 2.25886817 3.68000131 4.20020805 4.75 7.4375 C5.01296875 8.19933594 5.2759375 8.96117188 5.546875 9.74609375 C6.04123949 12.20513089 5.79335904 13.64672554 5 16 C5 15.34 5 14.68 5 14 C4.34 14 3.68 14 3 14 C0.96006486 9.07015675 -0.40652968 5.42039575 0 0 Z " fill="#E97D84" transform="translate(471,111)"/>
<path d="M0 0 C0.27131956 5.33595134 0.4266889 8.61383821 -3 13 C-3.33 13 -3.66 13 -4 13 C-4.08086147 11.20906809 -4.13912702 9.41710372 -4.1875 7.625 C-4.22230469 6.62726563 -4.25710938 5.62953125 -4.29296875 4.6015625 C-4.14794922 3.31378906 -4.14794922 3.31378906 -4 2 C-1 0 -1 0 0 0 Z " fill="#E25B62" transform="translate(487,247)"/>
<path d="M0 0 C2.57498808 2.57498808 3.06266755 4.83827942 4.125 8.3125 C4.47820312 9.44300781 4.83140625 10.57351562 5.1953125 11.73828125 C5.91707403 14.66386802 6.16826562 17.01048079 6 20 C4 17 4 17 4 14 C3.34 14 2.68 14 2 14 C0.09391902 10.78817851 -0.22266247 8.46117397 -0.125 4.75 C-0.09792969 3.41195312 -0.09792969 3.41195312 -0.0703125 2.046875 C-0.04710937 1.37140625 -0.02390625 0.6959375 0 0 Z " fill="#EE9296" transform="translate(477,127)"/>
<path d="M0 0 C0.33 0 0.66 0 1 0 C3.21211746 7.05112439 3.20177072 13.64657821 3 21 C0.28749984 15.93666637 -0.12000022 12.00002153 -0.0625 6.25 C-0.05347656 5.07953125 -0.04445313 3.9090625 -0.03515625 2.703125 C-0.02355469 1.81109375 -0.01195313 0.9190625 0 0 Z " fill="#DDE25E" transform="translate(108,187)"/>
<path d="M0 0 C0 0.33 0 0.66 0 1 C-2.70776494 1.64829562 -5.41616445 2.29370602 -8.125 2.9375 C-8.88554687 3.11990234 -9.64609375 3.30230469 -10.4296875 3.49023438 C-14.60428434 4.47990173 -18.75459839 5.35572979 -23 6 C-21 4 -21 4 -18 2 C-18 1.67 -18 1.34 -18 1 C-16.12528812 0.83012319 -14.25021305 0.66425224 -12.375 0.5 C-11.33085937 0.4071875 -10.28671875 0.314375 -9.2109375 0.21875 C-6.12853212 0.00875645 -3.08834771 -0.03709727 0 0 Z " fill="#D8E8A2" transform="translate(306,116)"/>
<path d="M0 0 C2.18614424 2.18614424 2.68256535 3.53879949 3.625 6.4375 C3.88539063 7.21996094 4.14578125 8.00242187 4.4140625 8.80859375 C5 11 5 11 5 14 C3.68 14 2.36 14 1 14 C0.06380187 10.84493858 -0.1057123 8.03413498 -0.0625 4.75 C-0.05347656 3.85796875 -0.04445312 2.9659375 -0.03515625 2.046875 C-0.02355469 1.37140625 -0.01195312 0.6959375 0 0 Z " fill="#C1DC31" transform="translate(232,272)"/>
<path d="M0 0 C1.50729893 3.01459786 0.49235099 5.13631184 -0.25 8.375 C-0.62898438 10.08816406 -0.62898438 10.08816406 -1.015625 11.8359375 C-1.95463182 14.8541737 -2.93669412 16.64690396 -5 19 C-4.5464821 11.97047248 -2.87940913 6.4150557 0 0 Z " fill="#EFF2A0" transform="translate(114,109)"/>
<path d="M0 0 C2.83077371 2.83077371 3.22708446 6.15627788 4.125 9.9375 C4.30675781 10.66646484 4.48851562 11.39542969 4.67578125 12.14648438 C5.41168435 15.16479369 6 17.88224375 6 21 C5.01 21 4.02 21 3 21 C2 14 1 7 0 0 Z " fill="#BBE3B2" transform="translate(232,199)"/>
<path d="M0 0 C3.0691251 4.60368766 3.12326774 7.71199708 3.0625 13.125 C3.05798828 13.87910156 3.05347656 14.63320312 3.04882812 15.41015625 C3.03703499 17.27347127 3.01909942 19.13674555 3 21 C2.67 21 2.34 21 2 21 C1.6616656 18.62561751 1.32920998 16.25065041 1 13.875 C0.90460938 13.20984375 0.80921875 12.5446875 0.7109375 11.859375 C0.16388547 7.87371019 -0.10022182 4.02140062 0 0 Z " fill="#7ABF34" transform="translate(220,210)"/>
<path d="M0 0 C-4.75 4 -4.75 4 -7 4 C-7.66 5.32 -8.32 6.64 -9 8 C-9.66 7.67 -10.32 7.34 -11 7 C-10.64780657 4.39376858 -10.23526531 2.39210885 -8.875 0.125 C-5.87289213 -1.67626472 -3.29820792 -0.68453372 0 0 Z " fill="#C9DE88" transform="translate(243,138)"/>
<path d="M0 0 C4.29 0 8.58 0 13 0 C13 0.33 13 0.66 13 1 C10.36 1.33 7.72 1.66 5 2 C5 2.66 5 3.32 5 4 C2.36 3.67 -0.28 3.34 -3 3 C-3.33 3.66 -3.66 4.32 -4 5 C-4.66 4.34 -5.32 3.68 -6 3 C-4.02 2.67 -2.04 2.34 0 2 C0 1.34 0 0.68 0 0 Z " fill="#DADC3A" transform="translate(152,76)"/>
<path d="M0 0 C0.33 0.99 0.66 1.98 1 3 C-3.82029598 8.78435518 -3.82029598 8.78435518 -7.1796875 9.3984375 C-9.375 9.375 -9.375 9.375 -13 9 C-10.64797503 7.00982503 -8.91709362 5.9746205 -5.9375 5.0625 C-2.70252721 3.89240346 -1.7381449 2.89690816 0 0 Z " fill="#CA545A" transform="translate(406,256)"/>
<path d="M0 0 C0.99 0.495 0.99 0.495 2 1 C2.31241455 3.71446979 2.51336592 6.33909361 2.625 9.0625 C2.66367187 9.82111328 2.70234375 10.57972656 2.7421875 11.36132812 C2.83673562 13.24047195 2.91946756 15.12020336 3 17 C0.19499035 12.79248553 -0.12829139 9.75014586 -0.0625 4.75 C-0.05347656 3.85796875 -0.04445313 2.9659375 -0.03515625 2.046875 C-0.02355469 1.37140625 -0.01195312 0.6959375 0 0 Z " fill="#DB3E43" transform="translate(487,177)"/>
<path d="M0 0 C0.33 0 0.66 0 1 0 C1.2494783 7.29031024 0.72330907 13.90673679 -1 21 C-1.33 21 -1.66 21 -2 21 C-2.02687279 19.18757948 -2.04633715 17.37504767 -2.0625 15.5625 C-2.07410156 14.55316406 -2.08570313 13.54382813 -2.09765625 12.50390625 C-2 10 -2 10 -1 9 C-0.76807135 7.48530552 -0.58784762 5.96245438 -0.4375 4.4375 C-0.35371094 3.61121094 -0.26992188 2.78492188 -0.18359375 1.93359375 C-0.12300781 1.29550781 -0.06242187 0.65742188 0 0 Z " fill="#D52B32" transform="translate(489,225)"/>
<path d="M0 0 C6.5 6.5 6.5 6.5 8 9 C7.6875 11.75 7.6875 11.75 7 14 C4.34920279 12.67460139 4.09657408 11.38025386 2.9375 8.6875 C2.59589844 7.90761719 2.25429688 7.12773438 1.90234375 6.32421875 C1.08711691 4.22439203 0.48741918 2.19589876 0 0 Z " fill="#D89190" transform="translate(376,116)"/>
<path d="M0 0 C7.28695785 -0.474377 11.97181491 -0.28670939 18 4 C14.80697692 5.06434103 13.19185893 4.96752058 10.125 3.625 C6.76099741 2.24538096 3.62709937 1.45338742 0 1 C0 0.67 0 0.34 0 0 Z " fill="#9B6A7E" transform="translate(328,85)"/>
<path d="M0 0 C2.70058773 2.52054855 4.40337783 4.69271121 6 8 C6.66 8.33 7.32 8.66 8 9 C8 9.99 8 10.98 8 12 C7.34 12 6.68 12 6 12 C6 11.34 6 10.68 6 10 C5.01 9.67 4.02 9.34 3 9 C0 2.88888889 0 2.88888889 0 0 Z " fill="#A6D498" transform="translate(255,262)"/>
<path d="M0 0 C1.89611434 0.14213297 3.79188394 0.28886907 5.6875 0.4375 C6.74324219 0.51871094 7.79898437 0.59992187 8.88671875 0.68359375 C11.65086297 0.96451681 14.28945741 1.40156852 17 2 C17 2.33 17 2.66 17 3 C14.72975032 3.08097324 12.45867925 3.13917704 10.1875 3.1875 C8.29064453 3.23970703 8.29064453 3.23970703 6.35546875 3.29296875 C3 3 3 3 1.05078125 1.48828125 C0.70402344 0.99714844 0.35726563 0.50601563 0 0 Z " fill="#D1ABD1" transform="translate(390,46)"/>
<path d="M0 0 C3.63094642 2.64960955 5.89851796 5.01824456 8 9 C5.69 8.34 3.38 7.68 1 7 C0.67 4.69 0.34 2.38 0 0 Z " fill="#A1D594" transform="translate(263,274)"/>
<path d="M0 0 C0.33 0 0.66 0 1 0 C4.44419134 10.37357631 4.44419134 10.37357631 4 16 C3.34 16 2.68 16 2 16 C1.855625 14.865625 1.71125 13.73125 1.5625 12.5625 C1.38828522 9.19222799 1.38828522 9.19222799 0 8 C-0.14115161 5.32941149 -0.04247107 2.67567762 0 0 Z " fill="#BCDC34" transform="translate(227,254)"/>
<path d="M0 0 C1.9375 0.9375 1.9375 0.9375 4 3 C5.05261943 7.21833309 5.37995672 10.86012983 4 15 C3.32779649 13.06441401 2.66241923 11.12645628 2 9.1875 C1.62875 8.10855469 1.2575 7.02960938 0.875 5.91796875 C0 3 0 3 0 0 Z " fill="#DF999C" transform="translate(387,141)"/>
<path d="M0 0 C0.99 0 1.98 0 3 0 C3.33 5.28 3.66 10.56 4 16 C1.72525723 12.58788584 1.43370356 10.3431471 0.875 6.3125 C0.70742188 5.13300781 0.53984375 3.95351562 0.3671875 2.73828125 C0.24601562 1.83464844 0.12484375 0.93101562 0 0 Z " fill="#DB979D" transform="translate(394,165)"/>
<path d="M0 0 C4.875 4.625 4.875 4.625 6 8 C4.35 7.67 2.7 7.34 1 7 C0.67 4.69 0.34 2.38 0 0 Z " fill="#AA7FAD" transform="translate(448,72)"/>
<path d="M0 0 C0.99386719 0.02707031 1.98773438 0.05414063 3.01171875 0.08203125 C4.15060547 0.13423828 4.15060547 0.13423828 5.3125 0.1875 C5.3125 0.5175 5.3125 0.8475 5.3125 1.1875 C0.47008367 2.52333899 -3.62187617 3.44078119 -8.6875 3.1875 C-6.10291354 -0.17334451 -4.11082043 -0.14508778 0 0 Z " fill="#F3BE99" transform="translate(302.6875,352.8125)"/>
<path d="M0 0 C3.3125 0.125 3.3125 0.125 7 1 C8.9375 4.0625 8.9375 4.0625 10 7 C5.56541027 5.6062718 3.12621626 3.39417765 0 0 Z " fill="#F7D983" transform="translate(167,343)"/>
<path d="M0 0 C2.64 0 5.28 0 8 0 C5.8322078 2.27618181 3.67272281 4.32954824 1 6 C0.01 5.67 -0.98 5.34 -2 5 C-1.34 4.67 -0.68 4.34 0 4 C0 2.68 0 1.36 0 0 Z " fill="#EC8386" transform="translate(438,296)"/>
<path d="M0 0 C-0.66 1.32 -1.32 2.64 -2 4 C-4.3431213 3.74438677 -6.67843403 3.40729228 -9 3 C-9.33 2.34 -9.66 1.68 -10 1 C-6.56484998 0.37542727 -3.50935186 0 0 0 Z " fill="#B7252C" transform="translate(337,278)"/>
<path d="M0 0 C3.25 -0.375 3.25 -0.375 7 0 C9.5 2.75 9.5 2.75 11 6 C10.75 8.375 10.75 8.375 10 10 C8 7 8 7 8 4 C7.34 4 6.68 4 6 4 C5.67 3.34 5.34 2.68 5 2 C2.47266765 1.34444881 2.47266765 1.34444881 0 1 C0 0.67 0 0.34 0 0 Z " fill="#E77980" transform="translate(460,100)"/>
<path d="M0 0 C3.93673644 1.31224548 6.22719294 2.91910327 9 6 C6.36 5.34 3.72 4.68 1 4 C0.67 2.68 0.34 1.36 0 0 Z " fill="#D5BBD6" transform="translate(433,58)"/>
<path d="M0 0 C2.31 0 4.62 0 7 0 C6.01 0.66 5.02 1.32 4 2 C3.195625 2.556875 2.39125 3.11375 1.5625 3.6875 C-1 5 -1 5 -3.3125 4.6875 C-3.869375 4.460625 -4.42625 4.23375 -5 4 C-4.360625 3.71125 -3.72125 3.4225 -3.0625 3.125 C-0.84793921 2.17176549 -0.84793921 2.17176549 0 0 Z " fill="#F5C298" transform="translate(385,325)"/>
<path d="M0 0 C-3.74525799 3.74525799 -7.98270909 3.68909949 -13 4 C-8.62615587 1.08410391 -5.29457529 -0.30254716 0 0 Z " fill="#F6CCAB" transform="translate(333,346)"/>
<path d="M0 0 C0 0.66 0 1.32 0 2 C-3.50776784 3.60355101 -6.14354879 4.22036864 -10 4 C-9.67 3.34 -9.34 2.68 -9 2 C-2.88888889 0 -2.88888889 0 0 0 Z " fill="#FEA621" transform="translate(266,347)"/>
<path d="M0 0 C1.98 0.99 1.98 0.99 4 2 C4 4.97 4 7.94 4 11 C1.55160412 7.32740617 0 4.45351799 0 0 Z " fill="#D59192" transform="translate(383,130)"/>
<path d="M0 0 C0.99 0.33 1.98 0.66 3 1 C2.67 3.31 2.34 5.62 2 8 C0.35 6.35 -1.3 4.7 -3 3 C-2.67 2.34 -2.34 1.68 -2 1 C-1.67 1.33 -1.34 1.66 -1 2 C-0.67 1.34 -0.34 0.68 0 0 Z " fill="#D0737E" transform="translate(373,106)"/>
<path d="M0 0 C2.31 0 4.62 0 7 0 C4.60490662 2.89932357 2.68754757 3.50168276 -1 4 C-0.67 2.68 -0.34 1.36 0 0 Z " fill="#EDA46B" transform="translate(413,311)"/>
<path d="M0 0 C2 3 2 3 2 6 C2.66 6 3.32 6 4 6 C3.67 7.65 3.34 9.3 3 11 C0.2441427 6.86621405 -0.10756445 4.94796454 0 0 Z " fill="#BF5E60" transform="translate(399,186)"/>
<path d="M0 0 C0 3.99904969 -1.72586967 5.80200422 -4 9 C-5.231394 6.53721199 -5.07159196 4.7204945 -5 2 C-3.35 1.34 -1.7 0.68 0 0 Z " fill="#CEE48F" transform="translate(231,146)"/>
<path d="M0 0 C3.875 1.875 3.875 1.875 5 3 C5.04063832 4.66617115 5.042721 6.33388095 5 8 C2.21611025 6.29374499 1.14615794 5.52373261 0.25 2.3125 C0.1675 1.549375 0.085 0.78625 0 0 Z " fill="#AB3339" transform="translate(374,111)"/>
<path d="M0 0 C1.98 0 3.96 0 6 0 C6 0.66 6 1.32 6 2 C2.53846154 5 2.53846154 5 0 5 C0 3.35 0 1.7 0 0 Z " fill="#EA7C81" transform="translate(449,289)"/>
<path d="M0 0 C2.50037734 2.17424117 3.43628586 3.73045798 4 7 C3.34 7 2.68 7 2 7 C1.67 6.34 1.34 5.68 1 5 C0.01 5.495 0.01 5.495 -1 6 C-0.67 4.02 -0.34 2.04 0 0 Z " fill="#AEDA9F" transform="translate(251,254)"/>
<path d="M0 0 C4 6 4 6 4 10 C3.01 9.67 2.02 9.34 1 9 C0.67 6.03 0.34 3.06 0 0 Z " fill="#BEE4B4" transform="translate(240,227)"/>
<path d="M0 0 C1.9955516 3.99110319 2.19546065 5.69986566 2 10 C1.01 10 0.02 10 -1 10 C-0.67 6.7 -0.34 3.4 0 0 Z " fill="#69B758" transform="translate(233,206)"/>
<path d="M0 0 C1.65 0.33 3.3 0.66 5 1 C4.34 2.32 3.68 3.64 3 5 C2.34 5 1.68 5 1 5 C1 4.34 1 3.68 1 3 C0.34 3 -0.32 3 -1 3 C-0.67 2.01 -0.34 1.02 0 0 Z " fill="#EC6B73" transform="translate(467,274)"/>
<path d="M0 0 C3.85645121 -0.22036864 6.49223216 0.39644899 10 2 C10 2.66 10 3.32 10 4 C8.72125 3.71125 7.4425 3.4225 6.125 3.125 C5.40570313 2.96257812 4.68640625 2.80015625 3.9453125 2.6328125 C2 2 2 2 0 0 Z " fill="#97677F" transform="translate(350,91)"/>
<path d="M0 0 C-4.625 3 -4.625 3 -8 3 C-8 2.34 -8 1.68 -8 1 C-3.375 -1.125 -3.375 -1.125 0 0 Z " fill="#965997" transform="translate(183,66)"/>
<path d="" fill="#FFFFFF" transform="translate(0,0)"/>
<path d="" fill="#FFFFFF" transform="translate(0,0)"/>
<path d="" fill="#FFFFFF" transform="translate(0,0)"/>
<path d="" fill="#FFFFFF" transform="translate(0,0)"/>
<path d="" fill="#FFFFFF" transform="translate(0,0)"/>
<path d="" fill="#FFFFFF" transform="translate(0,0)"/>
<path d="" fill="#FFFFFF" transform="translate(0,0)"/>
<path d="" fill="#FFFFFF" transform="translate(0,0)"/>
<path d="" fill="#FFFFFF" transform="translate(0,0)"/>
<path d="" fill="#FFFFFF" transform="translate(0,0)"/>
<path d="" fill="#FEFFFF" transform="translate(0,0)"/>
<path d="" fill="#FFFFFF" transform="translate(0,0)"/>
<path d="" fill="#FFFFFF" transform="translate(0,0)"/>
<path d="" fill="#FFFFFF" transform="translate(0,0)"/>
<path d="" fill="#FFFFFF" transform="translate(0,0)"/>
<path d="" fill="#FFFFFF" transform="translate(0,0)"/>
<path d="" fill="#FFFFFF" transform="translate(0,0)"/>
<path d="" fill="#FFFFFF" transform="translate(0,0)"/>
<path d="" fill="#FFFFFF" transform="translate(0,0)"/>
<path d="" fill="#FFFFFF" transform="translate(0,0)"/>
<path d="" fill="#FFFFFF" transform="translate(0,0)"/>
<path d="" fill="#FFFFFF" transform="translate(0,0)"/>
<path d="" fill="#FFFFFF" transform="translate(0,0)"/>
<path d="" fill="#FFFFFF" transform="translate(0,0)"/>
<path d="" fill="#FFFFFF" transform="translate(0,0)"/>
<path d="" fill="#FFFFFF" transform="translate(0,0)"/>
<path d="" fill="#FFFFFF" transform="translate(0,0)"/>
<path d="" fill="#FFFFFF" transform="translate(0,0)"/>
<path d="" fill="#FFFFFF" transform="translate(0,0)"/>
<path d="" fill="#FFFFFF" transform="translate(0,0)"/>
<path d="" fill="#FFFFFF" transform="translate(0,0)"/>
<path d="" fill="#FFFFFF" transform="translate(0,0)"/>
<path d="" fill="#FFFFFF" transform="translate(0,0)"/>
<path d="" fill="#FFFFFF" transform="translate(0,0)"/>
<path d="" fill="#FFFFFF" transform="translate(0,0)"/>
<path d="" fill="#FFFFFF" transform="translate(0,0)"/>
<path d="" fill="#FFFFFF" transform="translate(0,0)"/>
<path d="" fill="#FFFFFF" transform="translate(0,0)"/>
<path d="" fill="#FFFFFF" transform="translate(0,0)"/>
<path d="" fill="#FFFFFF" transform="translate(0,0)"/>
<path d="" fill="#FFFFFF" transform="translate(0,0)"/>
<path d="" fill="#FFFFFF" transform="translate(0,0)"/>
<path d="" fill="#FFFFFF" transform="translate(0,0)"/>
<path d="" fill="#FFFFFF" transform="translate(0,0)"/>
<path d="" fill="#FFFFFF" transform="translate(0,0)"/>
<path d="" fill="#FFFFFF" transform="translate(0,0)"/>
<path d="" fill="#FFFFFF" transform="translate(0,0)"/>
<path d="" fill="#FFFFFF" transform="translate(0,0)"/>
<path d="" fill="#FFFFFF" transform="translate(0,0)"/>
<path d="" fill="#FFFFFF" transform="translate(0,0)"/>
<path d="" fill="#FFFFFF" transform="translate(0,0)"/>
</svg>
